<?xml version="1.0" encoding="UTF-8" standalone="no"?>
<!DOCTYPE svg PUBLIC "-//W3C//DTD SVG 1.1//EN"
 "http://www.w3.org/Graphics/SVG/1.1/DTD/svg11.dtd">
<!-- Generated by graphviz version 2.43.0 (0)
 -->
<!-- Title: if2prfc.y Pages: 1 -->
<svg width="1746pt" height="1530pt"
 viewBox="0.00 0.00 1746.00 1530.00" xmlns="http://www.w3.org/2000/svg" xmlns:xlink="http://www.w3.org/1999/xlink">
<g id="graph0" class="graph" transform="scale(1 1) rotate(0) translate(4 1526)">
<title>if2prfc.y</title>
<polygon fill="white" stroke="transparent" points="-4,4 -4,-1526 1742,-1526 1742,4 -4,4"/>
<!-- 0 -->
<g id="node1" class="node">
<title>0</title>
<polygon fill="none" stroke="black" points="1331,-1522 1067,-1522 1067,-1333 1331,-1333 1331,-1522"/>
<text text-anchor="middle" x="1199" y="-1506.8" font-family="Courier,monospace" font-size="14.00">State 0</text>
<text text-anchor="start" x="1075" y="-1475.8" font-family="Courier,monospace" font-size="14.00"> &#160;0 $accept: • S $end</text>
<text text-anchor="start" x="1075" y="-1460.8" font-family="Courier,monospace" font-size="14.00"> &#160;1 S: • E</text>
<text text-anchor="start" x="1075" y="-1445.8" font-family="Courier,monospace" font-size="14.00"> &#160;2 $@1: • %empty &#160;[LPAR, NUM]</text>
<text text-anchor="start" x="1075" y="-1430.8" font-family="Courier,monospace" font-size="14.00"> &#160;3 E: • $@1 E ADD T</text>
<text text-anchor="start" x="1075" y="-1415.8" font-family="Courier,monospace" font-size="14.00"> &#160;4 &#160;| • T</text>
<text text-anchor="start" x="1075" y="-1400.8" font-family="Courier,monospace" font-size="14.00"> &#160;5 $@2: • %empty &#160;[LPAR, NUM]</text>
<text text-anchor="start" x="1075" y="-1385.8" font-family="Courier,monospace" font-size="14.00"> &#160;6 T: • $@2 T MUL F</text>
<text text-anchor="start" x="1075" y="-1370.8" font-family="Courier,monospace" font-size="14.00"> &#160;7 &#160;| • F</text>
<text text-anchor="start" x="1075" y="-1355.8" font-family="Courier,monospace" font-size="14.00"> &#160;8 F: • LPAR E RPAR</text>
<text text-anchor="start" x="1075" y="-1340.8" font-family="Courier,monospace" font-size="14.00"> &#160;9 &#160;| • NUM</text>
</g>
<!-- 1 -->
<g id="node2" class="node">
<title>1</title>
<polygon fill="none" stroke="black" points="841,-1282 577,-1282 577,-1108 841,-1108 841,-1282"/>
<text text-anchor="middle" x="709" y="-1266.8" font-family="Courier,monospace" font-size="14.00">State 1</text>
<text text-anchor="start" x="585" y="-1235.8" font-family="Courier,monospace" font-size="14.00"> &#160;2 $@1: • %empty &#160;[LPAR, NUM]</text>
<text text-anchor="start" x="585" y="-1220.8" font-family="Courier,monospace" font-size="14.00"> &#160;3 E: • $@1 E ADD T</text>
<text text-anchor="start" x="585" y="-1205.8" font-family="Courier,monospace" font-size="14.00"> &#160;4 &#160;| • T</text>
<text text-anchor="start" x="585" y="-1190.8" font-family="Courier,monospace" font-size="14.00"> &#160;5 $@2: • %empty &#160;[LPAR, NUM]</text>
<text text-anchor="start" x="585" y="-1175.8" font-family="Courier,monospace" font-size="14.00"> &#160;6 T: • $@2 T MUL F</text>
<text text-anchor="start" x="585" y="-1160.8" font-family="Courier,monospace" font-size="14.00"> &#160;7 &#160;| • F</text>
<text text-anchor="start" x="585" y="-1145.8" font-family="Courier,monospace" font-size="14.00"> &#160;8 F: • LPAR E RPAR</text>
<text text-anchor="start" x="585" y="-1130.8" font-family="Courier,monospace" font-size="14.00"> &#160;8 &#160;| LPAR • E RPAR</text>
<text text-anchor="start" x="585" y="-1115.8" font-family="Courier,monospace" font-size="14.00"> &#160;9 &#160;| • NUM</text>
</g>
<!-- 0&#45;&gt;1 -->
<g id="edge1" class="edge">
<title>0&#45;&gt;1</title>
<path fill="none" stroke="black" d="M1066.72,-1364.28C999.72,-1332.76 918.33,-1294.47 850.13,-1262.39"/>
<polygon fill="black" stroke="black" points="851.56,-1259.19 841.02,-1258.11 848.58,-1265.53 851.56,-1259.19"/>
<text text-anchor="middle" x="971" y="-1303.8" font-family="Courier,monospace" font-size="14.00">LPAR</text>
</g>
<!-- 2 -->
<g id="node3" class="node">
<title>2</title>
<polygon fill="none" stroke="black" points="1013,-127 897,-127 897,-73 1013,-73 1013,-127"/>
<text text-anchor="middle" x="955" y="-111.8" font-family="Courier,monospace" font-size="14.00">State 2</text>
<text text-anchor="start" x="905" y="-80.8" font-family="Courier,monospace" font-size="14.00"> &#160;9 F: NUM •</text>
</g>
<!-- 0&#45;&gt;2 -->
<g id="edge2" class="edge">
<title>0&#45;&gt;2</title>
<path fill="none" stroke="black" d="M1210.22,-1333C1214.33,-1291.16 1218,-1241.17 1218,-1196 1218,-1196 1218,-1196 1218,-219 1218,-133.63 1101.21,-109.64 1023.29,-103.13"/>
<polygon fill="black" stroke="black" points="1023.28,-99.62 1013.04,-102.36 1022.75,-106.6 1023.28,-99.62"/>
<text text-anchor="middle" x="1230.5" y="-658.8" font-family="Courier,monospace" font-size="14.00">NUM</text>
</g>
<!-- 3 -->
<g id="node4" class="node">
<title>3</title>
<polygon fill="none" stroke="black" points="1436,-1222 1246,-1222 1246,-1168 1436,-1168 1436,-1222"/>
<text text-anchor="middle" x="1341" y="-1206.8" font-family="Courier,monospace" font-size="14.00">State 3</text>
<text text-anchor="start" x="1254" y="-1175.8" font-family="Courier,monospace" font-size="14.00"> &#160;0 $accept: S • $end</text>
</g>
<!-- 0&#45;&gt;3 -->
<g id="edge3" class="edge">
<title>0&#45;&gt;3</title>
<path fill="none" stroke="black" stroke-dasharray="5,2" d="M1256.76,-1332.75C1278.83,-1296.91 1302.68,-1258.2 1319.35,-1231.15"/>
<polygon fill="black" stroke="black" points="1322.45,-1232.79 1324.71,-1222.44 1316.49,-1229.12 1322.45,-1232.79"/>
<text text-anchor="middle" x="1279.5" y="-1303.8" font-family="Courier,monospace" font-size="14.00">S</text>
</g>
<!-- 4 -->
<g id="node5" class="node">
<title>4</title>
<polygon fill="none" stroke="black" points="1553.5,-1222 1454.5,-1222 1454.5,-1168 1553.5,-1168 1553.5,-1222"/>
<text text-anchor="middle" x="1504" y="-1206.8" font-family="Courier,monospace" font-size="14.00">State 4</text>
<text text-anchor="start" x="1462.5" y="-1175.8" font-family="Courier,monospace" font-size="14.00"> &#160;1 S: E •</text>
</g>
<!-- 0&#45;&gt;4 -->
<g id="edge4" class="edge">
<title>0&#45;&gt;4</title>
<path fill="none" stroke="black" stroke-dasharray="5,2" d="M1331.16,-1363.01C1370.3,-1340.62 1411.58,-1313.16 1445,-1282 1460.65,-1267.42 1474.41,-1247.98 1484.71,-1231.28"/>
<polygon fill="black" stroke="black" points="1487.93,-1232.7 1490.06,-1222.32 1481.92,-1229.11 1487.93,-1232.7"/>
<text text-anchor="middle" x="1426.5" y="-1303.8" font-family="Courier,monospace" font-size="14.00">E</text>
</g>
<!-- 5 -->
<g id="node6" class="node">
<title>5</title>
<polygon fill="none" stroke="black" points="562,-1057 298,-1057 298,-883 562,-883 562,-1057"/>
<text text-anchor="middle" x="430" y="-1041.8" font-family="Courier,monospace" font-size="14.00">State 5</text>
<text text-anchor="start" x="306" y="-1010.8" font-family="Courier,monospace" font-size="14.00"> &#160;2 $@1: • %empty &#160;[LPAR, NUM]</text>
<text text-anchor="start" x="306" y="-995.8" font-family="Courier,monospace" font-size="14.00"> &#160;3 E: • $@1 E ADD T</text>
<text text-anchor="start" x="306" y="-980.8" font-family="Courier,monospace" font-size="14.00"> &#160;3 &#160;| $@1 • E ADD T</text>
<text text-anchor="start" x="306" y="-965.8" font-family="Courier,monospace" font-size="14.00"> &#160;4 &#160;| • T</text>
<text text-anchor="start" x="306" y="-950.8" font-family="Courier,monospace" font-size="14.00"> &#160;5 $@2: • %empty &#160;[LPAR, NUM]</text>
<text text-anchor="start" x="306" y="-935.8" font-family="Courier,monospace" font-size="14.00"> &#160;6 T: • $@2 T MUL F</text>
<text text-anchor="start" x="306" y="-920.8" font-family="Courier,monospace" font-size="14.00"> &#160;7 &#160;| • F</text>
<text text-anchor="start" x="306" y="-905.8" font-family="Courier,monospace" font-size="14.00"> &#160;8 F: • LPAR E RPAR</text>
<text text-anchor="start" x="306" y="-890.8" font-family="Courier,monospace" font-size="14.00"> &#160;9 &#160;| • NUM</text>
</g>
<!-- 0&#45;&gt;5 -->
<g id="edge5" class="edge">
<title>0&#45;&gt;5</title>
<path fill="none" stroke="black" stroke-dasharray="5,2" d="M1066.95,-1412.5C898.51,-1392.14 619.8,-1349.3 543,-1282 481.13,-1227.78 453.12,-1136.9 440.44,-1067.34"/>
<polygon fill="black" stroke="black" points="443.85,-1066.49 438.68,-1057.24 436.95,-1067.7 443.85,-1066.49"/>
<text text-anchor="middle" x="555.5" y="-1191.3" font-family="Courier,monospace" font-size="14.00">$@1</text>
</g>
<!-- 6 -->
<g id="node7" class="node">
<title>6</title>
<polygon fill="none" stroke="black" points="188.5,-832 89.5,-832 89.5,-778 188.5,-778 188.5,-832"/>
<text text-anchor="middle" x="139" y="-816.8" font-family="Courier,monospace" font-size="14.00">State 6</text>
<text text-anchor="start" x="97.5" y="-785.8" font-family="Courier,monospace" font-size="14.00"> &#160;4 E: T •</text>
</g>
<!-- 0&#45;&gt;6 -->
<g id="edge6" class="edge">
<title>0&#45;&gt;6</title>
<path fill="none" stroke="black" stroke-dasharray="5,2" d="M1066.97,-1422.86C911.05,-1413.79 647.57,-1383.25 447,-1282 302.62,-1209.12 237.94,-1199.26 161,-1057 123.89,-988.39 127.8,-893.58 133.6,-842.36"/>
<polygon fill="black" stroke="black" points="137.11,-842.46 134.85,-832.11 130.16,-841.62 137.11,-842.46"/>
<text text-anchor="middle" x="183.5" y="-1078.8" font-family="Courier,monospace" font-size="14.00">T</text>
</g>
<!-- 7 -->
<g id="node8" class="node">
<title>7</title>
<polygon fill="none" stroke="black" points="349,-547 85,-547 85,-418 349,-418 349,-547"/>
<text text-anchor="middle" x="217" y="-531.8" font-family="Courier,monospace" font-size="14.00">State 7</text>
<text text-anchor="start" x="93" y="-500.8" font-family="Courier,monospace" font-size="14.00"> &#160;5 $@2: • %empty &#160;[LPAR, NUM]</text>
<text text-anchor="start" x="93" y="-485.8" font-family="Courier,monospace" font-size="14.00"> &#160;6 T: • $@2 T MUL F</text>
<text text-anchor="start" x="93" y="-470.8" font-family="Courier,monospace" font-size="14.00"> &#160;6 &#160;| $@2 • T MUL F</text>
<text text-anchor="start" x="93" y="-455.8" font-family="Courier,monospace" font-size="14.00"> &#160;7 &#160;| • F</text>
<text text-anchor="start" x="93" y="-440.8" font-family="Courier,monospace" font-size="14.00"> &#160;8 F: • LPAR E RPAR</text>
<text text-anchor="start" x="93" y="-425.8" font-family="Courier,monospace" font-size="14.00"> &#160;9 &#160;| • NUM</text>
</g>
<!-- 0&#45;&gt;7 -->
<g id="edge7" class="edge">
<title>0&#45;&gt;7</title>
<path fill="none" stroke="black" stroke-dasharray="5,2" d="M1066.97,-1414.87C755.32,-1385.63 0,-1303.67 0,-1196 0,-1196 0,-1196 0,-661.5 0,-611.59 34.73,-573.13 76.41,-544.94"/>
<polygon fill="black" stroke="black" points="78.37,-547.84 84.83,-539.44 74.54,-541.98 78.37,-547.84"/>
<text text-anchor="middle" x="12.5" y="-853.8" font-family="Courier,monospace" font-size="14.00">$@2</text>
</g>
<!-- 8 -->
<g id="node9" class="node">
<title>8</title>
<polygon fill="none" stroke="black" points="773.5,-367 674.5,-367 674.5,-313 773.5,-313 773.5,-367"/>
<text text-anchor="middle" x="724" y="-351.8" font-family="Courier,monospace" font-size="14.00">State 8</text>
<text text-anchor="start" x="682.5" y="-320.8" font-family="Courier,monospace" font-size="14.00"> &#160;7 T: F •</text>
</g>
<!-- 0&#45;&gt;8 -->
<g id="edge8" class="edge">
<title>0&#45;&gt;8</title>
<path fill="none" stroke="black" stroke-dasharray="5,2" d="M1187.78,-1333C1183.67,-1291.16 1180,-1241.17 1180,-1196 1180,-1196 1180,-1196 1180,-856.5 1180,-623.82 1081.36,-555.97 894,-418 860.37,-393.24 817.52,-373.89 783.25,-360.79"/>
<polygon fill="black" stroke="black" points="784.42,-357.49 773.82,-357.26 781.96,-364.04 784.42,-357.49"/>
<text text-anchor="middle" x="1184.5" y="-801.3" font-family="Courier,monospace" font-size="14.00">F</text>
</g>
<!-- 0R2d -->
<g id="node10" class="node">
<title>0R2d</title>
<polygon fill="#fb9a99" stroke="black" points="1602,-1213 1571.83,-1195 1602,-1177 1632.17,-1195 1602,-1213"/>
<text text-anchor="middle" x="1602" y="-1191.3" font-family="Courier,monospace" font-size="14.00">R2</text>
</g>
<!-- 0&#45;&gt;0R2d -->
<g id="edge9" class="edge">
<title>0&#45;&gt;0R2d</title>
<path fill="none" stroke="black" d="M1331.42,-1399.47C1406.73,-1378.32 1498.4,-1342.1 1562,-1282 1579.47,-1265.49 1590.02,-1239.85 1595.87,-1220.86"/>
<polygon fill="black" stroke="black" points="1599.27,-1221.66 1598.64,-1211.09 1592.54,-1219.75 1599.27,-1221.66"/>
<text text-anchor="middle" x="1584.5" y="-1303.8" font-family="Courier,monospace" font-size="14.00">[LPAR, NUM]</text>
</g>
<!-- 0R5d -->
<g id="node11" class="node">
<title>0R5d</title>
<polygon fill="#fb9a99" stroke="black" points="1698,-1213 1667.83,-1195 1698,-1177 1728.17,-1195 1698,-1213"/>
<text text-anchor="middle" x="1698" y="-1191.3" font-family="Courier,monospace" font-size="14.00">R5</text>
</g>
<!-- 0&#45;&gt;0R5d -->
<g id="edge10" class="edge">
<title>0&#45;&gt;0R5d</title>
<path fill="none" stroke="black" d="M1331.08,-1420.23C1424.27,-1409.7 1547.44,-1382.76 1634,-1315 1664.66,-1291 1682.46,-1248.1 1691.2,-1220.9"/>
<polygon fill="black" stroke="black" points="1694.65,-1221.56 1694.2,-1210.97 1687.95,-1219.53 1694.65,-1221.56"/>
<text text-anchor="middle" x="1692.5" y="-1303.8" font-family="Courier,monospace" font-size="14.00">[LPAR, NUM]</text>
</g>
<!-- 1&#45;&gt;1 -->
<g id="edge11" class="edge">
<title>1&#45;&gt;1</title>
<path fill="none" stroke="black" d="M841.14,-1211.23C852.15,-1207.74 859,-1202.33 859,-1195 859,-1190.08 855.91,-1186.02 850.54,-1182.83"/>
<polygon fill="black" stroke="black" points="851.71,-1179.52 841.14,-1178.77 848.93,-1185.95 851.71,-1179.52"/>
<text text-anchor="middle" x="876" y="-1191.3" font-family="Courier,monospace" font-size="14.00">LPAR</text>
</g>
<!-- 1&#45;&gt;2 -->
<g id="edge12" class="edge">
<title>1&#45;&gt;2</title>
<path fill="none" stroke="black" d="M841.3,-1188.16C936.03,-1176.31 1057.91,-1143.75 1123,-1057 1204.01,-949.04 1134,-888.48 1134,-753.5 1134,-753.5 1134,-753.5 1134,-219 1134,-163.58 1073.44,-132.71 1022.77,-116.58"/>
<polygon fill="black" stroke="black" points="1023.7,-113.2 1013.12,-113.64 1021.66,-119.9 1023.7,-113.2"/>
<text text-anchor="middle" x="1146.5" y="-568.8" font-family="Courier,monospace" font-size="14.00">NUM</text>
</g>
<!-- 1&#45;&gt;5 -->
<g id="edge14" class="edge">
<title>1&#45;&gt;5</title>
<path fill="none" stroke="black" stroke-dasharray="5,2" d="M576.68,-1125.53C559.64,-1114.56 542.95,-1102.63 528,-1090 518.81,-1082.23 509.82,-1073.52 501.25,-1064.43"/>
<polygon fill="black" stroke="black" points="503.82,-1062.06 494.47,-1057.08 498.67,-1066.8 503.82,-1062.06"/>
<text text-anchor="middle" x="540.5" y="-1078.8" font-family="Courier,monospace" font-size="14.00">$@1</text>
</g>
<!-- 1&#45;&gt;6 -->
<g id="edge15" class="edge">
<title>1&#45;&gt;6</title>
<path fill="none" stroke="black" stroke-dasharray="5,2" d="M576.98,-1144.54C542.06,-1132.05 504.27,-1119.06 469,-1108 385.98,-1081.97 348.67,-1110.43 280,-1057 207.77,-1000.8 166.73,-896.59 149.22,-841.79"/>
<polygon fill="black" stroke="black" points="152.53,-840.67 146.22,-832.16 145.85,-842.75 152.53,-840.67"/>
<text text-anchor="middle" x="284.5" y="-966.3" font-family="Courier,monospace" font-size="14.00">T</text>
</g>
<!-- 1&#45;&gt;7 -->
<g id="edge16" class="edge">
<title>1&#45;&gt;7</title>
<path fill="none" stroke="black" stroke-dasharray="5,2" d="M576.82,-1109.58C575.22,-1109.03 573.61,-1108.5 572,-1108 486.21,-1081.22 250.46,-1125.72 168,-1090 98.49,-1059.9 46,-1046.74 46,-971 46,-971 46,-971 46,-661.5 46,-618.85 71.84,-582.46 103.44,-553.91"/>
<polygon fill="black" stroke="black" points="105.9,-556.41 111.14,-547.2 101.3,-551.13 105.9,-556.41"/>
<text text-anchor="middle" x="58.5" y="-801.3" font-family="Courier,monospace" font-size="14.00">$@2</text>
</g>
<!-- 1&#45;&gt;8 -->
<g id="edge17" class="edge">
<title>1&#45;&gt;8</title>
<path fill="none" stroke="black" stroke-dasharray="5,2" d="M720.46,-1107.96C732.59,-1022.07 751.88,-900.39 766,-883 779.32,-866.6 798.22,-882.54 810,-865 921.37,-699.11 804.86,-613.16 762,-418 758.68,-402.9 757.53,-399.01 751,-385 749.64,-382.08 748.12,-379.1 746.53,-376.15"/>
<polygon fill="black" stroke="black" points="749.56,-374.41 741.57,-367.45 743.48,-377.87 749.56,-374.41"/>
<text text-anchor="middle" x="861.5" y="-748.8" font-family="Courier,monospace" font-size="14.00">F</text>
</g>
<!-- 9 -->
<g id="node12" class="node">
<title>9</title>
<polygon fill="none" stroke="black" points="1114,-997 932,-997 932,-943 1114,-943 1114,-997"/>
<text text-anchor="middle" x="1023" y="-981.8" font-family="Courier,monospace" font-size="14.00">State 9</text>
<text text-anchor="start" x="940" y="-950.8" font-family="Courier,monospace" font-size="14.00"> &#160;8 F: LPAR E • RPAR</text>
</g>
<!-- 1&#45;&gt;9 -->
<g id="edge13" class="edge">
<title>1&#45;&gt;9</title>
<path fill="none" stroke="black" stroke-dasharray="5,2" d="M841.32,-1159.57C883.56,-1143.67 928.09,-1121.18 962,-1090 986.55,-1067.43 1002.75,-1032.72 1012.25,-1006.6"/>
<polygon fill="black" stroke="black" points="1015.59,-1007.65 1015.56,-997.05 1008.98,-1005.35 1015.59,-1007.65"/>
<text text-anchor="middle" x="979.5" y="-1078.8" font-family="Courier,monospace" font-size="14.00">E</text>
</g>
<!-- 1R2d -->
<g id="node13" class="node">
<title>1R2d</title>
<polygon fill="#fb9a99" stroke="black" points="805,-988 774.83,-970 805,-952 835.17,-970 805,-988"/>
<text text-anchor="middle" x="805" y="-966.3" font-family="Courier,monospace" font-size="14.00">R2</text>
</g>
<!-- 1&#45;&gt;1R2d -->
<g id="edge18" class="edge">
<title>1&#45;&gt;1R2d</title>
<path fill="none" stroke="black" d="M750.07,-1107.93C752.8,-1101.88 755.46,-1095.86 758,-1090 772.2,-1057.18 787.13,-1018.57 796.25,-994.44"/>
<polygon fill="black" stroke="black" points="799.54,-995.63 799.79,-985.04 792.99,-993.17 799.54,-995.63"/>
<text text-anchor="middle" x="809.5" y="-1078.8" font-family="Courier,monospace" font-size="14.00">[LPAR, NUM]</text>
</g>
<!-- 1R5d -->
<g id="node14" class="node">
<title>1R5d</title>
<polygon fill="#fb9a99" stroke="black" points="884,-988 853.83,-970 884,-952 914.17,-970 884,-988"/>
<text text-anchor="middle" x="884" y="-966.3" font-family="Courier,monospace" font-size="14.00">R5</text>
</g>
<!-- 1&#45;&gt;1R5d -->
<g id="edge19" class="edge">
<title>1&#45;&gt;1R5d</title>
<path fill="none" stroke="black" d="M841.01,-1112.47C847.66,-1105.41 853.74,-1097.92 859,-1090 877.38,-1062.29 882.61,-1023.64 883.91,-997.99"/>
<polygon fill="black" stroke="black" points="887.41,-997.98 884.25,-987.86 880.42,-997.74 887.41,-997.98"/>
<text text-anchor="middle" x="912.5" y="-1078.8" font-family="Courier,monospace" font-size="14.00">[LPAR, NUM]</text>
</g>
<!-- 2R9 -->
<g id="node15" class="node">
<title>2R9</title>
<polygon fill="#b2df8a" stroke="black" points="955,-36 924.83,-18 955,0 985.17,-18 955,-36"/>
<text text-anchor="middle" x="955" y="-14.3" font-family="Courier,monospace" font-size="14.00">R9</text>
</g>
<!-- 2&#45;&gt;2R9 -->
<g id="edge20" class="edge">
<title>2&#45;&gt;2R9</title>
<path fill="none" stroke="black" d="M955,-72.81C955,-64.35 955,-54.95 955,-46.4"/>
<polygon fill="black" stroke="black" points="958.5,-46.17 955,-36.17 951.5,-46.17 958.5,-46.17"/>
</g>
<!-- 10 -->
<g id="node16" class="node">
<title>10</title>
<polygon fill="none" stroke="black" points="1436,-997 1246,-997 1246,-943 1436,-943 1436,-997"/>
<text text-anchor="middle" x="1341" y="-981.8" font-family="Courier,monospace" font-size="14.00">State 10</text>
<text text-anchor="start" x="1254" y="-950.8" font-family="Courier,monospace" font-size="14.00"> &#160;0 $accept: S $end •</text>
</g>
<!-- 3&#45;&gt;10 -->
<g id="edge21" class="edge">
<title>3&#45;&gt;10</title>
<path fill="none" stroke="black" d="M1341,-1167.98C1341,-1128.31 1341,-1052.55 1341,-1007.42"/>
<polygon fill="black" stroke="black" points="1344.5,-1007.2 1341,-997.2 1337.5,-1007.2 1344.5,-1007.2"/>
<text text-anchor="middle" x="1358" y="-1078.8" font-family="Courier,monospace" font-size="14.00">$end</text>
</g>
<!-- 4R1 -->
<g id="node17" class="node">
<title>4R1</title>
<polygon fill="#b2df8a" stroke="black" points="1504,-988 1473.83,-970 1504,-952 1534.17,-970 1504,-988"/>
<text text-anchor="middle" x="1504" y="-966.3" font-family="Courier,monospace" font-size="14.00">R1</text>
</g>
<!-- 4&#45;&gt;4R1 -->
<g id="edge22" class="edge">
<title>4&#45;&gt;4R1</title>
<path fill="none" stroke="black" d="M1504,-1167.98C1504,-1125.51 1504,-1041.68 1504,-998.36"/>
<polygon fill="black" stroke="black" points="1507.5,-998.26 1504,-988.26 1500.5,-998.26 1507.5,-998.26"/>
</g>
<!-- 5&#45;&gt;1 -->
<g id="edge23" class="edge">
<title>5&#45;&gt;1</title>
<path fill="none" stroke="black" d="M538.04,-1057.36C556,-1071.71 574.69,-1086.65 592.84,-1101.15"/>
<polygon fill="black" stroke="black" points="591.13,-1104.27 601.13,-1107.78 595.51,-1098.8 591.13,-1104.27"/>
<text text-anchor="middle" x="595" y="-1078.8" font-family="Courier,monospace" font-size="14.00">LPAR</text>
</g>
<!-- 5&#45;&gt;2 -->
<g id="edge24" class="edge">
<title>5&#45;&gt;2</title>
<path fill="none" stroke="black" d="M562.24,-918.04C606.6,-896.36 653.92,-867.71 690,-832 731.13,-791.29 738.92,-777.6 767,-727 850.62,-576.32 860.9,-531.88 911,-367 938.34,-277.01 945.17,-253.54 955,-160 955.76,-152.73 956.1,-144.93 956.19,-137.46"/>
<polygon fill="black" stroke="black" points="959.69,-137.19 956.17,-127.2 952.69,-137.21 959.69,-137.19"/>
<text text-anchor="middle" x="908.5" y="-478.8" font-family="Courier,monospace" font-size="14.00">NUM</text>
</g>
<!-- 5&#45;&gt;5 -->
<g id="edge26" class="edge">
<title>5&#45;&gt;5</title>
<path fill="none" stroke="black" stroke-dasharray="5,2" d="M562.14,-986.23C573.15,-982.74 580,-977.33 580,-970 580,-965.08 576.91,-961.02 571.54,-957.83"/>
<polygon fill="black" stroke="black" points="572.71,-954.52 562.14,-953.77 569.93,-960.95 572.71,-954.52"/>
<text text-anchor="middle" x="592.5" y="-966.3" font-family="Courier,monospace" font-size="14.00">$@1</text>
</g>
<!-- 5&#45;&gt;6 -->
<g id="edge27" class="edge">
<title>5&#45;&gt;6</title>
<path fill="none" stroke="black" stroke-dasharray="5,2" d="M297.84,-921.97C262.54,-906.47 225.48,-887.37 194,-865 183.92,-857.84 174.25,-848.6 165.91,-839.57"/>
<polygon fill="black" stroke="black" points="168.5,-837.22 159.24,-832.08 163.28,-841.88 168.5,-837.22"/>
<text text-anchor="middle" x="198.5" y="-853.8" font-family="Courier,monospace" font-size="14.00">T</text>
</g>
<!-- 5&#45;&gt;7 -->
<g id="edge28" class="edge">
<title>5&#45;&gt;7</title>
<path fill="none" stroke="black" stroke-dasharray="5,2" d="M297.7,-885.08C288.53,-878.47 279.55,-871.74 271,-865 254.21,-851.76 245,-851.39 236,-832 195.3,-744.34 197.94,-630.63 205.72,-557.36"/>
<polygon fill="black" stroke="black" points="209.21,-557.62 206.84,-547.3 202.25,-556.85 209.21,-557.62"/>
<text text-anchor="middle" x="225.5" y="-748.8" font-family="Courier,monospace" font-size="14.00">$@2</text>
</g>
<!-- 5&#45;&gt;8 -->
<g id="edge29" class="edge">
<title>5&#45;&gt;8</title>
<path fill="none" stroke="black" stroke-dasharray="5,2" d="M562.01,-903.83C595.57,-883.62 630.01,-859.36 658,-832 690.71,-800.02 685.49,-781.55 713,-745 719.44,-736.45 725.2,-737 729,-727 774.99,-606.04 748.76,-447.96 733.09,-377.56"/>
<polygon fill="black" stroke="black" points="736.41,-376.4 730.77,-367.43 729.59,-377.96 736.41,-376.4"/>
<text text-anchor="middle" x="758.5" y="-658.8" font-family="Courier,monospace" font-size="14.00">F</text>
</g>
<!-- 11 -->
<g id="node18" class="node">
<title>11</title>
<polygon fill="none" stroke="black" points="584,-832 402,-832 402,-778 584,-778 584,-832"/>
<text text-anchor="middle" x="493" y="-816.8" font-family="Courier,monospace" font-size="14.00">State 11</text>
<text text-anchor="start" x="410" y="-785.8" font-family="Courier,monospace" font-size="14.00"> &#160;3 E: $@1 E • ADD T</text>
</g>
<!-- 5&#45;&gt;11 -->
<g id="edge25" class="edge">
<title>5&#45;&gt;11</title>
<path fill="none" stroke="black" stroke-dasharray="5,2" d="M469.18,-882.82C471.58,-876.83 473.88,-870.85 476,-865 478.68,-857.62 481.23,-849.59 483.5,-841.91"/>
<polygon fill="black" stroke="black" points="486.92,-842.67 486.3,-832.09 480.19,-840.74 486.92,-842.67"/>
<text text-anchor="middle" x="485.5" y="-853.8" font-family="Courier,monospace" font-size="14.00">E</text>
</g>
<!-- 5R2d -->
<g id="node19" class="node">
<title>5R2d</title>
<polygon fill="#fb9a99" stroke="black" points="275,-823 244.83,-805 275,-787 305.17,-805 275,-823"/>
<text text-anchor="middle" x="275" y="-801.3" font-family="Courier,monospace" font-size="14.00">R2</text>
</g>
<!-- 5&#45;&gt;5R2d -->
<g id="edge30" class="edge">
<title>5&#45;&gt;5R2d</title>
<path fill="none" stroke="black" d="M297.79,-889.27C291.04,-881.73 285,-873.64 280,-865 274.32,-855.19 272.61,-842.89 272.5,-832.06"/>
<polygon fill="black" stroke="black" points="276,-831.98 272.83,-821.87 269.01,-831.75 276,-831.98"/>
<text text-anchor="middle" x="325.5" y="-853.8" font-family="Courier,monospace" font-size="14.00">[LPAR, NUM]</text>
</g>
<!-- 5R5d -->
<g id="node20" class="node">
<title>5R5d</title>
<polygon fill="#fb9a99" stroke="black" points="354,-823 323.83,-805 354,-787 384.17,-805 354,-823"/>
<text text-anchor="middle" x="354" y="-801.3" font-family="Courier,monospace" font-size="14.00">R5</text>
</g>
<!-- 5&#45;&gt;5R5d -->
<g id="edge31" class="edge">
<title>5&#45;&gt;5R5d</title>
<path fill="none" stroke="black" d="M389.28,-882.77C386.47,-876.76 383.69,-870.79 381,-865 375.48,-853.11 369.4,-839.84 364.41,-828.9"/>
<polygon fill="black" stroke="black" points="367.51,-827.26 360.18,-819.61 361.14,-830.16 367.51,-827.26"/>
<text text-anchor="middle" x="426.5" y="-853.8" font-family="Courier,monospace" font-size="14.00">[LPAR, NUM]</text>
</g>
<!-- 6R4 -->
<g id="node21" class="node">
<title>6R4</title>
<polygon fill="#b2df8a" stroke="black" points="139,-680.5 108.83,-662.5 139,-644.5 169.17,-662.5 139,-680.5"/>
<text text-anchor="middle" x="139" y="-658.8" font-family="Courier,monospace" font-size="14.00">R4</text>
</g>
<!-- 6&#45;&gt;6R4 -->
<g id="edge32" class="edge">
<title>6&#45;&gt;6R4</title>
<path fill="none" stroke="black" d="M139,-777.9C139,-753.15 139,-716.11 139,-690.93"/>
<polygon fill="black" stroke="black" points="142.5,-690.61 139,-680.61 135.5,-690.61 142.5,-690.61"/>
</g>
<!-- 7&#45;&gt;1 -->
<g id="edge33" class="edge">
<title>7&#45;&gt;1</title>
<path fill="none" stroke="black" d="M265.25,-547.07C308.32,-600.48 375.5,-676.04 447,-727 475.99,-747.67 486.35,-748.36 520,-760 551.58,-770.93 569.05,-754.7 593,-778 685.2,-867.7 635.28,-933.14 670,-1057 673.71,-1070.22 677.64,-1084.15 681.53,-1097.86"/>
<polygon fill="black" stroke="black" points="678.25,-1099.13 684.35,-1107.79 684.98,-1097.22 678.25,-1099.13"/>
<text text-anchor="middle" x="651" y="-801.3" font-family="Courier,monospace" font-size="14.00">LPAR</text>
</g>
<!-- 7&#45;&gt;2 -->
<g id="edge34" class="edge">
<title>7&#45;&gt;2</title>
<path fill="none" stroke="black" d="M196.81,-417.78C190.08,-383.78 188.91,-342.91 210,-313 358.06,-103.09 510.25,-190.84 763,-145 809.16,-136.63 821.32,-137.66 867,-127 873.46,-125.49 880.15,-123.79 886.82,-121.99"/>
<polygon fill="black" stroke="black" points="887.85,-125.33 896.56,-119.3 885.98,-118.59 887.85,-125.33"/>
<text text-anchor="middle" x="246.5" y="-283.8" font-family="Courier,monospace" font-size="14.00">NUM</text>
</g>
<!-- 7&#45;&gt;7 -->
<g id="edge36" class="edge">
<title>7&#45;&gt;7</title>
<path fill="none" stroke="black" stroke-dasharray="5,2" d="M349.14,-495.54C360.15,-492.74 367,-488.39 367,-482.5 367,-478.64 364.05,-475.43 358.91,-472.9"/>
<polygon fill="black" stroke="black" points="359.73,-469.48 349.14,-469.46 357.41,-476.08 359.73,-469.48"/>
<text text-anchor="middle" x="379.5" y="-478.8" font-family="Courier,monospace" font-size="14.00">$@2</text>
</g>
<!-- 7&#45;&gt;8 -->
<g id="edge37" class="edge">
<title>7&#45;&gt;8</title>
<path fill="none" stroke="black" stroke-dasharray="5,2" d="M349.17,-434.15C366.52,-428.44 384.13,-422.91 401,-418 491.9,-391.55 599.09,-367.35 664.26,-353.4"/>
<polygon fill="black" stroke="black" points="665.3,-356.75 674.36,-351.25 663.85,-349.91 665.3,-356.75"/>
<text text-anchor="middle" x="529.5" y="-388.8" font-family="Courier,monospace" font-size="14.00">F</text>
</g>
<!-- 12 -->
<g id="node22" class="node">
<title>12</title>
<polygon fill="none" stroke="black" points="479,-367 297,-367 297,-313 479,-313 479,-367"/>
<text text-anchor="middle" x="388" y="-351.8" font-family="Courier,monospace" font-size="14.00">State 12</text>
<text text-anchor="start" x="305" y="-320.8" font-family="Courier,monospace" font-size="14.00"> &#160;6 T: $@2 T • MUL F</text>
</g>
<!-- 7&#45;&gt;12 -->
<g id="edge35" class="edge">
<title>7&#45;&gt;12</title>
<path fill="none" stroke="black" stroke-dasharray="5,2" d="M312.24,-417.86C319.76,-412.02 327.11,-406.03 334,-400 342.81,-392.29 351.67,-383.26 359.6,-374.61"/>
<polygon fill="black" stroke="black" points="362.22,-376.94 366.3,-367.16 357.01,-372.26 362.22,-376.94"/>
<text text-anchor="middle" x="353.5" y="-388.8" font-family="Courier,monospace" font-size="14.00">T</text>
</g>
<!-- 7R5d -->
<g id="node23" class="node">
<title>7R5d</title>
<polygon fill="#fb9a99" stroke="black" points="249,-358 218.83,-340 249,-322 279.17,-340 249,-358"/>
<text text-anchor="middle" x="249" y="-336.3" font-family="Courier,monospace" font-size="14.00">R5</text>
</g>
<!-- 7&#45;&gt;7R5d -->
<g id="edge38" class="edge">
<title>7&#45;&gt;7R5d</title>
<path fill="none" stroke="black" d="M231.5,-417.83C235.67,-399.54 239.97,-380.66 243.26,-366.19"/>
<polygon fill="black" stroke="black" points="246.76,-366.6 245.57,-356.07 239.93,-365.04 246.76,-366.6"/>
<text text-anchor="middle" x="284.5" y="-388.8" font-family="Courier,monospace" font-size="14.00">[LPAR, NUM]</text>
</g>
<!-- 8R7 -->
<g id="node24" class="node">
<title>8R7</title>
<polygon fill="#b2df8a" stroke="black" points="628,-238 597.83,-220 628,-202 658.17,-220 628,-238"/>
<text text-anchor="middle" x="628" y="-216.3" font-family="Courier,monospace" font-size="14.00">R7</text>
</g>
<!-- 8&#45;&gt;8R7 -->
<g id="edge39" class="edge">
<title>8&#45;&gt;8R7</title>
<path fill="none" stroke="black" d="M702.69,-312.81C684.89,-290.93 659.9,-260.21 643.83,-240.46"/>
<polygon fill="black" stroke="black" points="646.36,-238.02 637.33,-232.47 640.93,-242.44 646.36,-238.02"/>
</g>
<!-- 13 -->
<g id="node25" class="node">
<title>13</title>
<polygon fill="none" stroke="black" points="1106,-832 924,-832 924,-778 1106,-778 1106,-832"/>
<text text-anchor="middle" x="1015" y="-816.8" font-family="Courier,monospace" font-size="14.00">State 13</text>
<text text-anchor="start" x="932" y="-785.8" font-family="Courier,monospace" font-size="14.00"> &#160;8 F: LPAR E RPAR •</text>
</g>
<!-- 9&#45;&gt;13 -->
<g id="edge40" class="edge">
<title>9&#45;&gt;13</title>
<path fill="none" stroke="black" d="M1021.71,-942.81C1020.38,-915.6 1018.28,-872.82 1016.78,-842.34"/>
<polygon fill="black" stroke="black" points="1020.27,-841.94 1016.28,-832.12 1013.28,-842.28 1020.27,-841.94"/>
<text text-anchor="middle" x="1035" y="-853.8" font-family="Courier,monospace" font-size="14.00">RPAR</text>
</g>
<!-- 10R0 -->
<g id="node26" class="node">
<title>10R0</title>
<polygon fill="#a6cee3" stroke="black" points="1341,-823 1303.13,-805 1341,-787 1378.87,-805 1341,-823"/>
<text text-anchor="middle" x="1341" y="-801.3" font-family="Courier,monospace" font-size="14.00">Acc</text>
</g>
<!-- 10&#45;&gt;10R0 -->
<g id="edge41" class="edge">
<title>10&#45;&gt;10R0</title>
<path fill="none" stroke="black" d="M1341,-942.81C1341,-912.84 1341,-863.96 1341,-833.46"/>
<polygon fill="black" stroke="black" points="1344.5,-833.12 1341,-823.12 1337.5,-833.12 1344.5,-833.12"/>
</g>
<!-- 14 -->
<g id="node27" class="node">
<title>14</title>
<polygon fill="none" stroke="black" points="720,-727 456,-727 456,-598 720,-598 720,-727"/>
<text text-anchor="middle" x="588" y="-711.8" font-family="Courier,monospace" font-size="14.00">State 14</text>
<text text-anchor="start" x="464" y="-680.8" font-family="Courier,monospace" font-size="14.00"> &#160;3 E: $@1 E ADD • T</text>
<text text-anchor="start" x="464" y="-665.8" font-family="Courier,monospace" font-size="14.00"> &#160;5 $@2: • %empty &#160;[LPAR, NUM]</text>
<text text-anchor="start" x="464" y="-650.8" font-family="Courier,monospace" font-size="14.00"> &#160;6 T: • $@2 T MUL F</text>
<text text-anchor="start" x="464" y="-635.8" font-family="Courier,monospace" font-size="14.00"> &#160;7 &#160;| • F</text>
<text text-anchor="start" x="464" y="-620.8" font-family="Courier,monospace" font-size="14.00"> &#160;8 F: • LPAR E RPAR</text>
<text text-anchor="start" x="464" y="-605.8" font-family="Courier,monospace" font-size="14.00"> &#160;9 &#160;| • NUM</text>
</g>
<!-- 11&#45;&gt;14 -->
<g id="edge42" class="edge">
<title>11&#45;&gt;14</title>
<path fill="none" stroke="black" d="M510.65,-777.9C518.84,-765.78 529.03,-750.71 539.29,-735.54"/>
<polygon fill="black" stroke="black" points="542.29,-737.35 544.99,-727.11 536.49,-733.43 542.29,-737.35"/>
<text text-anchor="middle" x="544.5" y="-748.8" font-family="Courier,monospace" font-size="14.00">ADD</text>
</g>
<!-- 15 -->
<g id="node28" class="node">
<title>15</title>
<polygon fill="none" stroke="black" points="858,-262 676,-262 676,-178 858,-178 858,-262"/>
<text text-anchor="middle" x="767" y="-246.8" font-family="Courier,monospace" font-size="14.00">State 15</text>
<text text-anchor="start" x="684" y="-215.8" font-family="Courier,monospace" font-size="14.00"> &#160;6 T: $@2 T MUL • F</text>
<text text-anchor="start" x="684" y="-200.8" font-family="Courier,monospace" font-size="14.00"> &#160;8 F: • LPAR E RPAR</text>
<text text-anchor="start" x="684" y="-185.8" font-family="Courier,monospace" font-size="14.00"> &#160;9 &#160;| • NUM</text>
</g>
<!-- 12&#45;&gt;15 -->
<g id="edge43" class="edge">
<title>12&#45;&gt;15</title>
<path fill="none" stroke="black" d="M479.04,-315.14C541.82,-298.46 620.64,-277.03 666.37,-262.07"/>
<polygon fill="black" stroke="black" points="667.51,-265.38 675.89,-258.88 665.29,-258.74 667.51,-265.38"/>
<text text-anchor="middle" x="614.5" y="-283.8" font-family="Courier,monospace" font-size="14.00">MUL</text>
</g>
<!-- 13R8 -->
<g id="node29" class="node">
<title>13R8</title>
<polygon fill="#b2df8a" stroke="black" points="1015,-680.5 984.83,-662.5 1015,-644.5 1045.17,-662.5 1015,-680.5"/>
<text text-anchor="middle" x="1015" y="-658.8" font-family="Courier,monospace" font-size="14.00">R8</text>
</g>
<!-- 13&#45;&gt;13R8 -->
<g id="edge44" class="edge">
<title>13&#45;&gt;13R8</title>
<path fill="none" stroke="black" d="M1015,-777.9C1015,-753.15 1015,-716.11 1015,-690.93"/>
<polygon fill="black" stroke="black" points="1018.5,-690.61 1015,-680.61 1011.5,-690.61 1018.5,-690.61"/>
</g>
<!-- 14&#45;&gt;1 -->
<g id="edge45" class="edge">
<title>14&#45;&gt;1</title>
<path fill="none" stroke="black" d="M650.56,-727.11C679.2,-760.71 710.04,-804.38 725,-850 727.08,-856.33 728.28,-859.2 725,-865 717.34,-878.53 702.66,-869.47 695,-883 649.67,-963.06 688.85,-998.21 695,-1090 695.17,-1092.54 695.36,-1095.12 695.58,-1097.72"/>
<polygon fill="black" stroke="black" points="692.11,-1098.19 696.5,-1107.83 699.08,-1097.55 692.11,-1098.19"/>
<text text-anchor="middle" x="745" y="-853.8" font-family="Courier,monospace" font-size="14.00">LPAR</text>
</g>
<!-- 14&#45;&gt;2 -->
<g id="edge46" class="edge">
<title>14&#45;&gt;2</title>
<path fill="none" stroke="black" d="M688.57,-597.91C695.72,-592.15 702.62,-586.15 709,-580 845.73,-448.12 920.39,-223.8 945.37,-136.89"/>
<polygon fill="black" stroke="black" points="948.75,-137.8 948.11,-127.22 942.02,-135.89 948.75,-137.8"/>
<text text-anchor="middle" x="894.5" y="-336.3" font-family="Courier,monospace" font-size="14.00">NUM</text>
</g>
<!-- 14&#45;&gt;7 -->
<g id="edge48" class="edge">
<title>14&#45;&gt;7</title>
<path fill="none" stroke="black" stroke-dasharray="5,2" d="M498.87,-597.83C480.53,-586.1 461,-574.55 442,-565 425.52,-556.71 393.39,-544.37 358.46,-531.78"/>
<polygon fill="black" stroke="black" points="359.63,-528.48 349.03,-528.4 357.27,-535.07 359.63,-528.48"/>
<text text-anchor="middle" x="480.5" y="-568.8" font-family="Courier,monospace" font-size="14.00">$@2</text>
</g>
<!-- 14&#45;&gt;8 -->
<g id="edge49" class="edge">
<title>14&#45;&gt;8</title>
<path fill="none" stroke="black" stroke-dasharray="5,2" d="M679.39,-597.87C684.13,-592.23 688.41,-586.27 692,-580 711.32,-546.22 719.46,-435.44 722.46,-377.32"/>
<polygon fill="black" stroke="black" points="725.97,-377.28 722.97,-367.12 718.98,-376.93 725.97,-377.28"/>
<text text-anchor="middle" x="724.5" y="-478.8" font-family="Courier,monospace" font-size="14.00">F</text>
</g>
<!-- 16 -->
<g id="node30" class="node">
<title>16</title>
<polygon fill="none" stroke="black" points="592,-509.5 410,-509.5 410,-455.5 592,-455.5 592,-509.5"/>
<text text-anchor="middle" x="501" y="-494.3" font-family="Courier,monospace" font-size="14.00">State 16</text>
<text text-anchor="start" x="418" y="-463.3" font-family="Courier,monospace" font-size="14.00"> &#160;3 E: $@1 E ADD T •</text>
</g>
<!-- 14&#45;&gt;16 -->
<g id="edge47" class="edge">
<title>14&#45;&gt;16</title>
<path fill="none" stroke="black" stroke-dasharray="5,2" d="M556.96,-597.99C543.98,-571.43 529.38,-541.57 518.35,-519"/>
<polygon fill="black" stroke="black" points="521.39,-517.25 513.86,-509.81 515.1,-520.33 521.39,-517.25"/>
<text text-anchor="middle" x="552.5" y="-568.8" font-family="Courier,monospace" font-size="14.00">T</text>
</g>
<!-- 14R5d -->
<g id="node31" class="node">
<title>14R5d</title>
<polygon fill="#fb9a99" stroke="black" points="640,-500.5 609.83,-482.5 640,-464.5 670.17,-482.5 640,-500.5"/>
<text text-anchor="middle" x="640" y="-478.8" font-family="Courier,monospace" font-size="14.00">R5</text>
</g>
<!-- 14&#45;&gt;14R5d -->
<g id="edge50" class="edge">
<title>14&#45;&gt;14R5d</title>
<path fill="none" stroke="black" d="M593.7,-597.83C595.51,-586.76 597.88,-575.45 601,-565 607.32,-543.84 618.48,-521.31 627.25,-505.31"/>
<polygon fill="black" stroke="black" points="630.49,-506.69 632.34,-496.26 624.38,-503.26 630.49,-506.69"/>
<text text-anchor="middle" x="646.5" y="-568.8" font-family="Courier,monospace" font-size="14.00">[LPAR, NUM]</text>
</g>
<!-- 15&#45;&gt;1 -->
<g id="edge51" class="edge">
<title>15&#45;&gt;1</title>
<path fill="none" stroke="black" d="M858.08,-259.94C879.17,-273.52 898.96,-291.01 911,-313 922.53,-334.05 912.13,-343.03 911,-367 907.22,-447.27 912.98,-468.92 894,-547 858.02,-695.04 872.05,-755.61 766,-865 752.15,-879.29 736.31,-866.62 725,-883 701.74,-916.69 700.4,-1019.37 703.19,-1097.61"/>
<polygon fill="black" stroke="black" points="699.7,-1098.14 703.59,-1108 706.7,-1097.87 699.7,-1098.14"/>
<text text-anchor="middle" x="900" y="-658.8" font-family="Courier,monospace" font-size="14.00">LPAR</text>
</g>
<!-- 15&#45;&gt;2 -->
<g id="edge52" class="edge">
<title>15&#45;&gt;2</title>
<path fill="none" stroke="black" d="M805.76,-177.92C818.17,-166.26 832.47,-154.24 847,-145 859.42,-137.1 873.5,-130.13 887.29,-124.21"/>
<polygon fill="black" stroke="black" points="888.88,-127.35 896.77,-120.28 886.19,-120.88 888.88,-127.35"/>
<text text-anchor="middle" x="859.5" y="-148.8" font-family="Courier,monospace" font-size="14.00">NUM</text>
</g>
<!-- 17 -->
<g id="node32" class="node">
<title>17</title>
<polygon fill="none" stroke="black" points="858,-127 676,-127 676,-73 858,-73 858,-127"/>
<text text-anchor="middle" x="767" y="-111.8" font-family="Courier,monospace" font-size="14.00">State 17</text>
<text text-anchor="start" x="684" y="-80.8" font-family="Courier,monospace" font-size="14.00"> &#160;6 T: $@2 T MUL F •</text>
</g>
<!-- 15&#45;&gt;17 -->
<g id="edge53" class="edge">
<title>15&#45;&gt;17</title>
<path fill="none" stroke="black" stroke-dasharray="5,2" d="M767,-177.73C767,-164.64 767,-150.28 767,-137.55"/>
<polygon fill="black" stroke="black" points="770.5,-137.31 767,-127.31 763.5,-137.31 770.5,-137.31"/>
<text text-anchor="middle" x="771.5" y="-148.8" font-family="Courier,monospace" font-size="14.00">F</text>
</g>
<!-- 16R3 -->
<g id="node33" class="node">
<title>16R3</title>
<polygon fill="#b2df8a" stroke="black" points="527,-358 496.83,-340 527,-322 557.17,-340 527,-358"/>
<text text-anchor="middle" x="527" y="-336.3" font-family="Courier,monospace" font-size="14.00">R3</text>
</g>
<!-- 16&#45;&gt;16R3 -->
<g id="edge54" class="edge">
<title>16&#45;&gt;16R3</title>
<path fill="none" stroke="black" d="M505.83,-455.4C510.53,-429.99 517.63,-391.61 522.29,-366.43"/>
<polygon fill="black" stroke="black" points="525.75,-366.99 524.13,-356.52 518.87,-365.71 525.75,-366.99"/>
</g>
<!-- 17R6 -->
<g id="node34" class="node">
<title>17R6</title>
<polygon fill="#b2df8a" stroke="black" points="767,-36 736.83,-18 767,0 797.17,-18 767,-36"/>
<text text-anchor="middle" x="767" y="-14.3" font-family="Courier,monospace" font-size="14.00">R6</text>
</g>
<!-- 17&#45;&gt;17R6 -->
<g id="edge55" class="edge">
<title>17&#45;&gt;17R6</title>
<path fill="none" stroke="black" d="M767,-72.81C767,-64.35 767,-54.95 767,-46.4"/>
<polygon fill="black" stroke="black" points="770.5,-46.17 767,-36.17 763.5,-46.17 770.5,-46.17"/>
</g>
</g>
</svg>
