<?xml version="1.0" encoding="UTF-8" standalone="no"?>
<!DOCTYPE svg PUBLIC "-//W3C//DTD SVG 1.1//EN"
 "http://www.w3.org/Graphics/SVG/1.1/DTD/svg11.dtd">
<!-- Generated by graphviz version 2.43.0 (0)
 -->
<!-- Title: parse_forest Pages: 1 -->
<svg width="1719pt" height="260pt"
 viewBox="0.00 0.00 1719.04 260.00" xmlns="http://www.w3.org/2000/svg" xmlns:xlink="http://www.w3.org/1999/xlink">
<g id="graph0" class="graph" transform="scale(1 1) rotate(0) translate(4 256)">
<title>parse_forest</title>
<polygon fill="white" stroke="transparent" points="-4,4 -4,-256 1715.04,-256 1715.04,4 -4,4"/>
<!-- (2) F -->
<g id="node1" class="node">
<title>(2) F</title>
<ellipse fill="none" stroke="black" cx="49.4" cy="-90" rx="28.7" ry="18"/>
<text text-anchor="middle" x="49.4" y="-86.3" font-family="Times,serif" font-size="14.00">(2) F</text>
</g>
<!-- (1) num &#39;6&#39; -->
<g id="node2" class="node">
<title>(1) num &#39;6&#39;</title>
<ellipse fill="none" stroke="black" cx="49.4" cy="-18" rx="49.29" ry="18"/>
<text text-anchor="middle" x="49.4" y="-14.3" font-family="Times,serif" font-size="14.00">(1) num &#39;6&#39;</text>
</g>
<!-- (2) F&#45;&gt;(1) num &#39;6&#39; -->
<g id="edge1" class="edge">
<title>(2) F&#45;&gt;(1) num &#39;6&#39;</title>
<path fill="none" stroke="black" d="M49.4,-71.7C49.4,-63.98 49.4,-54.71 49.4,-46.11"/>
<polygon fill="black" stroke="black" points="52.9,-46.1 49.4,-36.1 45.9,-46.1 52.9,-46.1"/>
</g>
<!-- (3) T -->
<g id="node3" class="node">
<title>(3) T</title>
<ellipse fill="none" stroke="black" cx="49.4" cy="-162" rx="28.7" ry="18"/>
<text text-anchor="middle" x="49.4" y="-158.3" font-family="Times,serif" font-size="14.00">(3) T</text>
</g>
<!-- (3) T&#45;&gt;(2) F -->
<g id="edge2" class="edge">
<title>(3) T&#45;&gt;(2) F</title>
<path fill="none" stroke="black" d="M49.4,-143.7C49.4,-135.98 49.4,-126.71 49.4,-118.11"/>
<polygon fill="black" stroke="black" points="52.9,-118.1 49.4,-108.1 45.9,-118.1 52.9,-118.1"/>
</g>
<!-- (4) E -->
<g id="node4" class="node">
<title>(4) E</title>
<ellipse fill="none" stroke="black" cx="49.4" cy="-234" rx="28.7" ry="18"/>
<text text-anchor="middle" x="49.4" y="-230.3" font-family="Times,serif" font-size="14.00">(4) E</text>
</g>
<!-- (4) E&#45;&gt;(3) T -->
<g id="edge3" class="edge">
<title>(4) E&#45;&gt;(3) T</title>
<path fill="none" stroke="black" d="M49.4,-215.7C49.4,-207.98 49.4,-198.71 49.4,-190.11"/>
<polygon fill="black" stroke="black" points="52.9,-190.1 49.4,-180.1 45.9,-190.1 52.9,-190.1"/>
</g>
<!-- (5) F -->
<g id="node5" class="node">
<title>(5) F</title>
<ellipse fill="none" stroke="black" cx="145.4" cy="-162" rx="28.7" ry="18"/>
<text text-anchor="middle" x="145.4" y="-158.3" font-family="Times,serif" font-size="14.00">(5) F</text>
</g>
<!-- (4) num &#39;6&#39; -->
<g id="node6" class="node">
<title>(4) num &#39;6&#39;</title>
<ellipse fill="none" stroke="black" cx="145.4" cy="-90" rx="49.29" ry="18"/>
<text text-anchor="middle" x="145.4" y="-86.3" font-family="Times,serif" font-size="14.00">(4) num &#39;6&#39;</text>
</g>
<!-- (5) F&#45;&gt;(4) num &#39;6&#39; -->
<g id="edge4" class="edge">
<title>(5) F&#45;&gt;(4) num &#39;6&#39;</title>
<path fill="none" stroke="black" d="M145.4,-143.7C145.4,-135.98 145.4,-126.71 145.4,-118.11"/>
<polygon fill="black" stroke="black" points="148.9,-118.1 145.4,-108.1 141.9,-118.1 148.9,-118.1"/>
</g>
<!-- (6) T -->
<g id="node7" class="node">
<title>(6) T</title>
<ellipse fill="none" stroke="black" cx="145.4" cy="-234" rx="28.7" ry="18"/>
<text text-anchor="middle" x="145.4" y="-230.3" font-family="Times,serif" font-size="14.00">(6) T</text>
</g>
<!-- (6) T&#45;&gt;(5) F -->
<g id="edge5" class="edge">
<title>(6) T&#45;&gt;(5) F</title>
<path fill="none" stroke="black" d="M145.4,-215.7C145.4,-207.98 145.4,-198.71 145.4,-190.11"/>
<polygon fill="black" stroke="black" points="148.9,-190.1 145.4,-180.1 141.9,-190.1 148.9,-190.1"/>
</g>
<!-- (7) F -->
<g id="node8" class="node">
<title>(7) F</title>
<ellipse fill="none" stroke="black" cx="241.4" cy="-234" rx="28.7" ry="18"/>
<text text-anchor="middle" x="241.4" y="-230.3" font-family="Times,serif" font-size="14.00">(7) F</text>
</g>
<!-- (6) num &#39;7&#39; -->
<g id="node9" class="node">
<title>(6) num &#39;7&#39;</title>
<ellipse fill="none" stroke="black" cx="241.4" cy="-162" rx="49.29" ry="18"/>
<text text-anchor="middle" x="241.4" y="-158.3" font-family="Times,serif" font-size="14.00">(6) num &#39;7&#39;</text>
</g>
<!-- (7) F&#45;&gt;(6) num &#39;7&#39; -->
<g id="edge6" class="edge">
<title>(7) F&#45;&gt;(6) num &#39;7&#39;</title>
<path fill="none" stroke="black" d="M241.4,-215.7C241.4,-207.98 241.4,-198.71 241.4,-190.11"/>
<polygon fill="black" stroke="black" points="244.9,-190.1 241.4,-180.1 237.9,-190.1 244.9,-190.1"/>
</g>
<!-- (8) T -->
<g id="node10" class="node">
<title>(8) T</title>
<ellipse fill="none" stroke="black" cx="351.4" cy="-234" rx="28.7" ry="18"/>
<text text-anchor="middle" x="351.4" y="-230.3" font-family="Times,serif" font-size="14.00">(8) T</text>
</g>
<!-- (7) T * F -->
<g id="node11" class="node">
<title>(7) T * F</title>
<ellipse fill="none" stroke="black" cx="351.4" cy="-162" rx="42.49" ry="18"/>
<text text-anchor="middle" x="351.4" y="-158.3" font-family="Times,serif" font-size="14.00">(7) T * F</text>
</g>
<!-- (8) T&#45;&gt;(7) T * F -->
<g id="edge7" class="edge">
<title>(8) T&#45;&gt;(7) T * F</title>
<path fill="none" stroke="black" d="M351.4,-215.7C351.4,-207.98 351.4,-198.71 351.4,-190.11"/>
<polygon fill="black" stroke="black" points="354.9,-190.1 351.4,-180.1 347.9,-190.1 354.9,-190.1"/>
</g>
<!-- (9) E -->
<g id="node12" class="node">
<title>(9) E</title>
<ellipse fill="none" stroke="black" cx="455.4" cy="-234" rx="28.7" ry="18"/>
<text text-anchor="middle" x="455.4" y="-230.3" font-family="Times,serif" font-size="14.00">(9) E</text>
</g>
<!-- (8) E + T -->
<g id="node13" class="node">
<title>(8) E + T</title>
<ellipse fill="none" stroke="black" cx="455.4" cy="-162" rx="44.39" ry="18"/>
<text text-anchor="middle" x="455.4" y="-158.3" font-family="Times,serif" font-size="14.00">(8) E + T</text>
</g>
<!-- (9) E&#45;&gt;(8) E + T -->
<g id="edge8" class="edge">
<title>(9) E&#45;&gt;(8) E + T</title>
<path fill="none" stroke="black" d="M455.4,-215.7C455.4,-207.98 455.4,-198.71 455.4,-190.11"/>
<polygon fill="black" stroke="black" points="458.9,-190.1 455.4,-180.1 451.9,-190.1 458.9,-190.1"/>
</g>
<!-- (10) F -->
<g id="node14" class="node">
<title>(10) F</title>
<ellipse fill="none" stroke="black" cx="550.4" cy="-90" rx="32.49" ry="18"/>
<text text-anchor="middle" x="550.4" y="-86.3" font-family="Times,serif" font-size="14.00">(10) F</text>
</g>
<!-- (9) ( E ) -->
<g id="node15" class="node">
<title>(9) ( E )</title>
<ellipse fill="none" stroke="black" cx="550.4" cy="-18" rx="39.79" ry="18"/>
<text text-anchor="middle" x="550.4" y="-14.3" font-family="Times,serif" font-size="14.00">(9) ( E )</text>
</g>
<!-- (10) F&#45;&gt;(9) ( E ) -->
<g id="edge9" class="edge">
<title>(10) F&#45;&gt;(9) ( E )</title>
<path fill="none" stroke="black" d="M550.4,-71.7C550.4,-63.98 550.4,-54.71 550.4,-46.11"/>
<polygon fill="black" stroke="black" points="553.9,-46.1 550.4,-36.1 546.9,-46.1 553.9,-46.1"/>
</g>
<!-- (11) T -->
<g id="node16" class="node">
<title>(11) T</title>
<ellipse fill="none" stroke="black" cx="550.4" cy="-162" rx="32.49" ry="18"/>
<text text-anchor="middle" x="550.4" y="-158.3" font-family="Times,serif" font-size="14.00">(11) T</text>
</g>
<!-- (11) T&#45;&gt;(10) F -->
<g id="edge10" class="edge">
<title>(11) T&#45;&gt;(10) F</title>
<path fill="none" stroke="black" d="M550.4,-143.7C550.4,-135.98 550.4,-126.71 550.4,-118.11"/>
<polygon fill="black" stroke="black" points="553.9,-118.1 550.4,-108.1 546.9,-118.1 553.9,-118.1"/>
</g>
<!-- (12) E -->
<g id="node17" class="node">
<title>(12) E</title>
<ellipse fill="none" stroke="black" cx="550.4" cy="-234" rx="33.29" ry="18"/>
<text text-anchor="middle" x="550.4" y="-230.3" font-family="Times,serif" font-size="14.00">(12) E</text>
</g>
<!-- (12) E&#45;&gt;(11) T -->
<g id="edge11" class="edge">
<title>(12) E&#45;&gt;(11) T</title>
<path fill="none" stroke="black" d="M550.4,-215.7C550.4,-207.98 550.4,-198.71 550.4,-190.11"/>
<polygon fill="black" stroke="black" points="553.9,-190.1 550.4,-180.1 546.9,-190.1 553.9,-190.1"/>
</g>
<!-- (13) F -->
<g id="node18" class="node">
<title>(13) F</title>
<ellipse fill="none" stroke="black" cx="662.4" cy="-90" rx="32.49" ry="18"/>
<text text-anchor="middle" x="662.4" y="-86.3" font-family="Times,serif" font-size="14.00">(13) F</text>
</g>
<!-- (12) num &#39;1&#39; -->
<g id="node19" class="node">
<title>(12) num &#39;1&#39;</title>
<ellipse fill="none" stroke="black" cx="662.4" cy="-18" rx="53.89" ry="18"/>
<text text-anchor="middle" x="662.4" y="-14.3" font-family="Times,serif" font-size="14.00">(12) num &#39;1&#39;</text>
</g>
<!-- (13) F&#45;&gt;(12) num &#39;1&#39; -->
<g id="edge12" class="edge">
<title>(13) F&#45;&gt;(12) num &#39;1&#39;</title>
<path fill="none" stroke="black" d="M662.4,-71.7C662.4,-63.98 662.4,-54.71 662.4,-46.11"/>
<polygon fill="black" stroke="black" points="665.9,-46.1 662.4,-36.1 658.9,-46.1 665.9,-46.1"/>
</g>
<!-- (14) T -->
<g id="node20" class="node">
<title>(14) T</title>
<ellipse fill="none" stroke="black" cx="662.4" cy="-162" rx="32.49" ry="18"/>
<text text-anchor="middle" x="662.4" y="-158.3" font-family="Times,serif" font-size="14.00">(14) T</text>
</g>
<!-- (14) T&#45;&gt;(13) F -->
<g id="edge13" class="edge">
<title>(14) T&#45;&gt;(13) F</title>
<path fill="none" stroke="black" d="M662.4,-143.7C662.4,-135.98 662.4,-126.71 662.4,-118.11"/>
<polygon fill="black" stroke="black" points="665.9,-118.1 662.4,-108.1 658.9,-118.1 665.9,-118.1"/>
</g>
<!-- (15) E -->
<g id="node21" class="node">
<title>(15) E</title>
<ellipse fill="none" stroke="black" cx="662.4" cy="-234" rx="33.29" ry="18"/>
<text text-anchor="middle" x="662.4" y="-230.3" font-family="Times,serif" font-size="14.00">(15) E</text>
</g>
<!-- (15) E&#45;&gt;(14) T -->
<g id="edge14" class="edge">
<title>(15) E&#45;&gt;(14) T</title>
<path fill="none" stroke="black" d="M662.4,-215.7C662.4,-207.98 662.4,-198.71 662.4,-190.11"/>
<polygon fill="black" stroke="black" points="665.9,-190.1 662.4,-180.1 658.9,-190.1 665.9,-190.1"/>
</g>
<!-- (16) F -->
<g id="node22" class="node">
<title>(16) F</title>
<ellipse fill="none" stroke="black" cx="766.4" cy="-162" rx="32.49" ry="18"/>
<text text-anchor="middle" x="766.4" y="-158.3" font-family="Times,serif" font-size="14.00">(16) F</text>
</g>
<!-- (15) num &#39;4&#39; -->
<g id="node23" class="node">
<title>(15) num &#39;4&#39;</title>
<ellipse fill="none" stroke="black" cx="766.4" cy="-90" rx="53.89" ry="18"/>
<text text-anchor="middle" x="766.4" y="-86.3" font-family="Times,serif" font-size="14.00">(15) num &#39;4&#39;</text>
</g>
<!-- (16) F&#45;&gt;(15) num &#39;4&#39; -->
<g id="edge15" class="edge">
<title>(16) F&#45;&gt;(15) num &#39;4&#39;</title>
<path fill="none" stroke="black" d="M766.4,-143.7C766.4,-135.98 766.4,-126.71 766.4,-118.11"/>
<polygon fill="black" stroke="black" points="769.9,-118.1 766.4,-108.1 762.9,-118.1 769.9,-118.1"/>
</g>
<!-- (17) T -->
<g id="node24" class="node">
<title>(17) T</title>
<ellipse fill="none" stroke="black" cx="766.4" cy="-234" rx="32.49" ry="18"/>
<text text-anchor="middle" x="766.4" y="-230.3" font-family="Times,serif" font-size="14.00">(17) T</text>
</g>
<!-- (17) T&#45;&gt;(16) F -->
<g id="edge16" class="edge">
<title>(17) T&#45;&gt;(16) F</title>
<path fill="none" stroke="black" d="M766.4,-215.7C766.4,-207.98 766.4,-198.71 766.4,-190.11"/>
<polygon fill="black" stroke="black" points="769.9,-190.1 766.4,-180.1 762.9,-190.1 769.9,-190.1"/>
</g>
<!-- (18) F -->
<g id="node25" class="node">
<title>(18) F</title>
<ellipse fill="none" stroke="black" cx="870.4" cy="-234" rx="32.49" ry="18"/>
<text text-anchor="middle" x="870.4" y="-230.3" font-family="Times,serif" font-size="14.00">(18) F</text>
</g>
<!-- (17) num &#39;5&#39; -->
<g id="node26" class="node">
<title>(17) num &#39;5&#39;</title>
<ellipse fill="none" stroke="black" cx="870.4" cy="-162" rx="53.89" ry="18"/>
<text text-anchor="middle" x="870.4" y="-158.3" font-family="Times,serif" font-size="14.00">(17) num &#39;5&#39;</text>
</g>
<!-- (18) F&#45;&gt;(17) num &#39;5&#39; -->
<g id="edge17" class="edge">
<title>(18) F&#45;&gt;(17) num &#39;5&#39;</title>
<path fill="none" stroke="black" d="M870.4,-215.7C870.4,-207.98 870.4,-198.71 870.4,-190.11"/>
<polygon fill="black" stroke="black" points="873.9,-190.1 870.4,-180.1 866.9,-190.1 873.9,-190.1"/>
</g>
<!-- (19) T -->
<g id="node27" class="node">
<title>(19) T</title>
<ellipse fill="none" stroke="black" cx="988.4" cy="-234" rx="32.49" ry="18"/>
<text text-anchor="middle" x="988.4" y="-230.3" font-family="Times,serif" font-size="14.00">(19) T</text>
</g>
<!-- (18) T * F -->
<g id="node28" class="node">
<title>(18) T * F</title>
<ellipse fill="none" stroke="black" cx="988.4" cy="-162" rx="46.29" ry="18"/>
<text text-anchor="middle" x="988.4" y="-158.3" font-family="Times,serif" font-size="14.00">(18) T * F</text>
</g>
<!-- (19) T&#45;&gt;(18) T * F -->
<g id="edge18" class="edge">
<title>(19) T&#45;&gt;(18) T * F</title>
<path fill="none" stroke="black" d="M988.4,-215.7C988.4,-207.98 988.4,-198.71 988.4,-190.11"/>
<polygon fill="black" stroke="black" points="991.9,-190.1 988.4,-180.1 984.9,-190.1 991.9,-190.1"/>
</g>
<!-- (20) E -->
<g id="node29" class="node">
<title>(20) E</title>
<ellipse fill="none" stroke="black" cx="1100.4" cy="-234" rx="33.29" ry="18"/>
<text text-anchor="middle" x="1100.4" y="-230.3" font-family="Times,serif" font-size="14.00">(20) E</text>
</g>
<!-- (19) E + T -->
<g id="node30" class="node">
<title>(19) E + T</title>
<ellipse fill="none" stroke="black" cx="1100.4" cy="-162" rx="48.19" ry="18"/>
<text text-anchor="middle" x="1100.4" y="-158.3" font-family="Times,serif" font-size="14.00">(19) E + T</text>
</g>
<!-- (20) E&#45;&gt;(19) E + T -->
<g id="edge19" class="edge">
<title>(20) E&#45;&gt;(19) E + T</title>
<path fill="none" stroke="black" d="M1100.4,-215.7C1100.4,-207.98 1100.4,-198.71 1100.4,-190.11"/>
<polygon fill="black" stroke="black" points="1103.9,-190.1 1100.4,-180.1 1096.9,-190.1 1103.9,-190.1"/>
</g>
<!-- (21) F -->
<g id="node31" class="node">
<title>(21) F</title>
<ellipse fill="none" stroke="black" cx="1199.4" cy="-90" rx="32.49" ry="18"/>
<text text-anchor="middle" x="1199.4" y="-86.3" font-family="Times,serif" font-size="14.00">(21) F</text>
</g>
<!-- (20) ( E ) -->
<g id="node32" class="node">
<title>(20) ( E )</title>
<ellipse fill="none" stroke="black" cx="1199.4" cy="-18" rx="44.39" ry="18"/>
<text text-anchor="middle" x="1199.4" y="-14.3" font-family="Times,serif" font-size="14.00">(20) ( E )</text>
</g>
<!-- (21) F&#45;&gt;(20) ( E ) -->
<g id="edge20" class="edge">
<title>(21) F&#45;&gt;(20) ( E )</title>
<path fill="none" stroke="black" d="M1199.4,-71.7C1199.4,-63.98 1199.4,-54.71 1199.4,-46.11"/>
<polygon fill="black" stroke="black" points="1202.9,-46.1 1199.4,-36.1 1195.9,-46.1 1202.9,-46.1"/>
</g>
<!-- (22) T -->
<g id="node33" class="node">
<title>(22) T</title>
<ellipse fill="none" stroke="black" cx="1199.4" cy="-162" rx="32.49" ry="18"/>
<text text-anchor="middle" x="1199.4" y="-158.3" font-family="Times,serif" font-size="14.00">(22) T</text>
</g>
<!-- (22) T&#45;&gt;(21) F -->
<g id="edge21" class="edge">
<title>(22) T&#45;&gt;(21) F</title>
<path fill="none" stroke="black" d="M1199.4,-143.7C1199.4,-135.98 1199.4,-126.71 1199.4,-118.11"/>
<polygon fill="black" stroke="black" points="1202.9,-118.1 1199.4,-108.1 1195.9,-118.1 1202.9,-118.1"/>
</g>
<!-- (23) E -->
<g id="node34" class="node">
<title>(23) E</title>
<ellipse fill="none" stroke="black" cx="1199.4" cy="-234" rx="33.29" ry="18"/>
<text text-anchor="middle" x="1199.4" y="-230.3" font-family="Times,serif" font-size="14.00">(23) E</text>
</g>
<!-- (23) E&#45;&gt;(22) T -->
<g id="edge22" class="edge">
<title>(23) E&#45;&gt;(22) T</title>
<path fill="none" stroke="black" d="M1199.4,-215.7C1199.4,-207.98 1199.4,-198.71 1199.4,-190.11"/>
<polygon fill="black" stroke="black" points="1202.9,-190.1 1199.4,-180.1 1195.9,-190.1 1202.9,-190.1"/>
</g>
<!-- (24) MS -->
<g id="node35" class="node">
<title>(24) MS</title>
<ellipse fill="none" stroke="black" cx="1291.4" cy="-234" rx="40.89" ry="18"/>
<text text-anchor="middle" x="1291.4" y="-230.3" font-family="Times,serif" font-size="14.00">(24) MS</text>
</g>
<!-- (23) ; -->
<g id="node36" class="node">
<title>(23) ;</title>
<ellipse fill="none" stroke="black" cx="1291.4" cy="-162" rx="30.59" ry="18"/>
<text text-anchor="middle" x="1291.4" y="-158.3" font-family="Times,serif" font-size="14.00">(23) ;</text>
</g>
<!-- (24) MS&#45;&gt;(23) ; -->
<g id="edge23" class="edge">
<title>(24) MS&#45;&gt;(23) ;</title>
<path fill="none" stroke="black" d="M1291.4,-215.7C1291.4,-207.98 1291.4,-198.71 1291.4,-190.11"/>
<polygon fill="black" stroke="black" points="1294.9,-190.1 1291.4,-180.1 1287.9,-190.1 1294.9,-190.1"/>
</g>
<!-- (25) MS -->
<g id="node37" class="node">
<title>(25) MS</title>
<ellipse fill="none" stroke="black" cx="1391.4" cy="-234" rx="40.89" ry="18"/>
<text text-anchor="middle" x="1391.4" y="-230.3" font-family="Times,serif" font-size="14.00">(25) MS</text>
</g>
<!-- (24) ; -->
<g id="node38" class="node">
<title>(24) ;</title>
<ellipse fill="none" stroke="black" cx="1391.4" cy="-162" rx="30.59" ry="18"/>
<text text-anchor="middle" x="1391.4" y="-158.3" font-family="Times,serif" font-size="14.00">(24) ;</text>
</g>
<!-- (25) MS&#45;&gt;(24) ; -->
<g id="edge24" class="edge">
<title>(25) MS&#45;&gt;(24) ;</title>
<path fill="none" stroke="black" d="M1391.4,-215.7C1391.4,-207.98 1391.4,-198.71 1391.4,-190.11"/>
<polygon fill="black" stroke="black" points="1394.9,-190.1 1391.4,-180.1 1387.9,-190.1 1394.9,-190.1"/>
</g>
<!-- (26) MS -->
<g id="node39" class="node">
<title>(26) MS</title>
<ellipse fill="none" stroke="black" cx="1482.4" cy="-162" rx="40.89" ry="18"/>
<text text-anchor="middle" x="1482.4" y="-158.3" font-family="Times,serif" font-size="14.00">(26) MS</text>
</g>
<!-- (25) if E then MS else MS -->
<g id="node40" class="node">
<title>(25) if E then MS else MS</title>
<ellipse fill="none" stroke="black" cx="1482.4" cy="-90" rx="105.88" ry="18"/>
<text text-anchor="middle" x="1482.4" y="-86.3" font-family="Times,serif" font-size="14.00">(25) if E then MS else MS</text>
</g>
<!-- (26) MS&#45;&gt;(25) if E then MS else MS -->
<g id="edge25" class="edge">
<title>(26) MS&#45;&gt;(25) if E then MS else MS</title>
<path fill="none" stroke="black" d="M1482.4,-143.7C1482.4,-135.98 1482.4,-126.71 1482.4,-118.11"/>
<polygon fill="black" stroke="black" points="1485.9,-118.1 1482.4,-108.1 1478.9,-118.1 1485.9,-118.1"/>
</g>
<!-- (27) S -->
<g id="node41" class="node">
<title>(27) S</title>
<ellipse fill="none" stroke="black" cx="1482.4" cy="-234" rx="32.49" ry="18"/>
<text text-anchor="middle" x="1482.4" y="-230.3" font-family="Times,serif" font-size="14.00">(27) S</text>
</g>
<!-- (27) S&#45;&gt;(26) MS -->
<g id="edge26" class="edge">
<title>(27) S&#45;&gt;(26) MS</title>
<path fill="none" stroke="black" d="M1482.4,-215.7C1482.4,-207.98 1482.4,-198.71 1482.4,-190.11"/>
<polygon fill="black" stroke="black" points="1485.9,-190.1 1482.4,-180.1 1478.9,-190.1 1485.9,-190.1"/>
</g>
<!-- (28) OS -->
<g id="node42" class="node">
<title>(28) OS</title>
<ellipse fill="none" stroke="black" cx="1645.4" cy="-90" rx="38.99" ry="18"/>
<text text-anchor="middle" x="1645.4" y="-86.3" font-family="Times,serif" font-size="14.00">(28) OS</text>
</g>
<!-- (27) if E then S -->
<g id="node43" class="node">
<title>(27) if E then S</title>
<ellipse fill="none" stroke="black" cx="1645.4" cy="-18" rx="65.79" ry="18"/>
<text text-anchor="middle" x="1645.4" y="-14.3" font-family="Times,serif" font-size="14.00">(27) if E then S</text>
</g>
<!-- (28) OS&#45;&gt;(27) if E then S -->
<g id="edge27" class="edge">
<title>(28) OS&#45;&gt;(27) if E then S</title>
<path fill="none" stroke="black" d="M1645.4,-71.7C1645.4,-63.98 1645.4,-54.71 1645.4,-46.11"/>
<polygon fill="black" stroke="black" points="1648.9,-46.1 1645.4,-36.1 1641.9,-46.1 1648.9,-46.1"/>
</g>
<!-- (29) S -->
<g id="node44" class="node">
<title>(29) S</title>
<ellipse fill="none" stroke="black" cx="1645.4" cy="-162" rx="32.49" ry="18"/>
<text text-anchor="middle" x="1645.4" y="-158.3" font-family="Times,serif" font-size="14.00">(29) S</text>
</g>
<!-- (29) S&#45;&gt;(28) OS -->
<g id="edge28" class="edge">
<title>(29) S&#45;&gt;(28) OS</title>
<path fill="none" stroke="black" d="M1645.4,-143.7C1645.4,-135.98 1645.4,-126.71 1645.4,-118.11"/>
<polygon fill="black" stroke="black" points="1648.9,-118.1 1645.4,-108.1 1641.9,-118.1 1648.9,-118.1"/>
</g>
<!-- (30) Start -->
<g id="node45" class="node">
<title>(30) Start</title>
<ellipse fill="none" stroke="black" cx="1645.4" cy="-234" rx="44.39" ry="18"/>
<text text-anchor="middle" x="1645.4" y="-230.3" font-family="Times,serif" font-size="14.00">(30) Start</text>
</g>
<!-- (30) Start&#45;&gt;(29) S -->
<g id="edge29" class="edge">
<title>(30) Start&#45;&gt;(29) S</title>
<path fill="none" stroke="black" d="M1645.4,-215.7C1645.4,-207.98 1645.4,-198.71 1645.4,-190.11"/>
<polygon fill="black" stroke="black" points="1648.9,-190.1 1645.4,-180.1 1641.9,-190.1 1648.9,-190.1"/>
</g>
</g>
</svg>
