<?xml version="1.0" encoding="UTF-8" standalone="no"?>
<!DOCTYPE svg PUBLIC "-//W3C//DTD SVG 1.1//EN"
 "http://www.w3.org/Graphics/SVG/1.1/DTD/svg11.dtd">
<!-- Generated by graphviz version 2.43.0 (0)
 -->
<!-- Title: lec13ex1.y Pages: 1 -->
<svg width="941pt" height="1185pt"
 viewBox="0.00 0.00 940.50 1185.00" xmlns="http://www.w3.org/2000/svg" xmlns:xlink="http://www.w3.org/1999/xlink">
<g id="graph0" class="graph" transform="scale(1 1) rotate(0) translate(4 1181)">
<title>lec13ex1.y</title>
<polygon fill="white" stroke="transparent" points="-4,4 -4,-1181 936.5,-1181 936.5,4 -4,4"/>
<!-- 0 -->
<g id="node1" class="node">
<title>0</title>
<polygon fill="none" stroke="black" points="533.5,-1177 310.5,-1177 310.5,-1048 533.5,-1048 533.5,-1177"/>
<text text-anchor="middle" x="422" y="-1161.8" font-family="Courier,monospace" font-size="14.00">State 0</text>
<text text-anchor="start" x="318.5" y="-1130.8" font-family="Courier,monospace" font-size="14.00"> &#160;0 $accept: • Start $end</text>
<text text-anchor="start" x="318.5" y="-1115.8" font-family="Courier,monospace" font-size="14.00"> &#160;1 Start: • S</text>
<text text-anchor="start" x="318.5" y="-1100.8" font-family="Courier,monospace" font-size="14.00"> &#160;2 S: • A S</text>
<text text-anchor="start" x="318.5" y="-1085.8" font-family="Courier,monospace" font-size="14.00"> &#160;3 &#160;| • &#39;b&#39;</text>
<text text-anchor="start" x="318.5" y="-1070.8" font-family="Courier,monospace" font-size="14.00"> &#160;4 A: • S A</text>
<text text-anchor="start" x="318.5" y="-1055.8" font-family="Courier,monospace" font-size="14.00"> &#160;5 &#160;| • &#39;a&#39;</text>
</g>
<!-- 1 -->
<g id="node2" class="node">
<title>1</title>
<polygon fill="none" stroke="black" points="622,-127 506,-127 506,-73 622,-73 622,-127"/>
<text text-anchor="middle" x="564" y="-111.8" font-family="Courier,monospace" font-size="14.00">State 1</text>
<text text-anchor="start" x="514" y="-80.8" font-family="Courier,monospace" font-size="14.00"> &#160;3 S: &#39;b&#39; •</text>
</g>
<!-- 0&#45;&gt;1 -->
<g id="edge1" class="edge">
<title>0&#45;&gt;1</title>
<path fill="none" stroke="black" d="M533.72,-1081.89C603.82,-1055.79 681,-1009.75 681,-933.5 681,-933.5 681,-933.5 681,-241.5 681,-196.58 645.25,-158.39 613.27,-133.22"/>
<polygon fill="black" stroke="black" points="615.32,-130.38 605.25,-127.1 611.08,-135.95 615.32,-130.38"/>
<text text-anchor="middle" x="693.5" y="-583.8" font-family="Courier,monospace" font-size="14.00">&#39;b&#39;</text>
</g>
<!-- 2 -->
<g id="node3" class="node">
<title>2</title>
<polygon fill="none" stroke="black" points="169,-127 53,-127 53,-73 169,-73 169,-127"/>
<text text-anchor="middle" x="111" y="-111.8" font-family="Courier,monospace" font-size="14.00">State 2</text>
<text text-anchor="start" x="61" y="-80.8" font-family="Courier,monospace" font-size="14.00"> &#160;5 A: &#39;a&#39; •</text>
</g>
<!-- 0&#45;&gt;2 -->
<g id="edge2" class="edge">
<title>0&#45;&gt;2</title>
<path fill="none" stroke="black" d="M310.3,-1087.41C185.27,-1057.16 0,-1000.94 0,-933.5 0,-933.5 0,-933.5 0,-241.5 0,-197.41 34.07,-159.05 64.46,-133.6"/>
<polygon fill="black" stroke="black" points="66.92,-136.11 72.49,-127.1 62.52,-130.67 66.92,-136.11"/>
<text text-anchor="middle" x="12.5" y="-583.8" font-family="Courier,monospace" font-size="14.00">&#39;a&#39;</text>
</g>
<!-- 3 -->
<g id="node4" class="node">
<title>3</title>
<polygon fill="none" stroke="black" points="932.5,-959.5 709.5,-959.5 709.5,-905.5 932.5,-905.5 932.5,-959.5"/>
<text text-anchor="middle" x="821" y="-944.3" font-family="Courier,monospace" font-size="14.00">State 3</text>
<text text-anchor="start" x="717.5" y="-913.3" font-family="Courier,monospace" font-size="14.00"> &#160;0 $accept: Start • $end</text>
</g>
<!-- 0&#45;&gt;3 -->
<g id="edge3" class="edge">
<title>0&#45;&gt;3</title>
<path fill="none" stroke="black" stroke-dasharray="5,2" d="M533.78,-1087.92C584.62,-1074.76 644.55,-1055.74 695,-1030 728.08,-1013.12 761.24,-987.27 785.24,-966.57"/>
<polygon fill="black" stroke="black" points="787.8,-968.99 793.02,-959.77 783.19,-963.72 787.8,-968.99"/>
<text text-anchor="middle" x="739" y="-1018.8" font-family="Courier,monospace" font-size="14.00">Start</text>
</g>
<!-- 4 -->
<g id="node5" class="node">
<title>4</title>
<polygon fill="none" stroke="black" points="488,-997 356,-997 356,-868 488,-868 488,-997"/>
<text text-anchor="middle" x="422" y="-981.8" font-family="Courier,monospace" font-size="14.00">State 4</text>
<text text-anchor="start" x="364" y="-950.8" font-family="Courier,monospace" font-size="14.00"> &#160;1 Start: S •</text>
<text text-anchor="start" x="364" y="-935.8" font-family="Courier,monospace" font-size="14.00"> &#160;2 S: • A S</text>
<text text-anchor="start" x="364" y="-920.8" font-family="Courier,monospace" font-size="14.00"> &#160;3 &#160;| • &#39;b&#39;</text>
<text text-anchor="start" x="364" y="-905.8" font-family="Courier,monospace" font-size="14.00"> &#160;4 A: • S A</text>
<text text-anchor="start" x="364" y="-890.8" font-family="Courier,monospace" font-size="14.00"> &#160;4 &#160;| S • A</text>
<text text-anchor="start" x="364" y="-875.8" font-family="Courier,monospace" font-size="14.00"> &#160;5 &#160;| • &#39;a&#39;</text>
</g>
<!-- 0&#45;&gt;4 -->
<g id="edge4" class="edge">
<title>0&#45;&gt;4</title>
<path fill="none" stroke="black" stroke-dasharray="5,2" d="M422,-1047.99C422,-1034.86 422,-1020.93 422,-1007.47"/>
<polygon fill="black" stroke="black" points="425.5,-1007.28 422,-997.28 418.5,-1007.28 425.5,-1007.28"/>
<text text-anchor="middle" x="426.5" y="-1018.8" font-family="Courier,monospace" font-size="14.00">S</text>
</g>
<!-- 5 -->
<g id="node6" class="node">
<title>5</title>
<polygon fill="none" stroke="black" points="281,-472 165,-472 165,-358 281,-358 281,-472"/>
<text text-anchor="middle" x="223" y="-456.8" font-family="Courier,monospace" font-size="14.00">State 5</text>
<text text-anchor="start" x="173" y="-425.8" font-family="Courier,monospace" font-size="14.00"> &#160;2 S: • A S</text>
<text text-anchor="start" x="173" y="-410.8" font-family="Courier,monospace" font-size="14.00"> &#160;2 &#160;| A • S</text>
<text text-anchor="start" x="173" y="-395.8" font-family="Courier,monospace" font-size="14.00"> &#160;3 &#160;| • &#39;b&#39;</text>
<text text-anchor="start" x="173" y="-380.8" font-family="Courier,monospace" font-size="14.00"> &#160;4 A: • S A</text>
<text text-anchor="start" x="173" y="-365.8" font-family="Courier,monospace" font-size="14.00"> &#160;5 &#160;| • &#39;a&#39;</text>
</g>
<!-- 0&#45;&gt;5 -->
<g id="edge5" class="edge">
<title>0&#45;&gt;5</title>
<path fill="none" stroke="black" stroke-dasharray="5,2" d="M374.42,-1047.81C364.17,-1031.85 354.25,-1014.32 347,-997 272.72,-819.64 240.86,-592.48 229.04,-482.11"/>
<polygon fill="black" stroke="black" points="232.51,-481.7 227.99,-472.12 225.55,-482.43 232.51,-481.7"/>
<text text-anchor="middle" x="292.5" y="-756.3" font-family="Courier,monospace" font-size="14.00">A</text>
</g>
<!-- 1R3 -->
<g id="node7" class="node">
<title>1R3</title>
<polygon fill="#b2df8a" stroke="black" points="564,-36 533.83,-18 564,0 594.17,-18 564,-36"/>
<text text-anchor="middle" x="564" y="-14.3" font-family="Courier,monospace" font-size="14.00">R3</text>
</g>
<!-- 1&#45;&gt;1R3 -->
<g id="edge6" class="edge">
<title>1&#45;&gt;1R3</title>
<path fill="none" stroke="black" d="M564,-72.81C564,-64.35 564,-54.95 564,-46.4"/>
<polygon fill="black" stroke="black" points="567.5,-46.17 564,-36.17 560.5,-46.17 567.5,-46.17"/>
</g>
<!-- 2R5 -->
<g id="node8" class="node">
<title>2R5</title>
<polygon fill="#b2df8a" stroke="black" points="111,-36 80.83,-18 111,0 141.17,-18 111,-36"/>
<text text-anchor="middle" x="111" y="-14.3" font-family="Courier,monospace" font-size="14.00">R5</text>
</g>
<!-- 2&#45;&gt;2R5 -->
<g id="edge7" class="edge">
<title>2&#45;&gt;2R5</title>
<path fill="none" stroke="black" d="M111,-72.81C111,-64.35 111,-54.95 111,-46.4"/>
<polygon fill="black" stroke="black" points="114.5,-46.17 111,-36.17 107.5,-46.17 114.5,-46.17"/>
</g>
<!-- 6 -->
<g id="node9" class="node">
<title>6</title>
<polygon fill="none" stroke="black" points="932.5,-787 709.5,-787 709.5,-733 932.5,-733 932.5,-787"/>
<text text-anchor="middle" x="821" y="-771.8" font-family="Courier,monospace" font-size="14.00">State 6</text>
<text text-anchor="start" x="717.5" y="-740.8" font-family="Courier,monospace" font-size="14.00"> &#160;0 $accept: Start $end •</text>
</g>
<!-- 3&#45;&gt;6 -->
<g id="edge8" class="edge">
<title>3&#45;&gt;6</title>
<path fill="none" stroke="black" d="M821,-905.23C821,-876.36 821,-829.79 821,-797.41"/>
<polygon fill="black" stroke="black" points="824.5,-797.02 821,-787.02 817.5,-797.02 824.5,-797.02"/>
<text text-anchor="middle" x="838" y="-838.8" font-family="Courier,monospace" font-size="14.00">$end</text>
</g>
<!-- 4&#45;&gt;1 -->
<g id="edge9" class="edge">
<title>4&#45;&gt;1</title>
<path fill="none" stroke="black" d="M488.36,-907.43C528.38,-889.16 576.26,-859.8 601,-817 703.14,-640.27 625.48,-561.95 617,-358 613.66,-277.79 617.06,-256.85 602,-178 599.13,-162.95 598.4,-158.93 592,-145 590.64,-142.04 589.11,-139.04 587.48,-136.07"/>
<polygon fill="black" stroke="black" points="590.45,-134.21 582.39,-127.33 584.4,-137.74 590.45,-134.21"/>
<text text-anchor="middle" x="647.5" y="-493.8" font-family="Courier,monospace" font-size="14.00">&#39;b&#39;</text>
</g>
<!-- 4&#45;&gt;2 -->
<g id="edge10" class="edge">
<title>4&#45;&gt;2</title>
<path fill="none" stroke="black" d="M355.84,-890.99C324.92,-870.6 288.51,-844.42 259,-817 189.59,-752.5 170.15,-734.75 124,-652 20.52,-466.44 1.9,-381.79 62,-178 66.41,-163.06 74.65,-148.24 83.14,-135.65"/>
<polygon fill="black" stroke="black" points="86.12,-137.5 89.02,-127.31 80.4,-133.47 86.12,-137.5"/>
<text text-anchor="middle" x="65.5" y="-493.8" font-family="Courier,monospace" font-size="14.00">&#39;a&#39;</text>
</g>
<!-- 7 -->
<g id="node10" class="node">
<title>7</title>
<polygon fill="none" stroke="black" points="565,-817 449,-817 449,-703 565,-703 565,-817"/>
<text text-anchor="middle" x="507" y="-801.8" font-family="Courier,monospace" font-size="14.00">State 7</text>
<text text-anchor="start" x="457" y="-770.8" font-family="Courier,monospace" font-size="14.00"> &#160;2 S: • A S</text>
<text text-anchor="start" x="457" y="-755.8" font-family="Courier,monospace" font-size="14.00"> &#160;3 &#160;| • &#39;b&#39;</text>
<text text-anchor="start" x="457" y="-740.8" font-family="Courier,monospace" font-size="14.00"> &#160;4 A: • S A</text>
<text text-anchor="start" x="457" y="-725.8" font-family="Courier,monospace" font-size="14.00"> &#160;4 &#160;| S • A</text>
<text text-anchor="start" x="457" y="-710.8" font-family="Courier,monospace" font-size="14.00"> &#160;5 &#160;| • &#39;a&#39;</text>
</g>
<!-- 4&#45;&gt;7 -->
<g id="edge11" class="edge">
<title>4&#45;&gt;7</title>
<path fill="none" stroke="black" stroke-dasharray="5,2" d="M453.89,-867.53C460.59,-854.09 467.66,-839.9 474.39,-826.41"/>
<polygon fill="black" stroke="black" points="477.65,-827.72 478.98,-817.21 471.38,-824.6 477.65,-827.72"/>
<text text-anchor="middle" x="474.5" y="-838.8" font-family="Courier,monospace" font-size="14.00">S</text>
</g>
<!-- 8 -->
<g id="node11" class="node">
<title>8</title>
<polygon fill="none" stroke="black" points="480,-652 364,-652 364,-523 480,-523 480,-652"/>
<text text-anchor="middle" x="422" y="-636.8" font-family="Courier,monospace" font-size="14.00">State 8</text>
<text text-anchor="start" x="372" y="-605.8" font-family="Courier,monospace" font-size="14.00"> &#160;2 S: • A S</text>
<text text-anchor="start" x="372" y="-590.8" font-family="Courier,monospace" font-size="14.00"> &#160;2 &#160;| A • S</text>
<text text-anchor="start" x="372" y="-575.8" font-family="Courier,monospace" font-size="14.00"> &#160;3 &#160;| • &#39;b&#39;</text>
<text text-anchor="start" x="372" y="-560.8" font-family="Courier,monospace" font-size="14.00"> &#160;4 A: • S A</text>
<text text-anchor="start" x="372" y="-545.8" font-family="Courier,monospace" font-size="14.00"> &#160;4 &#160;| S A •</text>
<text text-anchor="start" x="372" y="-530.8" font-family="Courier,monospace" font-size="14.00"> &#160;5 &#160;| • &#39;a&#39;</text>
</g>
<!-- 4&#45;&gt;8 -->
<g id="edge12" class="edge">
<title>4&#45;&gt;8</title>
<path fill="none" stroke="black" stroke-dasharray="5,2" d="M422,-867.79C422,-809.64 422,-723.69 422,-662.52"/>
<polygon fill="black" stroke="black" points="425.5,-662.16 422,-652.16 418.5,-662.16 425.5,-662.16"/>
<text text-anchor="middle" x="426.5" y="-756.3" font-family="Courier,monospace" font-size="14.00">A</text>
</g>
<!-- 4R1 -->
<g id="node12" class="node">
<title>4R1</title>
<polygon fill="#b2df8a" stroke="black" points="356,-778 325.83,-760 356,-742 386.17,-760 356,-778"/>
<text text-anchor="middle" x="356" y="-756.3" font-family="Courier,monospace" font-size="14.00">R1</text>
</g>
<!-- 4&#45;&gt;4R1 -->
<g id="edge13" class="edge">
<title>4&#45;&gt;4R1</title>
<path fill="none" stroke="black" d="M397.24,-867.53C385.98,-838.46 373.36,-805.86 365.08,-784.47"/>
<polygon fill="black" stroke="black" points="368.27,-783 361.39,-774.93 361.74,-785.52 368.27,-783"/>
</g>
<!-- 5&#45;&gt;1 -->
<g id="edge14" class="edge">
<title>5&#45;&gt;1</title>
<path fill="none" stroke="black" d="M281.07,-378.6C292.88,-371.63 305.28,-364.47 317,-358 360.68,-333.89 380.09,-340.57 417,-307 467.26,-261.29 460.23,-233.79 499,-178 509.5,-162.89 512.24,-159.16 524,-145 526.75,-141.69 529.66,-138.3 532.6,-134.93"/>
<polygon fill="black" stroke="black" points="535.47,-136.98 539.5,-127.18 530.23,-132.33 535.47,-136.98"/>
<text text-anchor="middle" x="511.5" y="-238.8" font-family="Courier,monospace" font-size="14.00">&#39;b&#39;</text>
</g>
<!-- 5&#45;&gt;2 -->
<g id="edge15" class="edge">
<title>5&#45;&gt;2</title>
<path fill="none" stroke="black" d="M215.9,-357.79C206.98,-301.28 188.12,-213 151,-145 149.21,-141.73 147.13,-138.5 144.88,-135.37"/>
<polygon fill="black" stroke="black" points="147.52,-133.07 138.59,-127.37 142.02,-137.39 147.52,-133.07"/>
<text text-anchor="middle" x="219.5" y="-238.8" font-family="Courier,monospace" font-size="14.00">&#39;a&#39;</text>
</g>
<!-- 5&#45;&gt;5 -->
<g id="edge17" class="edge">
<title>5&#45;&gt;5</title>
<path fill="none" stroke="black" stroke-dasharray="5,2" d="M281.31,-429.47C291.73,-427.59 299,-422.77 299,-415 299,-410.02 296.01,-406.26 291.13,-403.7"/>
<polygon fill="black" stroke="black" points="291.9,-400.27 281.31,-400.53 289.75,-406.93 291.9,-400.27"/>
<text text-anchor="middle" x="303.5" y="-411.3" font-family="Courier,monospace" font-size="14.00">A</text>
</g>
<!-- 9 -->
<g id="node13" class="node">
<title>9</title>
<polygon fill="none" stroke="black" points="408,-307 292,-307 292,-178 408,-178 408,-307"/>
<text text-anchor="middle" x="350" y="-291.8" font-family="Courier,monospace" font-size="14.00">State 9</text>
<text text-anchor="start" x="300" y="-260.8" font-family="Courier,monospace" font-size="14.00"> &#160;2 S: • A S</text>
<text text-anchor="start" x="300" y="-245.8" font-family="Courier,monospace" font-size="14.00"> &#160;2 &#160;| A S •</text>
<text text-anchor="start" x="300" y="-230.8" font-family="Courier,monospace" font-size="14.00"> &#160;3 &#160;| • &#39;b&#39;</text>
<text text-anchor="start" x="300" y="-215.8" font-family="Courier,monospace" font-size="14.00"> &#160;4 A: • S A</text>
<text text-anchor="start" x="300" y="-200.8" font-family="Courier,monospace" font-size="14.00"> &#160;4 &#160;| S • A</text>
<text text-anchor="start" x="300" y="-185.8" font-family="Courier,monospace" font-size="14.00"> &#160;5 &#160;| • &#39;a&#39;</text>
</g>
<!-- 5&#45;&gt;9 -->
<g id="edge16" class="edge">
<title>5&#45;&gt;9</title>
<path fill="none" stroke="black" stroke-dasharray="5,2" d="M264.94,-357.7C275.02,-344.16 285.93,-329.51 296.47,-315.37"/>
<polygon fill="black" stroke="black" points="299.45,-317.22 302.62,-307.11 293.84,-313.04 299.45,-317.22"/>
<text text-anchor="middle" x="291.5" y="-328.8" font-family="Courier,monospace" font-size="14.00">S</text>
</g>
<!-- 6R0 -->
<g id="node14" class="node">
<title>6R0</title>
<polygon fill="#a6cee3" stroke="black" points="821,-605.5 783.13,-587.5 821,-569.5 858.87,-587.5 821,-605.5"/>
<text text-anchor="middle" x="821" y="-583.8" font-family="Courier,monospace" font-size="14.00">Acc</text>
</g>
<!-- 6&#45;&gt;6R0 -->
<g id="edge18" class="edge">
<title>6&#45;&gt;6R0</title>
<path fill="none" stroke="black" d="M821,-732.73C821,-701.01 821,-647.91 821,-615.75"/>
<polygon fill="black" stroke="black" points="824.5,-615.71 821,-605.71 817.5,-615.71 824.5,-615.71"/>
</g>
<!-- 7&#45;&gt;1 -->
<g id="edge19" class="edge">
<title>7&#45;&gt;1</title>
<path fill="none" stroke="black" d="M548.92,-702.93C568.69,-671.07 588,-629.46 588,-588.5 588,-588.5 588,-588.5 588,-241.5 588,-205.58 580.28,-165.21 573.6,-137"/>
<polygon fill="black" stroke="black" points="576.98,-136.07 571.2,-127.19 570.18,-137.73 576.98,-136.07"/>
<text text-anchor="middle" x="600.5" y="-411.3" font-family="Courier,monospace" font-size="14.00">&#39;b&#39;</text>
</g>
<!-- 7&#45;&gt;2 -->
<g id="edge20" class="edge">
<title>7&#45;&gt;2</title>
<path fill="none" stroke="black" d="M448.8,-713C444.17,-709.56 439.53,-706.19 435,-703 285.71,-597.7 179.79,-633.82 95,-472 37.11,-361.51 75.87,-206.11 98.25,-136.8"/>
<polygon fill="black" stroke="black" points="101.6,-137.81 101.42,-127.21 94.95,-135.61 101.6,-137.81"/>
<text text-anchor="middle" x="107.5" y="-411.3" font-family="Courier,monospace" font-size="14.00">&#39;a&#39;</text>
</g>
<!-- 7&#45;&gt;7 -->
<g id="edge21" class="edge">
<title>7&#45;&gt;7</title>
<path fill="none" stroke="black" stroke-dasharray="5,2" d="M565.31,-774.47C575.73,-772.59 583,-767.77 583,-760 583,-755.02 580.01,-751.26 575.13,-748.7"/>
<polygon fill="black" stroke="black" points="575.9,-745.27 565.31,-745.53 573.75,-751.93 575.9,-745.27"/>
<text text-anchor="middle" x="587.5" y="-756.3" font-family="Courier,monospace" font-size="14.00">S</text>
</g>
<!-- 7&#45;&gt;8 -->
<g id="edge22" class="edge">
<title>7&#45;&gt;8</title>
<path fill="none" stroke="black" stroke-dasharray="5,2" d="M478.93,-702.7C472.31,-689.41 465.15,-675.06 458.22,-661.16"/>
<polygon fill="black" stroke="black" points="461.31,-659.5 453.71,-652.11 455.04,-662.62 461.31,-659.5"/>
<text text-anchor="middle" x="474.5" y="-673.8" font-family="Courier,monospace" font-size="14.00">A</text>
</g>
<!-- 8&#45;&gt;1 -->
<g id="edge23" class="edge">
<title>8&#45;&gt;1</title>
<path fill="none" stroke="black" d="M445.44,-522.89C447.66,-516.84 449.88,-510.81 452,-505 484.17,-417.06 499,-397.24 524,-307 540.23,-248.42 552.3,-178.69 558.73,-137.23"/>
<polygon fill="black" stroke="black" points="562.19,-137.73 560.25,-127.32 555.28,-136.68 562.19,-137.73"/>
<text text-anchor="middle" x="531.5" y="-328.8" font-family="Courier,monospace" font-size="14.00">&#39;b&#39;</text>
</g>
<!-- 8&#45;&gt;2 -->
<g id="edge24" class="edge">
<title>8&#45;&gt;2</title>
<path fill="none" stroke="black" d="M363.91,-578.56C301.84,-566.78 205.71,-538.42 156,-472 116.85,-419.69 111.45,-220.02 110.93,-137.27"/>
<polygon fill="black" stroke="black" points="114.42,-137.06 110.88,-127.08 107.42,-137.09 114.42,-137.06"/>
<text text-anchor="middle" x="134.5" y="-328.8" font-family="Courier,monospace" font-size="14.00">&#39;a&#39;</text>
</g>
<!-- 8&#45;&gt;5 -->
<g id="edge26" class="edge">
<title>8&#45;&gt;5</title>
<path fill="none" stroke="black" stroke-dasharray="5,2" d="M363.88,-547.57C345.78,-534.67 326.1,-519.81 309,-505 299.77,-497.01 290.4,-488.18 281.41,-479.28"/>
<polygon fill="black" stroke="black" points="283.83,-476.75 274.29,-472.14 278.88,-481.7 283.83,-476.75"/>
<text text-anchor="middle" x="313.5" y="-493.8" font-family="Courier,monospace" font-size="14.00">A</text>
</g>
<!-- 8&#45;&gt;9 -->
<g id="edge25" class="edge">
<title>8&#45;&gt;9</title>
<path fill="none" stroke="black" stroke-dasharray="5,2" d="M418.85,-522.67C415.52,-476.4 408.72,-412.63 395,-358 391.59,-344.41 386.97,-330.28 381.99,-316.76"/>
<polygon fill="black" stroke="black" points="385.13,-315.15 378.31,-307.04 378.58,-317.63 385.13,-315.15"/>
<text text-anchor="middle" x="419.5" y="-411.3" font-family="Courier,monospace" font-size="14.00">S</text>
</g>
<!-- 8R4d -->
<g id="node15" class="node">
<title>8R4d</title>
<polygon fill="#fb9a99" stroke="black" points="356,-433 325.83,-415 356,-397 386.17,-415 356,-433"/>
<text text-anchor="middle" x="356" y="-411.3" font-family="Courier,monospace" font-size="14.00">R4</text>
</g>
<!-- 8&#45;&gt;8R4d -->
<g id="edge27" class="edge">
<title>8&#45;&gt;8R4d</title>
<path fill="none" stroke="black" d="M363.85,-551.39C348.32,-538.86 333.5,-523.24 325,-505 314.25,-481.93 328.01,-454.04 340.46,-435.7"/>
<polygon fill="black" stroke="black" points="343.34,-437.69 346.36,-427.53 337.67,-433.59 343.34,-437.69"/>
<text text-anchor="middle" x="366.5" y="-493.8" font-family="Courier,monospace" font-size="14.00">[&#39;b&#39;, &#39;a&#39;]</text>
</g>
<!-- 9&#45;&gt;1 -->
<g id="edge28" class="edge">
<title>9&#45;&gt;1</title>
<path fill="none" stroke="black" d="M376.79,-177.82C384.39,-165.53 393.74,-153.76 405,-145 430.89,-124.85 465.45,-113.92 495.73,-108"/>
<polygon fill="black" stroke="black" points="496.6,-111.4 505.82,-106.18 495.35,-104.51 496.6,-111.4"/>
<text text-anchor="middle" x="417.5" y="-148.8" font-family="Courier,monospace" font-size="14.00">&#39;b&#39;</text>
</g>
<!-- 9&#45;&gt;2 -->
<g id="edge29" class="edge">
<title>9&#45;&gt;2</title>
<path fill="none" stroke="black" d="M291.72,-202.23C264.04,-184.11 230.25,-162.73 199,-145 191.14,-140.54 182.78,-136.05 174.45,-131.73"/>
<polygon fill="black" stroke="black" points="175.95,-128.56 165.46,-127.11 172.76,-134.79 175.95,-128.56"/>
<text text-anchor="middle" x="237.5" y="-148.8" font-family="Courier,monospace" font-size="14.00">&#39;a&#39;</text>
</g>
<!-- 9&#45;&gt;7 -->
<g id="edge30" class="edge">
<title>9&#45;&gt;7</title>
<path fill="none" stroke="black" stroke-dasharray="5,2" d="M408.29,-302.38C409.87,-303.94 411.45,-305.48 413,-307 421.32,-315.13 424.5,-316.1 432,-325 443.36,-338.48 447.16,-341.75 454,-358 500.65,-468.79 508.61,-610.71 508.76,-692.59"/>
<polygon fill="black" stroke="black" points="505.26,-692.76 508.74,-702.76 512.26,-692.77 505.26,-692.76"/>
<text text-anchor="middle" x="498.5" y="-493.8" font-family="Courier,monospace" font-size="14.00">S</text>
</g>
<!-- 9&#45;&gt;8 -->
<g id="edge31" class="edge">
<title>9&#45;&gt;8</title>
<path fill="none" stroke="black" stroke-dasharray="5,2" d="M402.78,-307.29C413.03,-322.98 422.34,-340.36 428,-358 444,-407.89 441.9,-467.09 436.12,-512.73"/>
<polygon fill="black" stroke="black" points="432.62,-512.46 434.75,-522.84 439.56,-513.4 432.62,-512.46"/>
<text text-anchor="middle" x="445.5" y="-411.3" font-family="Courier,monospace" font-size="14.00">A</text>
</g>
<!-- 9R2d -->
<g id="node16" class="node">
<title>9R2d</title>
<polygon fill="#fb9a99" stroke="black" points="270,-118 239.83,-100 270,-82 300.17,-100 270,-118"/>
<text text-anchor="middle" x="270" y="-96.3" font-family="Courier,monospace" font-size="14.00">R2</text>
</g>
<!-- 9&#45;&gt;9R2d -->
<g id="edge32" class="edge">
<title>9&#45;&gt;9R2d</title>
<path fill="none" stroke="black" d="M291.95,-189.13C284.81,-180.11 278.46,-170.3 274,-160 269.64,-149.93 268.22,-137.99 268.05,-127.49"/>
<polygon fill="black" stroke="black" points="271.55,-127.28 268.25,-117.21 264.55,-127.14 271.55,-127.28"/>
<text text-anchor="middle" x="315.5" y="-148.8" font-family="Courier,monospace" font-size="14.00">[&#39;b&#39;, &#39;a&#39;]</text>
</g>
<!-- 9R2 -->
<g id="node17" class="node">
<title>9R2</title>
<polygon fill="#b2df8a" stroke="black" points="368,-118 337.83,-100 368,-82 398.17,-100 368,-118"/>
<text text-anchor="middle" x="368" y="-96.3" font-family="Courier,monospace" font-size="14.00">R2</text>
</g>
<!-- 9&#45;&gt;9R2 -->
<g id="edge33" class="edge">
<title>9&#45;&gt;9R2</title>
<path fill="none" stroke="black" d="M358.16,-177.83C360.46,-159.89 362.83,-141.38 364.67,-127.02"/>
<polygon fill="black" stroke="black" points="368.16,-127.29 365.96,-116.93 361.22,-126.4 368.16,-127.29"/>
</g>
</g>
</svg>
