<?xml version="1.0" encoding="UTF-8" standalone="no"?>
<!DOCTYPE svg PUBLIC "-//W3C//DTD SVG 1.1//EN"
 "http://www.w3.org/Graphics/SVG/1.1/DTD/svg11.dtd">
<!-- Generated by graphviz version 2.43.0 (0)
 -->
<!-- Title: if2prf.y Pages: 1 -->
<svg width="1677pt" height="1185pt"
 viewBox="0.00 0.00 1677.00 1185.00" xmlns="http://www.w3.org/2000/svg" xmlns:xlink="http://www.w3.org/1999/xlink">
<g id="graph0" class="graph" transform="scale(1 1) rotate(0) translate(4 1181)">
<title>if2prf.y</title>
<polygon fill="white" stroke="transparent" points="-4,4 -4,-1181 1673,-1181 1673,4 -4,4"/>
<!-- 0 -->
<g id="node1" class="node">
<title>0</title>
<polygon fill="none" stroke="black" points="686,-1177 438,-1177 438,-988 686,-988 686,-1177"/>
<text text-anchor="middle" x="562" y="-1161.8" font-family="Courier,monospace" font-size="14.00">State 0</text>
<text text-anchor="start" x="446" y="-1130.8" font-family="Courier,monospace" font-size="14.00"> &#160;0 $accept: • S $end</text>
<text text-anchor="start" x="446" y="-1115.8" font-family="Courier,monospace" font-size="14.00"> &#160;1 S: • Expr</text>
<text text-anchor="start" x="446" y="-1100.8" font-family="Courier,monospace" font-size="14.00"> &#160;2 Expr: • Expr ADD Term</text>
<text text-anchor="start" x="446" y="-1085.8" font-family="Courier,monospace" font-size="14.00"> &#160;3 &#160;&#160;&#160;&#160;| • Expr SUB Term</text>
<text text-anchor="start" x="446" y="-1070.8" font-family="Courier,monospace" font-size="14.00"> &#160;4 &#160;&#160;&#160;&#160;| • Term</text>
<text text-anchor="start" x="446" y="-1055.8" font-family="Courier,monospace" font-size="14.00"> &#160;5 Term: • Term MUL Factor</text>
<text text-anchor="start" x="446" y="-1040.8" font-family="Courier,monospace" font-size="14.00"> &#160;6 &#160;&#160;&#160;&#160;| • Term DIV Factor</text>
<text text-anchor="start" x="446" y="-1025.8" font-family="Courier,monospace" font-size="14.00"> &#160;7 &#160;&#160;&#160;&#160;| • Factor</text>
<text text-anchor="start" x="446" y="-1010.8" font-family="Courier,monospace" font-size="14.00"> &#160;8 Factor: • LPAR Expr RPAR</text>
<text text-anchor="start" x="446" y="-995.8" font-family="Courier,monospace" font-size="14.00"> &#160;9 &#160;&#160;&#160;&#160;&#160;&#160;| • NUM</text>
</g>
<!-- 1 -->
<g id="node2" class="node">
<title>1</title>
<polygon fill="none" stroke="black" points="852,-937 604,-937 604,-763 852,-763 852,-937"/>
<text text-anchor="middle" x="728" y="-921.8" font-family="Courier,monospace" font-size="14.00">State 1</text>
<text text-anchor="start" x="612" y="-890.8" font-family="Courier,monospace" font-size="14.00"> &#160;2 Expr: • Expr ADD Term</text>
<text text-anchor="start" x="612" y="-875.8" font-family="Courier,monospace" font-size="14.00"> &#160;3 &#160;&#160;&#160;&#160;| • Expr SUB Term</text>
<text text-anchor="start" x="612" y="-860.8" font-family="Courier,monospace" font-size="14.00"> &#160;4 &#160;&#160;&#160;&#160;| • Term</text>
<text text-anchor="start" x="612" y="-845.8" font-family="Courier,monospace" font-size="14.00"> &#160;5 Term: • Term MUL Factor</text>
<text text-anchor="start" x="612" y="-830.8" font-family="Courier,monospace" font-size="14.00"> &#160;6 &#160;&#160;&#160;&#160;| • Term DIV Factor</text>
<text text-anchor="start" x="612" y="-815.8" font-family="Courier,monospace" font-size="14.00"> &#160;7 &#160;&#160;&#160;&#160;| • Factor</text>
<text text-anchor="start" x="612" y="-800.8" font-family="Courier,monospace" font-size="14.00"> &#160;8 Factor: • LPAR Expr RPAR</text>
<text text-anchor="start" x="612" y="-785.8" font-family="Courier,monospace" font-size="14.00"> &#160;8 &#160;&#160;&#160;&#160;&#160;&#160;| LPAR • Expr RPAR</text>
<text text-anchor="start" x="612" y="-770.8" font-family="Courier,monospace" font-size="14.00"> &#160;9 &#160;&#160;&#160;&#160;&#160;&#160;| • NUM</text>
</g>
<!-- 0&#45;&gt;1 -->
<g id="edge1" class="edge">
<title>0&#45;&gt;1</title>
<path fill="none" stroke="black" d="M629.52,-987.75C639.57,-973.79 649.94,-959.39 660.01,-945.41"/>
<polygon fill="black" stroke="black" points="662.89,-947.4 665.89,-937.24 657.21,-943.31 662.89,-947.4"/>
<text text-anchor="middle" x="667" y="-958.8" font-family="Courier,monospace" font-size="14.00">LPAR</text>
</g>
<!-- 2 -->
<g id="node3" class="node">
<title>2</title>
<polygon fill="none" stroke="black" points="230.5,-127 73.5,-127 73.5,-73 230.5,-73 230.5,-127"/>
<text text-anchor="middle" x="152" y="-111.8" font-family="Courier,monospace" font-size="14.00">State 2</text>
<text text-anchor="start" x="81.5" y="-80.8" font-family="Courier,monospace" font-size="14.00"> &#160;9 Factor: NUM •</text>
</g>
<!-- 0&#45;&gt;2 -->
<g id="edge2" class="edge">
<title>0&#45;&gt;2</title>
<path fill="none" stroke="black" d="M437.97,-1056.64C272.47,-1019.84 0,-944.99 0,-851 0,-851 0,-851 0,-219 0,-178.96 33.31,-150.55 68.75,-131.66"/>
<polygon fill="black" stroke="black" points="70.46,-134.71 77.78,-127.06 67.28,-128.47 70.46,-134.71"/>
<text text-anchor="middle" x="12.5" y="-508.8" font-family="Courier,monospace" font-size="14.00">NUM</text>
</g>
<!-- 3 -->
<g id="node4" class="node">
<title>3</title>
<polygon fill="none" stroke="black" points="1639,-877 1449,-877 1449,-823 1639,-823 1639,-877"/>
<text text-anchor="middle" x="1544" y="-861.8" font-family="Courier,monospace" font-size="14.00">State 3</text>
<text text-anchor="start" x="1457" y="-830.8" font-family="Courier,monospace" font-size="14.00"> &#160;0 $accept: S • $end</text>
</g>
<!-- 0&#45;&gt;3 -->
<g id="edge3" class="edge">
<title>0&#45;&gt;3</title>
<path fill="none" stroke="black" stroke-dasharray="5,2" d="M686.17,-1075.29C892.96,-1063.34 1297.73,-1032.57 1425,-970 1464.33,-950.67 1498.42,-913.14 1519.91,-885.37"/>
<polygon fill="black" stroke="black" points="1522.93,-887.19 1526.17,-877.1 1517.34,-882.97 1522.93,-887.19"/>
<text text-anchor="middle" x="1453.5" y="-958.8" font-family="Courier,monospace" font-size="14.00">S</text>
</g>
<!-- 4 -->
<g id="node5" class="node">
<title>4</title>
<polygon fill="none" stroke="black" points="691.5,-712 468.5,-712 468.5,-628 691.5,-628 691.5,-712"/>
<text text-anchor="middle" x="580" y="-696.8" font-family="Courier,monospace" font-size="14.00">State 4</text>
<text text-anchor="start" x="476.5" y="-665.8" font-family="Courier,monospace" font-size="14.00"> &#160;1 S: Expr • &#160;[$end]</text>
<text text-anchor="start" x="476.5" y="-650.8" font-family="Courier,monospace" font-size="14.00"> &#160;2 Expr: Expr • ADD Term</text>
<text text-anchor="start" x="476.5" y="-635.8" font-family="Courier,monospace" font-size="14.00"> &#160;3 &#160;&#160;&#160;&#160;| Expr • SUB Term</text>
</g>
<!-- 0&#45;&gt;4 -->
<g id="edge4" class="edge">
<title>0&#45;&gt;4</title>
<path fill="none" stroke="black" stroke-dasharray="5,2" d="M437.83,-1029.93C399.44,-1007.39 361.59,-976.82 340,-937 303.14,-869.02 296.18,-826.72 340,-763 343.94,-757.26 401.08,-735.26 458.61,-714.2"/>
<polygon fill="black" stroke="black" points="460.02,-717.42 468.21,-710.7 457.62,-710.84 460.02,-717.42"/>
<text text-anchor="middle" x="357" y="-846.3" font-family="Courier,monospace" font-size="14.00">Expr</text>
</g>
<!-- 5 -->
<g id="node6" class="node">
<title>5</title>
<polygon fill="none" stroke="black" points="450.5,-712 103.5,-712 103.5,-628 450.5,-628 450.5,-712"/>
<text text-anchor="middle" x="277" y="-696.8" font-family="Courier,monospace" font-size="14.00">State 5</text>
<text text-anchor="start" x="111.5" y="-665.8" font-family="Courier,monospace" font-size="14.00"> &#160;4 Expr: Term • &#160;[$end, ADD, SUB, RPAR]</text>
<text text-anchor="start" x="111.5" y="-650.8" font-family="Courier,monospace" font-size="14.00"> &#160;5 Term: Term • MUL Factor</text>
<text text-anchor="start" x="111.5" y="-635.8" font-family="Courier,monospace" font-size="14.00"> &#160;6 &#160;&#160;&#160;&#160;| Term • DIV Factor</text>
</g>
<!-- 0&#45;&gt;5 -->
<g id="edge5" class="edge">
<title>0&#45;&gt;5</title>
<path fill="none" stroke="black" stroke-dasharray="5,2" d="M515.67,-987.89C480.98,-921.98 430,-833.32 374,-763 361.81,-747.69 347.13,-732.49 332.92,-718.98"/>
<polygon fill="black" stroke="black" points="335.24,-716.36 325.55,-712.08 330.46,-721.47 335.24,-716.36"/>
<text text-anchor="middle" x="504" y="-846.3" font-family="Courier,monospace" font-size="14.00">Term</text>
</g>
<!-- 6 -->
<g id="node7" class="node">
<title>6</title>
<polygon fill="none" stroke="black" points="1455.5,-382 1290.5,-382 1290.5,-328 1455.5,-328 1455.5,-382"/>
<text text-anchor="middle" x="1373" y="-366.8" font-family="Courier,monospace" font-size="14.00">State 6</text>
<text text-anchor="start" x="1298.5" y="-335.8" font-family="Courier,monospace" font-size="14.00"> &#160;7 Term: Factor •</text>
</g>
<!-- 0&#45;&gt;6 -->
<g id="edge6" class="edge">
<title>0&#45;&gt;6</title>
<path fill="none" stroke="black" stroke-dasharray="5,2" d="M686.36,-1073.63C922.18,-1055.28 1411,-999.34 1411,-851 1411,-851 1411,-851 1411,-511.5 1411,-469.5 1397.75,-422.89 1386.9,-391.75"/>
<polygon fill="black" stroke="black" points="1390.15,-390.45 1383.48,-382.21 1383.56,-392.81 1390.15,-390.45"/>
<text text-anchor="middle" x="1436" y="-666.3" font-family="Courier,monospace" font-size="14.00">Factor</text>
</g>
<!-- 1&#45;&gt;1 -->
<g id="edge7" class="edge">
<title>1&#45;&gt;1</title>
<path fill="none" stroke="black" d="M852.15,-866.54C863.12,-863.06 870,-857.55 870,-850 870,-844.93 866.9,-840.78 861.53,-837.54"/>
<polygon fill="black" stroke="black" points="862.71,-834.24 852.15,-833.46 859.92,-840.66 862.71,-834.24"/>
<text text-anchor="middle" x="887" y="-846.3" font-family="Courier,monospace" font-size="14.00">LPAR</text>
</g>
<!-- 1&#45;&gt;2 -->
<g id="edge8" class="edge">
<title>1&#45;&gt;2</title>
<path fill="none" stroke="black" d="M603.79,-789.87C578.19,-779.55 551.08,-769.92 525,-763 431.78,-738.28 164.86,-777.43 94,-712 -1.15,-624.14 53,-553.01 53,-423.5 53,-423.5 53,-423.5 53,-219 53,-184.37 78.33,-154.59 103.36,-133.6"/>
<polygon fill="black" stroke="black" points="105.85,-136.1 111.45,-127.1 101.46,-130.64 105.85,-136.1"/>
<text text-anchor="middle" x="65.5" y="-418.8" font-family="Courier,monospace" font-size="14.00">NUM</text>
</g>
<!-- 1&#45;&gt;5 -->
<g id="edge10" class="edge">
<title>1&#45;&gt;5</title>
<path fill="none" stroke="black" stroke-dasharray="5,2" d="M603.87,-800.01C537.14,-773.67 455.45,-741.43 390.44,-715.77"/>
<polygon fill="black" stroke="black" points="391.55,-712.45 380.97,-712.03 388.98,-718.96 391.55,-712.45"/>
<text text-anchor="middle" x="480" y="-733.8" font-family="Courier,monospace" font-size="14.00">Term</text>
</g>
<!-- 1&#45;&gt;6 -->
<g id="edge11" class="edge">
<title>1&#45;&gt;6</title>
<path fill="none" stroke="black" stroke-dasharray="5,2" d="M852.37,-826.57C947.56,-805.97 1079.92,-769.72 1185,-712 1265.36,-667.86 1296.99,-657.44 1341,-577 1373.11,-518.31 1376.47,-438.33 1375.25,-392.43"/>
<polygon fill="black" stroke="black" points="1378.75,-392.22 1374.89,-382.35 1371.75,-392.46 1378.75,-392.22"/>
<text text-anchor="middle" x="1356" y="-598.8" font-family="Courier,monospace" font-size="14.00">Factor</text>
</g>
<!-- 7 -->
<g id="node8" class="node">
<title>7</title>
<polygon fill="none" stroke="black" points="1066,-712 818,-712 818,-628 1066,-628 1066,-712"/>
<text text-anchor="middle" x="942" y="-696.8" font-family="Courier,monospace" font-size="14.00">State 7</text>
<text text-anchor="start" x="826" y="-665.8" font-family="Courier,monospace" font-size="14.00"> &#160;2 Expr: Expr • ADD Term</text>
<text text-anchor="start" x="826" y="-650.8" font-family="Courier,monospace" font-size="14.00"> &#160;3 &#160;&#160;&#160;&#160;| Expr • SUB Term</text>
<text text-anchor="start" x="826" y="-635.8" font-family="Courier,monospace" font-size="14.00"> &#160;8 Factor: LPAR Expr • RPAR</text>
</g>
<!-- 1&#45;&gt;7 -->
<g id="edge9" class="edge">
<title>1&#45;&gt;7</title>
<path fill="none" stroke="black" stroke-dasharray="5,2" d="M831.55,-762.87C849.8,-747.69 868.18,-732.4 884.56,-718.77"/>
<polygon fill="black" stroke="black" points="886.99,-721.31 892.44,-712.22 882.51,-715.93 886.99,-721.31"/>
<text text-anchor="middle" x="884" y="-733.8" font-family="Courier,monospace" font-size="14.00">Expr</text>
</g>
<!-- 2R9 -->
<g id="node9" class="node">
<title>2R9</title>
<polygon fill="#b2df8a" stroke="black" points="152,-36 121.83,-18 152,0 182.17,-18 152,-36"/>
<text text-anchor="middle" x="152" y="-14.3" font-family="Courier,monospace" font-size="14.00">R9</text>
</g>
<!-- 2&#45;&gt;2R9 -->
<g id="edge12" class="edge">
<title>2&#45;&gt;2R9</title>
<path fill="none" stroke="black" d="M152,-72.81C152,-64.35 152,-54.95 152,-46.4"/>
<polygon fill="black" stroke="black" points="155.5,-46.17 152,-36.17 148.5,-46.17 155.5,-46.17"/>
</g>
<!-- 8 -->
<g id="node10" class="node">
<title>8</title>
<polygon fill="none" stroke="black" points="1669,-697 1479,-697 1479,-643 1669,-643 1669,-697"/>
<text text-anchor="middle" x="1574" y="-681.8" font-family="Courier,monospace" font-size="14.00">State 8</text>
<text text-anchor="start" x="1487" y="-650.8" font-family="Courier,monospace" font-size="14.00"> &#160;0 $accept: S $end •</text>
</g>
<!-- 3&#45;&gt;8 -->
<g id="edge13" class="edge">
<title>3&#45;&gt;8</title>
<path fill="none" stroke="black" d="M1548.43,-822.74C1553.58,-792.15 1562.13,-741.45 1567.91,-707.16"/>
<polygon fill="black" stroke="black" points="1571.39,-707.52 1569.6,-697.08 1564.49,-706.36 1571.39,-707.52"/>
<text text-anchor="middle" x="1581" y="-733.8" font-family="Courier,monospace" font-size="14.00">$end</text>
</g>
<!-- 9 -->
<g id="node11" class="node">
<title>9</title>
<polygon fill="none" stroke="black" points="730,-577 482,-577 482,-448 730,-448 730,-577"/>
<text text-anchor="middle" x="606" y="-561.8" font-family="Courier,monospace" font-size="14.00">State 9</text>
<text text-anchor="start" x="490" y="-530.8" font-family="Courier,monospace" font-size="14.00"> &#160;2 Expr: Expr ADD • Term</text>
<text text-anchor="start" x="490" y="-515.8" font-family="Courier,monospace" font-size="14.00"> &#160;5 Term: • Term MUL Factor</text>
<text text-anchor="start" x="490" y="-500.8" font-family="Courier,monospace" font-size="14.00"> &#160;6 &#160;&#160;&#160;&#160;| • Term DIV Factor</text>
<text text-anchor="start" x="490" y="-485.8" font-family="Courier,monospace" font-size="14.00"> &#160;7 &#160;&#160;&#160;&#160;| • Factor</text>
<text text-anchor="start" x="490" y="-470.8" font-family="Courier,monospace" font-size="14.00"> &#160;8 Factor: • LPAR Expr RPAR</text>
<text text-anchor="start" x="490" y="-455.8" font-family="Courier,monospace" font-size="14.00"> &#160;9 &#160;&#160;&#160;&#160;&#160;&#160;| • NUM</text>
</g>
<!-- 4&#45;&gt;9 -->
<g id="edge14" class="edge">
<title>4&#45;&gt;9</title>
<path fill="none" stroke="black" d="M586.9,-627.74C588.98,-615.28 591.33,-601.22 593.66,-587.32"/>
<polygon fill="black" stroke="black" points="597.14,-587.69 595.34,-577.25 590.24,-586.53 597.14,-587.69"/>
<text text-anchor="middle" x="605.5" y="-598.8" font-family="Courier,monospace" font-size="14.00">ADD</text>
</g>
<!-- 10 -->
<g id="node12" class="node">
<title>10</title>
<polygon fill="none" stroke="black" points="1332,-577 1084,-577 1084,-448 1332,-448 1332,-577"/>
<text text-anchor="middle" x="1208" y="-561.8" font-family="Courier,monospace" font-size="14.00">State 10</text>
<text text-anchor="start" x="1092" y="-530.8" font-family="Courier,monospace" font-size="14.00"> &#160;3 Expr: Expr SUB • Term</text>
<text text-anchor="start" x="1092" y="-515.8" font-family="Courier,monospace" font-size="14.00"> &#160;5 Term: • Term MUL Factor</text>
<text text-anchor="start" x="1092" y="-500.8" font-family="Courier,monospace" font-size="14.00"> &#160;6 &#160;&#160;&#160;&#160;| • Term DIV Factor</text>
<text text-anchor="start" x="1092" y="-485.8" font-family="Courier,monospace" font-size="14.00"> &#160;7 &#160;&#160;&#160;&#160;| • Factor</text>
<text text-anchor="start" x="1092" y="-470.8" font-family="Courier,monospace" font-size="14.00"> &#160;8 Factor: • LPAR Expr RPAR</text>
<text text-anchor="start" x="1092" y="-455.8" font-family="Courier,monospace" font-size="14.00"> &#160;9 &#160;&#160;&#160;&#160;&#160;&#160;| • NUM</text>
</g>
<!-- 4&#45;&gt;10 -->
<g id="edge15" class="edge">
<title>4&#45;&gt;10</title>
<path fill="none" stroke="black" d="M661.32,-627.98C690.46,-615.13 724.03,-602.39 756,-595 891.25,-563.73 935.46,-610.09 1074.24,-576.93"/>
<polygon fill="black" stroke="black" points="1075.09,-580.32 1083.96,-574.52 1073.41,-573.53 1075.09,-580.32"/>
<text text-anchor="middle" x="768.5" y="-598.8" font-family="Courier,monospace" font-size="14.00">SUB</text>
</g>
<!-- 4R1 -->
<g id="node13" class="node">
<title>4R1</title>
<polygon fill="#b2df8a" stroke="black" points="434,-530.5 403.83,-512.5 434,-494.5 464.17,-512.5 434,-530.5"/>
<text text-anchor="middle" x="434" y="-508.8" font-family="Courier,monospace" font-size="14.00">R1</text>
</g>
<!-- 4&#45;&gt;4R1 -->
<g id="edge16" class="edge">
<title>4&#45;&gt;4R1</title>
<path fill="none" stroke="black" d="M525.56,-627.78C507.7,-612.86 488.49,-595.18 473,-577 462.3,-564.44 452.59,-548.64 445.53,-535.95"/>
<polygon fill="black" stroke="black" points="448.5,-534.09 440.68,-526.94 442.34,-537.41 448.5,-534.09"/>
</g>
<!-- 11 -->
<g id="node14" class="node">
<title>11</title>
<polygon fill="none" stroke="black" points="792,-262 544,-262 544,-178 792,-178 792,-262"/>
<text text-anchor="middle" x="668" y="-246.8" font-family="Courier,monospace" font-size="14.00">State 11</text>
<text text-anchor="start" x="552" y="-215.8" font-family="Courier,monospace" font-size="14.00"> &#160;5 Term: Term MUL • Factor</text>
<text text-anchor="start" x="552" y="-200.8" font-family="Courier,monospace" font-size="14.00"> &#160;8 Factor: • LPAR Expr RPAR</text>
<text text-anchor="start" x="552" y="-185.8" font-family="Courier,monospace" font-size="14.00"> &#160;9 &#160;&#160;&#160;&#160;&#160;&#160;| • NUM</text>
</g>
<!-- 5&#45;&gt;11 -->
<g id="edge17" class="edge">
<title>5&#45;&gt;11</title>
<path fill="none" stroke="black" d="M295.1,-627.8C320.47,-571.51 366.66,-474.53 395,-448 420.99,-423.67 433.61,-424.23 468,-415 506.83,-404.58 619.38,-425.23 648,-397 680.22,-365.21 682,-311.8 677.7,-272.13"/>
<polygon fill="black" stroke="black" points="681.16,-271.6 676.45,-262.11 674.21,-272.46 681.16,-271.6"/>
<text text-anchor="middle" x="480.5" y="-418.8" font-family="Courier,monospace" font-size="14.00">MUL</text>
</g>
<!-- 12 -->
<g id="node15" class="node">
<title>12</title>
<polygon fill="none" stroke="black" points="428,-262 180,-262 180,-178 428,-178 428,-262"/>
<text text-anchor="middle" x="304" y="-246.8" font-family="Courier,monospace" font-size="14.00">State 12</text>
<text text-anchor="start" x="188" y="-215.8" font-family="Courier,monospace" font-size="14.00"> &#160;6 Term: Term DIV • Factor</text>
<text text-anchor="start" x="188" y="-200.8" font-family="Courier,monospace" font-size="14.00"> &#160;8 Factor: • LPAR Expr RPAR</text>
<text text-anchor="start" x="188" y="-185.8" font-family="Courier,monospace" font-size="14.00"> &#160;9 &#160;&#160;&#160;&#160;&#160;&#160;| • NUM</text>
</g>
<!-- 5&#45;&gt;12 -->
<g id="edge18" class="edge">
<title>5&#45;&gt;12</title>
<path fill="none" stroke="black" d="M254.29,-627.88C219.93,-559.86 163.35,-420.77 209,-313 215.81,-296.92 226.97,-282.27 239.28,-269.62"/>
<polygon fill="black" stroke="black" points="241.94,-271.91 246.63,-262.41 237.04,-266.91 241.94,-271.91"/>
<text text-anchor="middle" x="205.5" y="-418.8" font-family="Courier,monospace" font-size="14.00">DIV</text>
</g>
<!-- 5R4 -->
<g id="node16" class="node">
<title>5R4</title>
<polygon fill="#b2df8a" stroke="black" points="277,-530.5 246.83,-512.5 277,-494.5 307.17,-512.5 277,-530.5"/>
<text text-anchor="middle" x="277" y="-508.8" font-family="Courier,monospace" font-size="14.00">R4</text>
</g>
<!-- 5&#45;&gt;5R4 -->
<g id="edge19" class="edge">
<title>5&#45;&gt;5R4</title>
<path fill="none" stroke="black" d="M277,-627.74C277,-600.27 277,-564.95 277,-540.9"/>
<polygon fill="black" stroke="black" points="280.5,-540.72 277,-530.72 273.5,-540.72 280.5,-540.72"/>
</g>
<!-- 6R7 -->
<g id="node17" class="node">
<title>6R7</title>
<polygon fill="#b2df8a" stroke="black" points="1373,-238 1342.83,-220 1373,-202 1403.17,-220 1373,-238"/>
<text text-anchor="middle" x="1373" y="-216.3" font-family="Courier,monospace" font-size="14.00">R7</text>
</g>
<!-- 6&#45;&gt;6R7 -->
<g id="edge20" class="edge">
<title>6&#45;&gt;6R7</title>
<path fill="none" stroke="black" d="M1373,-327.72C1373,-304.85 1373,-271.81 1373,-248.56"/>
<polygon fill="black" stroke="black" points="1376.5,-248.33 1373,-238.33 1369.5,-248.33 1376.5,-248.33"/>
</g>
<!-- 7&#45;&gt;9 -->
<g id="edge21" class="edge">
<title>7&#45;&gt;9</title>
<path fill="none" stroke="black" d="M853.28,-627.94C818.36,-611.78 777.51,-592.88 739.19,-575.14"/>
<polygon fill="black" stroke="black" points="740.57,-571.92 730.03,-570.9 737.63,-578.28 740.57,-571.92"/>
<text text-anchor="middle" x="826.5" y="-598.8" font-family="Courier,monospace" font-size="14.00">ADD</text>
</g>
<!-- 7&#45;&gt;10 -->
<g id="edge22" class="edge">
<title>7&#45;&gt;10</title>
<path fill="none" stroke="black" d="M1012.24,-627.94C1036.26,-613.89 1063.84,-597.77 1090.56,-582.15"/>
<polygon fill="black" stroke="black" points="1092.34,-585.17 1099.2,-577.1 1088.8,-579.13 1092.34,-585.17"/>
<text text-anchor="middle" x="1080.5" y="-598.8" font-family="Courier,monospace" font-size="14.00">SUB</text>
</g>
<!-- 13 -->
<g id="node18" class="node">
<title>13</title>
<polygon fill="none" stroke="black" points="1066,-539.5 818,-539.5 818,-485.5 1066,-485.5 1066,-539.5"/>
<text text-anchor="middle" x="942" y="-524.3" font-family="Courier,monospace" font-size="14.00">State 13</text>
<text text-anchor="start" x="826" y="-493.3" font-family="Courier,monospace" font-size="14.00"> &#160;8 Factor: LPAR Expr RPAR •</text>
</g>
<!-- 7&#45;&gt;13 -->
<g id="edge23" class="edge">
<title>7&#45;&gt;13</title>
<path fill="none" stroke="black" d="M942,-627.74C942,-603.55 942,-573.27 942,-549.96"/>
<polygon fill="black" stroke="black" points="945.5,-549.79 942,-539.79 938.5,-549.79 945.5,-549.79"/>
<text text-anchor="middle" x="959" y="-598.8" font-family="Courier,monospace" font-size="14.00">RPAR</text>
</g>
<!-- 8R0 -->
<g id="node19" class="node">
<title>8R0</title>
<polygon fill="#a6cee3" stroke="black" points="1574,-530.5 1536.13,-512.5 1574,-494.5 1611.87,-512.5 1574,-530.5"/>
<text text-anchor="middle" x="1574" y="-508.8" font-family="Courier,monospace" font-size="14.00">Acc</text>
</g>
<!-- 8&#45;&gt;8R0 -->
<g id="edge24" class="edge">
<title>8&#45;&gt;8R0</title>
<path fill="none" stroke="black" d="M1574,-642.97C1574,-614.76 1574,-569.92 1574,-541.1"/>
<polygon fill="black" stroke="black" points="1577.5,-540.91 1574,-530.91 1570.5,-540.91 1577.5,-540.91"/>
</g>
<!-- 9&#45;&gt;1 -->
<g id="edge25" class="edge">
<title>9&#45;&gt;1</title>
<path fill="none" stroke="black" d="M668.6,-577.09C680.84,-592.66 692.27,-610.05 700,-628 716.75,-666.88 724.29,-712.93 727.44,-752.89"/>
<polygon fill="black" stroke="black" points="723.95,-753.19 728.15,-762.92 730.94,-752.69 723.95,-753.19"/>
<text text-anchor="middle" x="740" y="-666.3" font-family="Courier,monospace" font-size="14.00">LPAR</text>
</g>
<!-- 9&#45;&gt;2 -->
<g id="edge26" class="edge">
<title>9&#45;&gt;2</title>
<path fill="none" stroke="black" d="M481.8,-451.02C478.85,-449.97 475.92,-448.96 473,-448 359.49,-410.62 296.96,-477.9 209,-397 136.18,-330.02 139.83,-200.53 146.72,-137.39"/>
<polygon fill="black" stroke="black" points="150.23,-137.47 147.93,-127.12 143.28,-136.64 150.23,-137.47"/>
<text text-anchor="middle" x="166.5" y="-283.8" font-family="Courier,monospace" font-size="14.00">NUM</text>
</g>
<!-- 9&#45;&gt;6 -->
<g id="edge28" class="edge">
<title>9&#45;&gt;6</title>
<path fill="none" stroke="black" stroke-dasharray="5,2" d="M730.19,-452.19C734.81,-450.68 739.43,-449.27 744,-448 871.53,-412.55 908.29,-428.21 1040,-415 1129.68,-406.01 1153.59,-414.56 1242,-397 1257.68,-393.89 1274.14,-389.59 1289.89,-384.94"/>
<polygon fill="black" stroke="black" points="1291.03,-388.25 1299.59,-382.01 1289,-381.55 1291.03,-388.25"/>
<text text-anchor="middle" x="1065" y="-418.8" font-family="Courier,monospace" font-size="14.00">Factor</text>
</g>
<!-- 14 -->
<g id="node20" class="node">
<title>14</title>
<polygon fill="none" stroke="black" points="639.5,-397 218.5,-397 218.5,-313 639.5,-313 639.5,-397"/>
<text text-anchor="middle" x="429" y="-381.8" font-family="Courier,monospace" font-size="14.00">State 14</text>
<text text-anchor="start" x="226.5" y="-350.8" font-family="Courier,monospace" font-size="14.00"> &#160;2 Expr: Expr ADD Term • &#160;[$end, ADD, SUB, RPAR]</text>
<text text-anchor="start" x="226.5" y="-335.8" font-family="Courier,monospace" font-size="14.00"> &#160;5 Term: Term • MUL Factor</text>
<text text-anchor="start" x="226.5" y="-320.8" font-family="Courier,monospace" font-size="14.00"> &#160;6 &#160;&#160;&#160;&#160;| Term • DIV Factor</text>
</g>
<!-- 9&#45;&gt;14 -->
<g id="edge27" class="edge">
<title>9&#45;&gt;14</title>
<path fill="none" stroke="black" stroke-dasharray="5,2" d="M533.5,-447.8C516.76,-433.1 499.23,-417.7 483.42,-403.81"/>
<polygon fill="black" stroke="black" points="485.63,-401.09 475.8,-397.12 481.01,-406.35 485.63,-401.09"/>
<text text-anchor="middle" x="530" y="-418.8" font-family="Courier,monospace" font-size="14.00">Term</text>
</g>
<!-- 10&#45;&gt;1 -->
<g id="edge29" class="edge">
<title>10&#45;&gt;1</title>
<path fill="none" stroke="black" d="M1178.19,-577.32C1155.25,-620.41 1119.9,-675.82 1075,-712 1013.1,-761.87 930.8,-795.41 861.89,-816.82"/>
<polygon fill="black" stroke="black" points="860.8,-813.49 852.26,-819.76 862.84,-820.19 860.8,-813.49"/>
<text text-anchor="middle" x="1164" y="-666.3" font-family="Courier,monospace" font-size="14.00">LPAR</text>
</g>
<!-- 10&#45;&gt;2 -->
<g id="edge30" class="edge">
<title>10&#45;&gt;2</title>
<path fill="none" stroke="black" d="M1238.08,-447.77C1252.65,-407.33 1262.95,-354.91 1242,-313 1197.28,-223.56 1155.23,-214.17 1062,-178 894.09,-112.85 435.81,-155.37 240.46,-126.98"/>
<polygon fill="black" stroke="black" points="240.93,-123.51 230.51,-125.43 239.85,-130.43 240.93,-123.51"/>
<text text-anchor="middle" x="1244.5" y="-283.8" font-family="Courier,monospace" font-size="14.00">NUM</text>
</g>
<!-- 10&#45;&gt;6 -->
<g id="edge32" class="edge">
<title>10&#45;&gt;6</title>
<path fill="none" stroke="black" stroke-dasharray="5,2" d="M1263.01,-447.91C1273.62,-436.61 1284.89,-425.2 1296,-415 1305.99,-405.83 1317.3,-396.6 1328.13,-388.25"/>
<polygon fill="black" stroke="black" points="1330.44,-390.89 1336.28,-382.05 1326.2,-385.31 1330.44,-390.89"/>
<text text-anchor="middle" x="1321" y="-418.8" font-family="Courier,monospace" font-size="14.00">Factor</text>
</g>
<!-- 15 -->
<g id="node21" class="node">
<title>15</title>
<polygon fill="none" stroke="black" points="1233.5,-397 812.5,-397 812.5,-313 1233.5,-313 1233.5,-397"/>
<text text-anchor="middle" x="1023" y="-381.8" font-family="Courier,monospace" font-size="14.00">State 15</text>
<text text-anchor="start" x="820.5" y="-350.8" font-family="Courier,monospace" font-size="14.00"> &#160;3 Expr: Expr SUB Term • &#160;[$end, ADD, SUB, RPAR]</text>
<text text-anchor="start" x="820.5" y="-335.8" font-family="Courier,monospace" font-size="14.00"> &#160;5 Term: Term • MUL Factor</text>
<text text-anchor="start" x="820.5" y="-320.8" font-family="Courier,monospace" font-size="14.00"> &#160;6 &#160;&#160;&#160;&#160;| Term • DIV Factor</text>
</g>
<!-- 10&#45;&gt;15 -->
<g id="edge31" class="edge">
<title>10&#45;&gt;15</title>
<path fill="none" stroke="black" stroke-dasharray="5,2" d="M1132.22,-447.8C1114.73,-433.1 1096.41,-417.7 1079.88,-403.81"/>
<polygon fill="black" stroke="black" points="1081.83,-400.87 1071.92,-397.12 1077.32,-406.23 1081.83,-400.87"/>
<text text-anchor="middle" x="1127" y="-418.8" font-family="Courier,monospace" font-size="14.00">Term</text>
</g>
<!-- 11&#45;&gt;1 -->
<g id="edge33" class="edge">
<title>11&#45;&gt;1</title>
<path fill="none" stroke="black" d="M685.39,-262.04C687.72,-268.02 690,-274.14 692,-280 695.14,-289.17 736.51,-438.63 739,-448 756.3,-513.11 767.71,-528.14 776,-595 776.82,-601.62 776.49,-603.35 776,-610 772.52,-657.58 762.8,-709.59 753.01,-752.91"/>
<polygon fill="black" stroke="black" points="749.55,-752.34 750.72,-762.87 756.37,-753.91 749.55,-752.34"/>
<text text-anchor="middle" x="791" y="-508.8" font-family="Courier,monospace" font-size="14.00">LPAR</text>
</g>
<!-- 11&#45;&gt;2 -->
<g id="edge34" class="edge">
<title>11&#45;&gt;2</title>
<path fill="none" stroke="black" d="M543.93,-180.67C498.4,-167.75 446.21,-154.28 398,-145 331.3,-132.16 310.53,-140.42 240.74,-127.17"/>
<polygon fill="black" stroke="black" points="241.05,-123.67 230.56,-125.16 239.69,-130.53 241.05,-123.67"/>
<text text-anchor="middle" x="478.5" y="-148.8" font-family="Courier,monospace" font-size="14.00">NUM</text>
</g>
<!-- 16 -->
<g id="node22" class="node">
<title>16</title>
<polygon fill="none" stroke="black" points="787.5,-127 548.5,-127 548.5,-73 787.5,-73 787.5,-127"/>
<text text-anchor="middle" x="668" y="-111.8" font-family="Courier,monospace" font-size="14.00">State 16</text>
<text text-anchor="start" x="556.5" y="-80.8" font-family="Courier,monospace" font-size="14.00"> &#160;5 Term: Term MUL Factor •</text>
</g>
<!-- 11&#45;&gt;16 -->
<g id="edge35" class="edge">
<title>11&#45;&gt;16</title>
<path fill="none" stroke="black" stroke-dasharray="5,2" d="M668,-177.73C668,-164.64 668,-150.28 668,-137.55"/>
<polygon fill="black" stroke="black" points="671.5,-137.31 668,-127.31 664.5,-137.31 671.5,-137.31"/>
<text text-anchor="middle" x="693" y="-148.8" font-family="Courier,monospace" font-size="14.00">Factor</text>
</g>
<!-- 12&#45;&gt;1 -->
<g id="edge36" class="edge">
<title>12&#45;&gt;1</title>
<path fill="none" stroke="black" d="M179.99,-252.86C167.54,-260.13 156.15,-269.05 147,-280 113.37,-320.27 28.63,-707.18 65,-745 82.73,-763.43 500.04,-757.42 525,-763 548.06,-768.16 571.81,-775.83 594.57,-784.5"/>
<polygon fill="black" stroke="black" points="593.33,-787.77 603.92,-788.14 595.87,-781.25 593.33,-787.77"/>
<text text-anchor="middle" x="111" y="-508.8" font-family="Courier,monospace" font-size="14.00">LPAR</text>
</g>
<!-- 12&#45;&gt;2 -->
<g id="edge37" class="edge">
<title>12&#45;&gt;2</title>
<path fill="none" stroke="black" d="M250.84,-177.73C232.3,-163.34 211.76,-147.39 194.23,-133.78"/>
<polygon fill="black" stroke="black" points="195.93,-130.67 185.89,-127.31 191.64,-136.2 195.93,-130.67"/>
<text text-anchor="middle" x="240.5" y="-148.8" font-family="Courier,monospace" font-size="14.00">NUM</text>
</g>
<!-- 17 -->
<g id="node23" class="node">
<title>17</title>
<polygon fill="none" stroke="black" points="487.5,-127 248.5,-127 248.5,-73 487.5,-73 487.5,-127"/>
<text text-anchor="middle" x="368" y="-111.8" font-family="Courier,monospace" font-size="14.00">State 17</text>
<text text-anchor="start" x="256.5" y="-80.8" font-family="Courier,monospace" font-size="14.00"> &#160;6 Term: Term DIV Factor •</text>
</g>
<!-- 12&#45;&gt;17 -->
<g id="edge38" class="edge">
<title>12&#45;&gt;17</title>
<path fill="none" stroke="black" stroke-dasharray="5,2" d="M326.38,-177.73C333.69,-164.25 341.74,-149.41 348.8,-136.41"/>
<polygon fill="black" stroke="black" points="352.04,-137.77 353.73,-127.31 345.89,-134.43 352.04,-137.77"/>
<text text-anchor="middle" x="369" y="-148.8" font-family="Courier,monospace" font-size="14.00">Factor</text>
</g>
<!-- 13R8 -->
<g id="node24" class="node">
<title>13R8</title>
<polygon fill="#b2df8a" stroke="black" points="764,-373 733.83,-355 764,-337 794.17,-355 764,-373"/>
<text text-anchor="middle" x="764" y="-351.3" font-family="Courier,monospace" font-size="14.00">R8</text>
</g>
<!-- 13&#45;&gt;13R8 -->
<g id="edge39" class="edge">
<title>13&#45;&gt;13R8</title>
<path fill="none" stroke="black" d="M907.9,-485.3C879.15,-462.78 837.32,-428.96 803,-397 795.56,-390.07 787.76,-382.04 781.11,-374.94"/>
<polygon fill="black" stroke="black" points="783.27,-372.12 773.92,-367.14 778.12,-376.86 783.27,-372.12"/>
</g>
<!-- 14&#45;&gt;11 -->
<g id="edge40" class="edge">
<title>14&#45;&gt;11</title>
<path fill="none" stroke="black" d="M502.98,-312.83C528.97,-298.37 558.34,-282.02 585.02,-267.18"/>
<polygon fill="black" stroke="black" points="586.92,-270.13 593.95,-262.21 583.51,-264.01 586.92,-270.13"/>
<text text-anchor="middle" x="568.5" y="-283.8" font-family="Courier,monospace" font-size="14.00">MUL</text>
</g>
<!-- 14&#45;&gt;12 -->
<g id="edge41" class="edge">
<title>14&#45;&gt;12</title>
<path fill="none" stroke="black" d="M385.54,-312.89C379.56,-306.97 373.57,-300.89 368,-295 360.49,-287.06 352.72,-278.44 345.29,-269.99"/>
<polygon fill="black" stroke="black" points="347.78,-267.52 338.57,-262.29 342.51,-272.13 347.78,-267.52"/>
<text text-anchor="middle" x="380.5" y="-283.8" font-family="Courier,monospace" font-size="14.00">DIV</text>
</g>
<!-- 14R2 -->
<g id="node25" class="node">
<title>14R2</title>
<polygon fill="#b2df8a" stroke="black" points="476,-238 445.83,-220 476,-202 506.17,-220 476,-238"/>
<text text-anchor="middle" x="476" y="-216.3" font-family="Courier,monospace" font-size="14.00">R2</text>
</g>
<!-- 14&#45;&gt;14R2 -->
<g id="edge42" class="edge">
<title>14&#45;&gt;14R2</title>
<path fill="none" stroke="black" d="M443.61,-312.65C451.48,-290.39 460.91,-263.71 467.55,-244.9"/>
<polygon fill="black" stroke="black" points="470.9,-245.93 470.93,-235.33 464.3,-243.6 470.9,-245.93"/>
</g>
<!-- 15&#45;&gt;11 -->
<g id="edge43" class="edge">
<title>15&#45;&gt;11</title>
<path fill="none" stroke="black" d="M913.11,-312.83C873.15,-297.86 827.82,-280.88 787.11,-265.62"/>
<polygon fill="black" stroke="black" points="788.27,-262.32 777.68,-262.09 785.82,-268.88 788.27,-262.32"/>
<text text-anchor="middle" x="869.5" y="-283.8" font-family="Courier,monospace" font-size="14.00">MUL</text>
</g>
<!-- 15&#45;&gt;12 -->
<g id="edge44" class="edge">
<title>15&#45;&gt;12</title>
<path fill="none" stroke="black" d="M812.32,-314.19C809.19,-313.78 806.08,-313.38 803,-313 674.84,-297.14 639.53,-320.8 513,-295 479.27,-288.12 443.61,-277.02 411.47,-265.49"/>
<polygon fill="black" stroke="black" points="412.66,-262.19 402.06,-262.06 410.26,-268.77 412.66,-262.19"/>
<text text-anchor="middle" x="525.5" y="-283.8" font-family="Courier,monospace" font-size="14.00">DIV</text>
</g>
<!-- 15R3 -->
<g id="node26" class="node">
<title>15R3</title>
<polygon fill="#b2df8a" stroke="black" points="1023,-238 992.83,-220 1023,-202 1053.17,-220 1023,-238"/>
<text text-anchor="middle" x="1023" y="-216.3" font-family="Courier,monospace" font-size="14.00">R3</text>
</g>
<!-- 15&#45;&gt;15R3 -->
<g id="edge45" class="edge">
<title>15&#45;&gt;15R3</title>
<path fill="none" stroke="black" d="M1023,-312.65C1023,-291.74 1023,-266.94 1023,-248.42"/>
<polygon fill="black" stroke="black" points="1026.5,-248.31 1023,-238.31 1019.5,-248.31 1026.5,-248.31"/>
</g>
<!-- 16R5 -->
<g id="node27" class="node">
<title>16R5</title>
<polygon fill="#b2df8a" stroke="black" points="668,-36 637.83,-18 668,0 698.17,-18 668,-36"/>
<text text-anchor="middle" x="668" y="-14.3" font-family="Courier,monospace" font-size="14.00">R5</text>
</g>
<!-- 16&#45;&gt;16R5 -->
<g id="edge46" class="edge">
<title>16&#45;&gt;16R5</title>
<path fill="none" stroke="black" d="M668,-72.81C668,-64.35 668,-54.95 668,-46.4"/>
<polygon fill="black" stroke="black" points="671.5,-46.17 668,-36.17 664.5,-46.17 671.5,-46.17"/>
</g>
<!-- 17R6 -->
<g id="node28" class="node">
<title>17R6</title>
<polygon fill="#b2df8a" stroke="black" points="368,-36 337.83,-18 368,0 398.17,-18 368,-36"/>
<text text-anchor="middle" x="368" y="-14.3" font-family="Courier,monospace" font-size="14.00">R6</text>
</g>
<!-- 17&#45;&gt;17R6 -->
<g id="edge47" class="edge">
<title>17&#45;&gt;17R6</title>
<path fill="none" stroke="black" d="M368,-72.81C368,-64.35 368,-54.95 368,-46.4"/>
<polygon fill="black" stroke="black" points="371.5,-46.17 368,-36.17 364.5,-46.17 371.5,-46.17"/>
</g>
</g>
</svg>
