<?xml version="1.0" encoding="UTF-8" standalone="no"?>
<!DOCTYPE svg PUBLIC "-//W3C//DTD SVG 1.1//EN"
 "http://www.w3.org/Graphics/SVG/1.1/DTD/svg11.dtd">
<!-- Generated by graphviz version 2.43.0 (0)
 -->
<!-- Title: bottom&#45;up.y Pages: 1 -->
<svg width="995pt" height="1080pt"
 viewBox="0.00 0.00 994.50 1080.00" xmlns="http://www.w3.org/2000/svg" xmlns:xlink="http://www.w3.org/1999/xlink">
<g id="graph0" class="graph" transform="scale(1 1) rotate(0) translate(4 1076)">
<title>bottom&#45;up.y</title>
<polygon fill="white" stroke="transparent" points="-4,4 -4,-1076 990.5,-1076 990.5,4 -4,4"/>
<!-- 0 -->
<g id="node1" class="node">
<title>0</title>
<polygon fill="none" stroke="black" points="350.5,-1072 127.5,-1072 127.5,-913 350.5,-913 350.5,-1072"/>
<text text-anchor="middle" x="239" y="-1056.8" font-family="Courier,monospace" font-size="14.00">State 0</text>
<text text-anchor="start" x="135.5" y="-1025.8" font-family="Courier,monospace" font-size="14.00"> &#160;0 $accept: • Start $end</text>
<text text-anchor="start" x="135.5" y="-1010.8" font-family="Courier,monospace" font-size="14.00"> &#160;1 Start: • E</text>
<text text-anchor="start" x="135.5" y="-995.8" font-family="Courier,monospace" font-size="14.00"> &#160;2 E: • E ADD T</text>
<text text-anchor="start" x="135.5" y="-980.8" font-family="Courier,monospace" font-size="14.00"> &#160;3 &#160;| • T</text>
<text text-anchor="start" x="135.5" y="-965.8" font-family="Courier,monospace" font-size="14.00"> &#160;4 T: • T MUL F</text>
<text text-anchor="start" x="135.5" y="-950.8" font-family="Courier,monospace" font-size="14.00"> &#160;5 &#160;| • F</text>
<text text-anchor="start" x="135.5" y="-935.8" font-family="Courier,monospace" font-size="14.00"> &#160;6 F: • LPAR E RPAR</text>
<text text-anchor="start" x="135.5" y="-920.8" font-family="Courier,monospace" font-size="14.00"> &#160;7 &#160;| • NUM</text>
</g>
<!-- 1 -->
<g id="node2" class="node">
<title>1</title>
<polygon fill="none" stroke="black" points="241,-127 125,-127 125,-73 241,-73 241,-127"/>
<text text-anchor="middle" x="183" y="-111.8" font-family="Courier,monospace" font-size="14.00">State 1</text>
<text text-anchor="start" x="133" y="-80.8" font-family="Courier,monospace" font-size="14.00"> &#160;7 F: NUM •</text>
</g>
<!-- 0&#45;&gt;1 -->
<g id="edge1" class="edge">
<title>0&#45;&gt;1</title>
<path fill="none" stroke="black" d="M127.2,-947.38C65,-914.72 0,-863.3 0,-791 0,-791 0,-791 0,-219 0,-162.27 62.89,-131.5 114.94,-115.75"/>
<polygon fill="black" stroke="black" points="116.21,-119.02 124.85,-112.89 114.27,-112.3 116.21,-119.02"/>
<text text-anchor="middle" x="12.5" y="-486.3" font-family="Courier,monospace" font-size="14.00">NUM</text>
</g>
<!-- 2 -->
<g id="node3" class="node">
<title>2</title>
<polygon fill="none" stroke="black" points="502,-862 320,-862 320,-718 502,-718 502,-862"/>
<text text-anchor="middle" x="411" y="-846.8" font-family="Courier,monospace" font-size="14.00">State 2</text>
<text text-anchor="start" x="328" y="-815.8" font-family="Courier,monospace" font-size="14.00"> &#160;2 E: • E ADD T</text>
<text text-anchor="start" x="328" y="-800.8" font-family="Courier,monospace" font-size="14.00"> &#160;3 &#160;| • T</text>
<text text-anchor="start" x="328" y="-785.8" font-family="Courier,monospace" font-size="14.00"> &#160;4 T: • T MUL F</text>
<text text-anchor="start" x="328" y="-770.8" font-family="Courier,monospace" font-size="14.00"> &#160;5 &#160;| • F</text>
<text text-anchor="start" x="328" y="-755.8" font-family="Courier,monospace" font-size="14.00"> &#160;6 F: • LPAR E RPAR</text>
<text text-anchor="start" x="328" y="-740.8" font-family="Courier,monospace" font-size="14.00"> &#160;6 &#160;| LPAR • E RPAR</text>
<text text-anchor="start" x="328" y="-725.8" font-family="Courier,monospace" font-size="14.00"> &#160;7 &#160;| • NUM</text>
</g>
<!-- 0&#45;&gt;2 -->
<g id="edge2" class="edge">
<title>0&#45;&gt;2</title>
<path fill="none" stroke="black" d="M306.49,-912.83C318.56,-898.76 331.14,-884.1 343.22,-870.02"/>
<polygon fill="black" stroke="black" points="346.01,-872.13 349.87,-862.26 340.7,-867.57 346.01,-872.13"/>
<text text-anchor="middle" x="348" y="-883.8" font-family="Courier,monospace" font-size="14.00">LPAR</text>
</g>
<!-- 3 -->
<g id="node4" class="node">
<title>3</title>
<polygon fill="none" stroke="black" points="837.5,-817 614.5,-817 614.5,-763 837.5,-763 837.5,-817"/>
<text text-anchor="middle" x="726" y="-801.8" font-family="Courier,monospace" font-size="14.00">State 3</text>
<text text-anchor="start" x="622.5" y="-770.8" font-family="Courier,monospace" font-size="14.00"> &#160;0 $accept: Start • $end</text>
</g>
<!-- 0&#45;&gt;3 -->
<g id="edge3" class="edge">
<title>0&#45;&gt;3</title>
<path fill="none" stroke="black" stroke-dasharray="5,2" d="M350.68,-947.84C413.29,-923.11 492.71,-891.35 563,-862 594.36,-848.91 628.89,-833.95 658.06,-821.14"/>
<polygon fill="black" stroke="black" points="659.59,-824.3 667.34,-817.07 656.77,-817.89 659.59,-824.3"/>
<text text-anchor="middle" x="541" y="-883.8" font-family="Courier,monospace" font-size="14.00">Start</text>
</g>
<!-- 4 -->
<g id="node5" class="node">
<title>4</title>
<polygon fill="none" stroke="black" points="231.5,-824.5 82.5,-824.5 82.5,-755.5 231.5,-755.5 231.5,-824.5"/>
<text text-anchor="middle" x="157" y="-809.3" font-family="Courier,monospace" font-size="14.00">State 4</text>
<text text-anchor="start" x="90.5" y="-778.3" font-family="Courier,monospace" font-size="14.00"> &#160;1 Start: E •</text>
<text text-anchor="start" x="90.5" y="-763.3" font-family="Courier,monospace" font-size="14.00"> &#160;2 E: E • ADD T</text>
</g>
<!-- 0&#45;&gt;4 -->
<g id="edge4" class="edge">
<title>0&#45;&gt;4</title>
<path fill="none" stroke="black" stroke-dasharray="5,2" d="M206.83,-912.83C195.87,-886.05 184.04,-857.11 174.65,-834.16"/>
<polygon fill="black" stroke="black" points="177.81,-832.64 170.79,-824.71 171.33,-835.29 177.81,-832.64"/>
<text text-anchor="middle" x="202.5" y="-883.8" font-family="Courier,monospace" font-size="14.00">E</text>
</g>
<!-- 5 -->
<g id="node6" class="node">
<title>5</title>
<polygon fill="none" stroke="black" points="669.5,-667 520.5,-667 520.5,-598 669.5,-598 669.5,-667"/>
<text text-anchor="middle" x="595" y="-651.8" font-family="Courier,monospace" font-size="14.00">State 5</text>
<text text-anchor="start" x="528.5" y="-620.8" font-family="Courier,monospace" font-size="14.00"> &#160;3 E: T •</text>
<text text-anchor="start" x="528.5" y="-605.8" font-family="Courier,monospace" font-size="14.00"> &#160;4 T: T • MUL F</text>
</g>
<!-- 0&#45;&gt;5 -->
<g id="edge5" class="edge">
<title>0&#45;&gt;5</title>
<path fill="none" stroke="black" stroke-dasharray="5,2" d="M237.12,-912.96C239.91,-852.4 253.53,-770.41 302,-718 364.76,-650.13 415.52,-690.13 510.24,-666.87"/>
<polygon fill="black" stroke="black" points="511.39,-670.19 520.16,-664.24 509.6,-663.42 511.39,-670.19"/>
<text text-anchor="middle" x="306.5" y="-786.3" font-family="Courier,monospace" font-size="14.00">T</text>
</g>
<!-- 6 -->
<g id="node7" class="node">
<title>6</title>
<polygon fill="none" stroke="black" points="222.5,-374.5 123.5,-374.5 123.5,-320.5 222.5,-320.5 222.5,-374.5"/>
<text text-anchor="middle" x="173" y="-359.3" font-family="Courier,monospace" font-size="14.00">State 6</text>
<text text-anchor="start" x="131.5" y="-328.3" font-family="Courier,monospace" font-size="14.00"> &#160;5 T: F •</text>
</g>
<!-- 0&#45;&gt;6 -->
<g id="edge6" class="edge">
<title>0&#45;&gt;6</title>
<path fill="none" stroke="black" stroke-dasharray="5,2" d="M127.13,-927.2C105.28,-909.08 85.35,-887.29 73,-862 31.18,-776.33 32.86,-519.47 73,-433 82.75,-411.99 100.58,-394.32 118.52,-380.66"/>
<polygon fill="black" stroke="black" points="120.72,-383.39 126.74,-374.67 116.59,-377.73 120.72,-383.39"/>
<text text-anchor="middle" x="48.5" y="-628.8" font-family="Courier,monospace" font-size="14.00">F</text>
</g>
<!-- 1R7 -->
<g id="node8" class="node">
<title>1R7</title>
<polygon fill="#b2df8a" stroke="black" points="183,-36 152.83,-18 183,0 213.17,-18 183,-36"/>
<text text-anchor="middle" x="183" y="-14.3" font-family="Courier,monospace" font-size="14.00">R7</text>
</g>
<!-- 1&#45;&gt;1R7 -->
<g id="edge7" class="edge">
<title>1&#45;&gt;1R7</title>
<path fill="none" stroke="black" d="M183,-72.81C183,-64.35 183,-54.95 183,-46.4"/>
<polygon fill="black" stroke="black" points="186.5,-46.17 183,-36.17 179.5,-46.17 186.5,-46.17"/>
</g>
<!-- 2&#45;&gt;1 -->
<g id="edge8" class="edge">
<title>2&#45;&gt;1</title>
<path fill="none" stroke="black" d="M502.45,-754.47C534.73,-742.56 571.36,-729.37 605,-718 630.57,-709.36 639.62,-713.49 663,-700 700.73,-678.23 735,-677.06 735,-633.5 735,-633.5 735,-633.5 735,-219 735,-198.73 731.38,-189.95 715,-178 642.41,-125.03 377.96,-108.18 251.4,-103.08"/>
<polygon fill="black" stroke="black" points="251.19,-99.57 241.06,-102.68 250.91,-106.57 251.19,-99.57"/>
<text text-anchor="middle" x="747.5" y="-403.8" font-family="Courier,monospace" font-size="14.00">NUM</text>
</g>
<!-- 2&#45;&gt;2 -->
<g id="edge9" class="edge">
<title>2&#45;&gt;2</title>
<path fill="none" stroke="black" d="M502.04,-805.47C512.9,-802.66 520,-797.5 520,-790 520,-784.96 516.8,-780.98 511.4,-778.06"/>
<polygon fill="black" stroke="black" points="512.63,-774.78 502.04,-774.53 510.16,-781.33 512.63,-774.78"/>
<text text-anchor="middle" x="537" y="-786.3" font-family="Courier,monospace" font-size="14.00">LPAR</text>
</g>
<!-- 2&#45;&gt;5 -->
<g id="edge11" class="edge">
<title>2&#45;&gt;5</title>
<path fill="none" stroke="black" stroke-dasharray="5,2" d="M495.19,-717.85C512.92,-702.87 531.04,-687.56 546.89,-674.16"/>
<polygon fill="black" stroke="black" points="549.57,-676.47 554.95,-667.34 545.06,-671.13 549.57,-676.47"/>
<text text-anchor="middle" x="535.5" y="-688.8" font-family="Courier,monospace" font-size="14.00">T</text>
</g>
<!-- 2&#45;&gt;6 -->
<g id="edge12" class="edge">
<title>2&#45;&gt;6</title>
<path fill="none" stroke="black" stroke-dasharray="5,2" d="M342.34,-717.72C330.25,-702 319,-684.72 311,-667 267.67,-570.96 324.9,-524.69 273,-433 261.35,-412.42 242.65,-394.6 224.55,-380.71"/>
<polygon fill="black" stroke="black" points="226.42,-377.75 216.31,-374.61 222.26,-383.37 226.42,-377.75"/>
<text text-anchor="middle" x="299.5" y="-568.8" font-family="Courier,monospace" font-size="14.00">F</text>
</g>
<!-- 7 -->
<g id="node9" class="node">
<title>7</title>
<polygon fill="none" stroke="black" points="502,-667 320,-667 320,-598 502,-598 502,-667"/>
<text text-anchor="middle" x="411" y="-651.8" font-family="Courier,monospace" font-size="14.00">State 7</text>
<text text-anchor="start" x="328" y="-620.8" font-family="Courier,monospace" font-size="14.00"> &#160;2 E: E • ADD T</text>
<text text-anchor="start" x="328" y="-605.8" font-family="Courier,monospace" font-size="14.00"> &#160;6 F: LPAR E • RPAR</text>
</g>
<!-- 2&#45;&gt;7 -->
<g id="edge10" class="edge">
<title>2&#45;&gt;7</title>
<path fill="none" stroke="black" stroke-dasharray="5,2" d="M411,-717.62C411,-703.9 411,-689.91 411,-677.38"/>
<polygon fill="black" stroke="black" points="414.5,-677.24 411,-667.24 407.5,-677.24 414.5,-677.24"/>
<text text-anchor="middle" x="415.5" y="-688.8" font-family="Courier,monospace" font-size="14.00">E</text>
</g>
<!-- 8 -->
<g id="node10" class="node">
<title>8</title>
<polygon fill="none" stroke="black" points="986.5,-659.5 763.5,-659.5 763.5,-605.5 986.5,-605.5 986.5,-659.5"/>
<text text-anchor="middle" x="875" y="-644.3" font-family="Courier,monospace" font-size="14.00">State 8</text>
<text text-anchor="start" x="771.5" y="-613.3" font-family="Courier,monospace" font-size="14.00"> &#160;0 $accept: Start $end •</text>
</g>
<!-- 3&#45;&gt;8 -->
<g id="edge13" class="edge">
<title>3&#45;&gt;8</title>
<path fill="none" stroke="black" d="M750.94,-762.97C776.19,-736.62 815.33,-695.77 842.89,-667.01"/>
<polygon fill="black" stroke="black" points="845.59,-669.25 849.98,-659.61 840.53,-664.41 845.59,-669.25"/>
<text text-anchor="middle" x="840" y="-688.8" font-family="Courier,monospace" font-size="14.00">$end</text>
</g>
<!-- 9 -->
<g id="node11" class="node">
<title>9</title>
<polygon fill="none" stroke="black" points="264,-547 82,-547 82,-433 264,-433 264,-547"/>
<text text-anchor="middle" x="173" y="-531.8" font-family="Courier,monospace" font-size="14.00">State 9</text>
<text text-anchor="start" x="90" y="-500.8" font-family="Courier,monospace" font-size="14.00"> &#160;2 E: E ADD • T</text>
<text text-anchor="start" x="90" y="-485.8" font-family="Courier,monospace" font-size="14.00"> &#160;4 T: • T MUL F</text>
<text text-anchor="start" x="90" y="-470.8" font-family="Courier,monospace" font-size="14.00"> &#160;5 &#160;| • F</text>
<text text-anchor="start" x="90" y="-455.8" font-family="Courier,monospace" font-size="14.00"> &#160;6 F: • LPAR E RPAR</text>
<text text-anchor="start" x="90" y="-440.8" font-family="Courier,monospace" font-size="14.00"> &#160;7 &#160;| • NUM</text>
</g>
<!-- 4&#45;&gt;9 -->
<g id="edge14" class="edge">
<title>4&#45;&gt;9</title>
<path fill="none" stroke="black" d="M134.74,-755.48C112.23,-717.29 83.01,-653.05 100,-598 104.52,-583.37 111.79,-568.95 120.04,-555.67"/>
<polygon fill="black" stroke="black" points="123.09,-557.41 125.59,-547.12 117.21,-553.61 123.09,-557.41"/>
<text text-anchor="middle" x="112.5" y="-628.8" font-family="Courier,monospace" font-size="14.00">ADD</text>
</g>
<!-- 4R1 -->
<g id="node12" class="node">
<title>4R1</title>
<polygon fill="#b2df8a" stroke="black" points="164,-650.5 133.83,-632.5 164,-614.5 194.17,-632.5 164,-650.5"/>
<text text-anchor="middle" x="164" y="-628.8" font-family="Courier,monospace" font-size="14.00">R1</text>
</g>
<!-- 4&#45;&gt;4R1 -->
<g id="edge15" class="edge">
<title>4&#45;&gt;4R1</title>
<path fill="none" stroke="black" d="M158.52,-755.26C159.8,-726.84 161.6,-686.72 162.79,-660.42"/>
<polygon fill="black" stroke="black" points="166.29,-660.55 163.24,-650.4 159.29,-660.23 166.29,-660.55"/>
</g>
<!-- 10 -->
<g id="node13" class="node">
<title>10</title>
<polygon fill="none" stroke="black" points="706,-262 524,-262 524,-178 706,-178 706,-262"/>
<text text-anchor="middle" x="615" y="-246.8" font-family="Courier,monospace" font-size="14.00">State 10</text>
<text text-anchor="start" x="532" y="-215.8" font-family="Courier,monospace" font-size="14.00"> &#160;4 T: T MUL • F</text>
<text text-anchor="start" x="532" y="-200.8" font-family="Courier,monospace" font-size="14.00"> &#160;6 F: • LPAR E RPAR</text>
<text text-anchor="start" x="532" y="-185.8" font-family="Courier,monospace" font-size="14.00"> &#160;7 &#160;| • NUM</text>
</g>
<!-- 5&#45;&gt;10 -->
<g id="edge16" class="edge">
<title>5&#45;&gt;10</title>
<path fill="none" stroke="black" d="M596.64,-597.91C600.13,-526.22 608.33,-357.84 612.49,-272.51"/>
<polygon fill="black" stroke="black" points="616,-272.44 612.99,-262.28 609.01,-272.1 616,-272.44"/>
<text text-anchor="middle" x="619.5" y="-403.8" font-family="Courier,monospace" font-size="14.00">MUL</text>
</g>
<!-- 5R3 -->
<g id="node14" class="node">
<title>5R3</title>
<polygon fill="#b2df8a" stroke="black" points="557,-508 526.83,-490 557,-472 587.17,-490 557,-508"/>
<text text-anchor="middle" x="557" y="-486.3" font-family="Courier,monospace" font-size="14.00">R3</text>
</g>
<!-- 5&#45;&gt;5R3 -->
<g id="edge17" class="edge">
<title>5&#45;&gt;5R3</title>
<path fill="none" stroke="black" d="M585.9,-597.85C579.07,-572.62 569.89,-538.65 563.72,-515.85"/>
<polygon fill="black" stroke="black" points="567.03,-514.67 561.04,-505.93 560.27,-516.5 567.03,-514.67"/>
</g>
<!-- 6R5 -->
<g id="node15" class="node">
<title>6R5</title>
<polygon fill="#b2df8a" stroke="black" points="173,-238 142.83,-220 173,-202 203.17,-220 173,-238"/>
<text text-anchor="middle" x="173" y="-216.3" font-family="Courier,monospace" font-size="14.00">R5</text>
</g>
<!-- 6&#45;&gt;6R5 -->
<g id="edge18" class="edge">
<title>6&#45;&gt;6R5</title>
<path fill="none" stroke="black" d="M173,-320.5C173,-299.37 173,-269.66 173,-248.21"/>
<polygon fill="black" stroke="black" points="176.5,-248.13 173,-238.13 169.5,-248.13 176.5,-248.13"/>
</g>
<!-- 7&#45;&gt;9 -->
<g id="edge19" class="edge">
<title>7&#45;&gt;9</title>
<path fill="none" stroke="black" d="M319.62,-613.58C294.07,-605.88 267.23,-595.07 245,-580 234.75,-573.05 225.22,-564.21 216.67,-554.8"/>
<polygon fill="black" stroke="black" points="219.23,-552.42 210.02,-547.17 213.95,-557.01 219.23,-552.42"/>
<text text-anchor="middle" x="257.5" y="-568.8" font-family="Courier,monospace" font-size="14.00">ADD</text>
</g>
<!-- 11 -->
<g id="node16" class="node">
<title>11</title>
<polygon fill="none" stroke="black" points="507,-517 325,-517 325,-463 507,-463 507,-517"/>
<text text-anchor="middle" x="416" y="-501.8" font-family="Courier,monospace" font-size="14.00">State 11</text>
<text text-anchor="start" x="333" y="-470.8" font-family="Courier,monospace" font-size="14.00"> &#160;6 F: LPAR E RPAR •</text>
</g>
<!-- 7&#45;&gt;11 -->
<g id="edge20" class="edge">
<title>7&#45;&gt;11</title>
<path fill="none" stroke="black" d="M412.2,-597.85C412.95,-576.64 413.93,-549.25 414.7,-527.52"/>
<polygon fill="black" stroke="black" points="418.2,-527.47 415.06,-517.35 411.21,-527.22 418.2,-527.47"/>
<text text-anchor="middle" x="431" y="-568.8" font-family="Courier,monospace" font-size="14.00">RPAR</text>
</g>
<!-- 8R0 -->
<g id="node17" class="node">
<title>8R0</title>
<polygon fill="#a6cee3" stroke="black" points="875,-508 837.13,-490 875,-472 912.87,-490 875,-508"/>
<text text-anchor="middle" x="875" y="-486.3" font-family="Courier,monospace" font-size="14.00">Acc</text>
</g>
<!-- 8&#45;&gt;8R0 -->
<g id="edge21" class="edge">
<title>8&#45;&gt;8R0</title>
<path fill="none" stroke="black" d="M875,-605.4C875,-580.65 875,-543.61 875,-518.43"/>
<polygon fill="black" stroke="black" points="878.5,-518.11 875,-508.11 871.5,-518.11 878.5,-518.11"/>
</g>
<!-- 9&#45;&gt;1 -->
<g id="edge22" class="edge">
<title>9&#45;&gt;1</title>
<path fill="none" stroke="black" d="M135.21,-432.93C126.51,-417.12 118.5,-399.46 114,-382 91.29,-293.78 102.17,-263.36 134,-178 139.49,-163.28 148.07,-148.42 156.53,-135.73"/>
<polygon fill="black" stroke="black" points="159.54,-137.54 162.33,-127.32 153.77,-133.56 159.54,-137.54"/>
<text text-anchor="middle" x="116.5" y="-283.8" font-family="Courier,monospace" font-size="14.00">NUM</text>
</g>
<!-- 9&#45;&gt;2 -->
<g id="edge23" class="edge">
<title>9&#45;&gt;2</title>
<path fill="none" stroke="black" d="M188.96,-547.05C200.8,-583.16 219.18,-630.09 244,-667 261.44,-692.95 286.34,-715.36 311.61,-733.64"/>
<polygon fill="black" stroke="black" points="309.62,-736.52 319.81,-739.42 313.66,-730.8 309.62,-736.52"/>
<text text-anchor="middle" x="261" y="-628.8" font-family="Courier,monospace" font-size="14.00">LPAR</text>
</g>
<!-- 9&#45;&gt;6 -->
<g id="edge25" class="edge">
<title>9&#45;&gt;6</title>
<path fill="none" stroke="black" stroke-dasharray="5,2" d="M173,-432.66C173,-416.57 173,-399.46 173,-384.9"/>
<polygon fill="black" stroke="black" points="176.5,-384.8 173,-374.8 169.5,-384.8 176.5,-384.8"/>
<text text-anchor="middle" x="177.5" y="-403.8" font-family="Courier,monospace" font-size="14.00">F</text>
</g>
<!-- 12 -->
<g id="node18" class="node">
<title>12</title>
<polygon fill="none" stroke="black" points="399.5,-382 250.5,-382 250.5,-313 399.5,-313 399.5,-382"/>
<text text-anchor="middle" x="325" y="-366.8" font-family="Courier,monospace" font-size="14.00">State 12</text>
<text text-anchor="start" x="258.5" y="-335.8" font-family="Courier,monospace" font-size="14.00"> &#160;2 E: E ADD T •</text>
<text text-anchor="start" x="258.5" y="-320.8" font-family="Courier,monospace" font-size="14.00"> &#160;4 T: T • MUL F</text>
</g>
<!-- 9&#45;&gt;12 -->
<g id="edge24" class="edge">
<title>9&#45;&gt;12</title>
<path fill="none" stroke="black" stroke-dasharray="5,2" d="M233.95,-432.66C249.7,-418.1 266.36,-402.71 281.05,-389.12"/>
<polygon fill="black" stroke="black" points="283.58,-391.56 288.54,-382.2 278.82,-386.42 283.58,-391.56"/>
<text text-anchor="middle" x="272.5" y="-403.8" font-family="Courier,monospace" font-size="14.00">T</text>
</g>
<!-- 10&#45;&gt;1 -->
<g id="edge26" class="edge">
<title>10&#45;&gt;1</title>
<path fill="none" stroke="black" d="M523.91,-194.12C442.46,-171.87 324.91,-139.76 251.29,-119.65"/>
<polygon fill="black" stroke="black" points="251.77,-116.16 241.2,-116.9 249.93,-122.91 251.77,-116.16"/>
<text text-anchor="middle" x="411.5" y="-148.8" font-family="Courier,monospace" font-size="14.00">NUM</text>
</g>
<!-- 10&#45;&gt;2 -->
<g id="edge27" class="edge">
<title>10&#45;&gt;2</title>
<path fill="none" stroke="black" d="M623.92,-262.27C645.97,-366.27 699.72,-633.2 678,-667 658.54,-697.29 579.22,-731.31 512.05,-755.72"/>
<polygon fill="black" stroke="black" points="510.46,-752.57 502.23,-759.25 512.83,-759.16 510.46,-752.57"/>
<text text-anchor="middle" x="693" y="-486.3" font-family="Courier,monospace" font-size="14.00">LPAR</text>
</g>
<!-- 13 -->
<g id="node19" class="node">
<title>13</title>
<polygon fill="none" stroke="black" points="842.5,-127 693.5,-127 693.5,-73 842.5,-73 842.5,-127"/>
<text text-anchor="middle" x="768" y="-111.8" font-family="Courier,monospace" font-size="14.00">State 13</text>
<text text-anchor="start" x="701.5" y="-80.8" font-family="Courier,monospace" font-size="14.00"> &#160;4 T: T MUL F •</text>
</g>
<!-- 10&#45;&gt;13 -->
<g id="edge28" class="edge">
<title>10&#45;&gt;13</title>
<path fill="none" stroke="black" stroke-dasharray="5,2" d="M668.51,-177.73C687.17,-163.34 707.85,-147.39 725.49,-133.78"/>
<polygon fill="black" stroke="black" points="728.11,-136.19 733.89,-127.31 723.83,-130.64 728.11,-136.19"/>
<text text-anchor="middle" x="714.5" y="-148.8" font-family="Courier,monospace" font-size="14.00">F</text>
</g>
<!-- 11R6 -->
<g id="node20" class="node">
<title>11R6</title>
<polygon fill="#b2df8a" stroke="black" points="448,-365.5 417.83,-347.5 448,-329.5 478.17,-347.5 448,-365.5"/>
<text text-anchor="middle" x="448" y="-343.8" font-family="Courier,monospace" font-size="14.00">R6</text>
</g>
<!-- 11&#45;&gt;11R6 -->
<g id="edge29" class="edge">
<title>11&#45;&gt;11R6</title>
<path fill="none" stroke="black" d="M421.94,-462.9C427.76,-437.35 436.57,-398.69 442.3,-373.51"/>
<polygon fill="black" stroke="black" points="445.75,-374.16 444.55,-363.63 438.92,-372.6 445.75,-374.16"/>
</g>
<!-- 12&#45;&gt;10 -->
<g id="edge30" class="edge">
<title>12&#45;&gt;10</title>
<path fill="none" stroke="black" d="M399.68,-314.18C434.57,-299.08 476.62,-280.88 514.27,-264.59"/>
<polygon fill="black" stroke="black" points="515.95,-267.68 523.74,-260.49 513.17,-261.25 515.95,-267.68"/>
<text text-anchor="middle" x="482.5" y="-283.8" font-family="Courier,monospace" font-size="14.00">MUL</text>
</g>
<!-- 12R2 -->
<g id="node21" class="node">
<title>12R2</title>
<polygon fill="#b2df8a" stroke="black" points="325,-238 294.83,-220 325,-202 355.17,-220 325,-238"/>
<text text-anchor="middle" x="325" y="-216.3" font-family="Courier,monospace" font-size="14.00">R2</text>
</g>
<!-- 12&#45;&gt;12R2 -->
<g id="edge31" class="edge">
<title>12&#45;&gt;12R2</title>
<path fill="none" stroke="black" d="M325,-312.87C325,-292.62 325,-267.18 325,-248.21"/>
<polygon fill="black" stroke="black" points="328.5,-248.14 325,-238.14 321.5,-248.14 328.5,-248.14"/>
</g>
<!-- 13R4 -->
<g id="node22" class="node">
<title>13R4</title>
<polygon fill="#b2df8a" stroke="black" points="768,-36 737.83,-18 768,0 798.17,-18 768,-36"/>
<text text-anchor="middle" x="768" y="-14.3" font-family="Courier,monospace" font-size="14.00">R4</text>
</g>
<!-- 13&#45;&gt;13R4 -->
<g id="edge32" class="edge">
<title>13&#45;&gt;13R4</title>
<path fill="none" stroke="black" d="M768,-72.81C768,-64.35 768,-54.95 768,-46.4"/>
<polygon fill="black" stroke="black" points="771.5,-46.17 768,-36.17 764.5,-46.17 771.5,-46.17"/>
</g>
</g>
</svg>
