<?xml version="1.0" encoding="UTF-8" standalone="no"?>
<!DOCTYPE svg PUBLIC "-//W3C//DTD SVG 1.1//EN"
 "http://www.w3.org/Graphics/SVG/1.1/DTD/svg11.dtd">
<!-- Generated by graphviz version 2.43.0 (0)
 -->
<!-- Title: lec13ex3.y Pages: 1 -->
<svg width="770pt" height="570pt"
 viewBox="0.00 0.00 770.00 570.00" xmlns="http://www.w3.org/2000/svg" xmlns:xlink="http://www.w3.org/1999/xlink">
<g id="graph0" class="graph" transform="scale(1 1) rotate(0) translate(4 566)">
<title>lec13ex3.y</title>
<polygon fill="white" stroke="transparent" points="-4,4 -4,-566 766,-566 766,4 -4,4"/>
<!-- 0 -->
<g id="node1" class="node">
<title>0</title>
<polygon fill="none" stroke="black" points="396.5,-562 173.5,-562 173.5,-448 396.5,-448 396.5,-562"/>
<text text-anchor="middle" x="285" y="-546.8" font-family="Courier,monospace" font-size="14.00">State 0</text>
<text text-anchor="start" x="181.5" y="-515.8" font-family="Courier,monospace" font-size="14.00"> &#160;0 $accept: • Start $end</text>
<text text-anchor="start" x="181.5" y="-500.8" font-family="Courier,monospace" font-size="14.00"> &#160;1 Start: • S</text>
<text text-anchor="start" x="181.5" y="-485.8" font-family="Courier,monospace" font-size="14.00"> &#160;2 S: • C C</text>
<text text-anchor="start" x="181.5" y="-470.8" font-family="Courier,monospace" font-size="14.00"> &#160;3 C: • &#39;c&#39; C</text>
<text text-anchor="start" x="181.5" y="-455.8" font-family="Courier,monospace" font-size="14.00"> &#160;4 &#160;| • &#39;d&#39;</text>
</g>
<!-- 1 -->
<g id="node2" class="node">
<title>1</title>
<polygon fill="none" stroke="black" points="249,-262 117,-262 117,-178 249,-178 249,-262"/>
<text text-anchor="middle" x="183" y="-246.8" font-family="Courier,monospace" font-size="14.00">State 1</text>
<text text-anchor="start" x="125" y="-215.8" font-family="Courier,monospace" font-size="14.00"> &#160;3 C: • &#39;c&#39; C</text>
<text text-anchor="start" x="125" y="-200.8" font-family="Courier,monospace" font-size="14.00"> &#160;3 &#160;| &#39;c&#39; • C</text>
<text text-anchor="start" x="125" y="-185.8" font-family="Courier,monospace" font-size="14.00"> &#160;4 &#160;| • &#39;d&#39;</text>
</g>
<!-- 0&#45;&gt;1 -->
<g id="edge1" class="edge">
<title>0&#45;&gt;1</title>
<path fill="none" stroke="black" d="M294.65,-447.61C299.91,-399.79 300.3,-331.02 271,-280 267.22,-273.42 262.38,-267.43 256.9,-262.01"/>
<polygon fill="black" stroke="black" points="258.87,-259.07 249.1,-254.97 254.18,-264.26 258.87,-259.07"/>
<text text-anchor="middle" x="310.5" y="-351.3" font-family="Courier,monospace" font-size="14.00">&#39;c&#39;</text>
</g>
<!-- 2 -->
<g id="node3" class="node">
<title>2</title>
<polygon fill="none" stroke="black" points="116,-127 0,-127 0,-73 116,-73 116,-127"/>
<text text-anchor="middle" x="58" y="-111.8" font-family="Courier,monospace" font-size="14.00">State 2</text>
<text text-anchor="start" x="8" y="-80.8" font-family="Courier,monospace" font-size="14.00"> &#160;4 C: &#39;d&#39; •</text>
</g>
<!-- 0&#45;&gt;2 -->
<g id="edge2" class="edge">
<title>0&#45;&gt;2</title>
<path fill="none" stroke="black" d="M173.13,-451.4C149.36,-436.37 126.03,-418.2 108,-397 44.78,-322.65 47.3,-198.69 53.2,-137.48"/>
<polygon fill="black" stroke="black" points="56.73,-137.47 54.29,-127.16 49.76,-136.74 56.73,-137.47"/>
<text text-anchor="middle" x="73.5" y="-283.8" font-family="Courier,monospace" font-size="14.00">&#39;d&#39;</text>
</g>
<!-- 3 -->
<g id="node4" class="node">
<title>3</title>
<polygon fill="none" stroke="black" points="571.5,-382 348.5,-382 348.5,-328 571.5,-328 571.5,-382"/>
<text text-anchor="middle" x="460" y="-366.8" font-family="Courier,monospace" font-size="14.00">State 3</text>
<text text-anchor="start" x="356.5" y="-335.8" font-family="Courier,monospace" font-size="14.00"> &#160;0 $accept: Start • $end</text>
</g>
<!-- 0&#45;&gt;3 -->
<g id="edge3" class="edge">
<title>0&#45;&gt;3</title>
<path fill="none" stroke="black" stroke-dasharray="5,2" d="M351.66,-447.63C375.19,-427.72 400.87,-406.01 421.31,-388.72"/>
<polygon fill="black" stroke="black" points="423.78,-391.21 429.16,-382.08 419.26,-385.87 423.78,-391.21"/>
<text text-anchor="middle" x="410" y="-418.8" font-family="Courier,monospace" font-size="14.00">Start</text>
</g>
<!-- 4 -->
<g id="node5" class="node">
<title>4</title>
<polygon fill="none" stroke="black" points="762,-382 630,-382 630,-328 762,-328 762,-382"/>
<text text-anchor="middle" x="696" y="-366.8" font-family="Courier,monospace" font-size="14.00">State 4</text>
<text text-anchor="start" x="638" y="-335.8" font-family="Courier,monospace" font-size="14.00"> &#160;1 Start: S •</text>
</g>
<!-- 0&#45;&gt;4 -->
<g id="edge4" class="edge">
<title>0&#45;&gt;4</title>
<path fill="none" stroke="black" stroke-dasharray="5,2" d="M396.76,-463.75C467.76,-438.19 557.75,-405.78 620.42,-383.22"/>
<polygon fill="black" stroke="black" points="621.62,-386.5 629.85,-379.82 619.25,-379.92 621.62,-386.5"/>
<text text-anchor="middle" x="532.5" y="-418.8" font-family="Courier,monospace" font-size="14.00">S</text>
</g>
<!-- 5 -->
<g id="node6" class="node">
<title>5</title>
<polygon fill="none" stroke="black" points="249,-397 117,-397 117,-313 249,-313 249,-397"/>
<text text-anchor="middle" x="183" y="-381.8" font-family="Courier,monospace" font-size="14.00">State 5</text>
<text text-anchor="start" x="125" y="-350.8" font-family="Courier,monospace" font-size="14.00"> &#160;2 S: C • C</text>
<text text-anchor="start" x="125" y="-335.8" font-family="Courier,monospace" font-size="14.00"> &#160;3 C: • &#39;c&#39; C</text>
<text text-anchor="start" x="125" y="-320.8" font-family="Courier,monospace" font-size="14.00"> &#160;4 &#160;| • &#39;d&#39;</text>
</g>
<!-- 0&#45;&gt;5 -->
<g id="edge5" class="edge">
<title>0&#45;&gt;5</title>
<path fill="none" stroke="black" stroke-dasharray="5,2" d="M246.15,-447.63C236.54,-433.69 226.33,-418.87 216.98,-405.3"/>
<polygon fill="black" stroke="black" points="219.83,-403.28 211.28,-397.03 214.07,-407.25 219.83,-403.28"/>
<text text-anchor="middle" x="238.5" y="-418.8" font-family="Courier,monospace" font-size="14.00">C</text>
</g>
<!-- 1&#45;&gt;1 -->
<g id="edge6" class="edge">
<title>1&#45;&gt;1</title>
<path fill="none" stroke="black" d="M249.2,-231.4C259.77,-229.73 267,-225.93 267,-220 267,-216.2 264.03,-213.28 259.12,-211.23"/>
<polygon fill="black" stroke="black" points="259.76,-207.78 249.2,-208.6 257.97,-214.54 259.76,-207.78"/>
<text text-anchor="middle" x="279.5" y="-216.3" font-family="Courier,monospace" font-size="14.00">&#39;c&#39;</text>
</g>
<!-- 1&#45;&gt;2 -->
<g id="edge7" class="edge">
<title>1&#45;&gt;2</title>
<path fill="none" stroke="black" d="M139.28,-177.73C124.31,-163.6 107.76,-147.97 93.52,-134.53"/>
<polygon fill="black" stroke="black" points="95.54,-131.63 85.87,-127.31 90.74,-136.72 95.54,-131.63"/>
<text text-anchor="middle" x="133.5" y="-148.8" font-family="Courier,monospace" font-size="14.00">&#39;d&#39;</text>
</g>
<!-- 6 -->
<g id="node7" class="node">
<title>6</title>
<polygon fill="none" stroke="black" points="266,-127 134,-127 134,-73 266,-73 266,-127"/>
<text text-anchor="middle" x="200" y="-111.8" font-family="Courier,monospace" font-size="14.00">State 6</text>
<text text-anchor="start" x="142" y="-80.8" font-family="Courier,monospace" font-size="14.00"> &#160;3 C: &#39;c&#39; C •</text>
</g>
<!-- 1&#45;&gt;6 -->
<g id="edge8" class="edge">
<title>1&#45;&gt;6</title>
<path fill="none" stroke="black" stroke-dasharray="5,2" d="M188.95,-177.73C190.83,-164.64 192.9,-150.28 194.73,-137.55"/>
<polygon fill="black" stroke="black" points="198.25,-137.7 196.21,-127.31 191.32,-136.71 198.25,-137.7"/>
<text text-anchor="middle" x="198.5" y="-148.8" font-family="Courier,monospace" font-size="14.00">C</text>
</g>
<!-- 2R4 -->
<g id="node8" class="node">
<title>2R4</title>
<polygon fill="#b2df8a" stroke="black" points="58,-36 27.83,-18 58,0 88.17,-18 58,-36"/>
<text text-anchor="middle" x="58" y="-14.3" font-family="Courier,monospace" font-size="14.00">R4</text>
</g>
<!-- 2&#45;&gt;2R4 -->
<g id="edge9" class="edge">
<title>2&#45;&gt;2R4</title>
<path fill="none" stroke="black" d="M58,-72.81C58,-64.35 58,-54.95 58,-46.4"/>
<polygon fill="black" stroke="black" points="61.5,-46.17 58,-36.17 54.5,-46.17 61.5,-46.17"/>
</g>
<!-- 7 -->
<g id="node9" class="node">
<title>7</title>
<polygon fill="none" stroke="black" points="667.5,-247 444.5,-247 444.5,-193 667.5,-193 667.5,-247"/>
<text text-anchor="middle" x="556" y="-231.8" font-family="Courier,monospace" font-size="14.00">State 7</text>
<text text-anchor="start" x="452.5" y="-200.8" font-family="Courier,monospace" font-size="14.00"> &#160;0 $accept: Start $end •</text>
</g>
<!-- 3&#45;&gt;7 -->
<g id="edge10" class="edge">
<title>3&#45;&gt;7</title>
<path fill="none" stroke="black" d="M478.97,-327.72C493.89,-307.05 514.81,-278.06 531.09,-255.52"/>
<polygon fill="black" stroke="black" points="534.06,-257.38 537.07,-247.22 528.38,-253.28 534.06,-257.38"/>
<text text-anchor="middle" x="528" y="-283.8" font-family="Courier,monospace" font-size="14.00">$end</text>
</g>
<!-- 4R1 -->
<g id="node10" class="node">
<title>4R1</title>
<polygon fill="#b2df8a" stroke="black" points="716,-238 685.83,-220 716,-202 746.17,-220 716,-238"/>
<text text-anchor="middle" x="716" y="-216.3" font-family="Courier,monospace" font-size="14.00">R1</text>
</g>
<!-- 4&#45;&gt;4R1 -->
<g id="edge11" class="edge">
<title>4&#45;&gt;4R1</title>
<path fill="none" stroke="black" d="M699.95,-327.72C703.47,-304.33 708.59,-270.29 712.09,-246.98"/>
<polygon fill="black" stroke="black" points="715.6,-247.21 713.62,-236.8 708.68,-246.17 715.6,-247.21"/>
</g>
<!-- 5&#45;&gt;1 -->
<g id="edge12" class="edge">
<title>5&#45;&gt;1</title>
<path fill="none" stroke="black" d="M183,-312.65C183,-299.89 183,-285.68 183,-272.33"/>
<polygon fill="black" stroke="black" points="186.5,-272.33 183,-262.33 179.5,-272.33 186.5,-272.33"/>
<text text-anchor="middle" x="195.5" y="-283.8" font-family="Courier,monospace" font-size="14.00">&#39;c&#39;</text>
</g>
<!-- 5&#45;&gt;2 -->
<g id="edge13" class="edge">
<title>5&#45;&gt;2</title>
<path fill="none" stroke="black" d="M125.31,-312.91C109.19,-298.6 93.28,-281.25 83,-262 62.2,-223.05 57.47,-171.74 56.95,-137.62"/>
<polygon fill="black" stroke="black" points="60.45,-137.17 56.91,-127.19 53.45,-137.2 60.45,-137.17"/>
<text text-anchor="middle" x="95.5" y="-216.3" font-family="Courier,monospace" font-size="14.00">&#39;d&#39;</text>
</g>
<!-- 8 -->
<g id="node11" class="node">
<title>8</title>
<polygon fill="none" stroke="black" points="426,-247 310,-247 310,-193 426,-193 426,-247"/>
<text text-anchor="middle" x="368" y="-231.8" font-family="Courier,monospace" font-size="14.00">State 8</text>
<text text-anchor="start" x="318" y="-200.8" font-family="Courier,monospace" font-size="14.00"> &#160;2 S: C C •</text>
</g>
<!-- 5&#45;&gt;8 -->
<g id="edge14" class="edge">
<title>5&#45;&gt;8</title>
<path fill="none" stroke="black" stroke-dasharray="5,2" d="M240.27,-312.83C267.06,-293.57 298.49,-270.98 323.46,-253.02"/>
<polygon fill="black" stroke="black" points="325.59,-255.8 331.67,-247.12 321.51,-250.11 325.59,-255.8"/>
<text text-anchor="middle" x="286.5" y="-283.8" font-family="Courier,monospace" font-size="14.00">C</text>
</g>
<!-- 6R3 -->
<g id="node12" class="node">
<title>6R3</title>
<polygon fill="#b2df8a" stroke="black" points="200,-36 169.83,-18 200,0 230.17,-18 200,-36"/>
<text text-anchor="middle" x="200" y="-14.3" font-family="Courier,monospace" font-size="14.00">R3</text>
</g>
<!-- 6&#45;&gt;6R3 -->
<g id="edge15" class="edge">
<title>6&#45;&gt;6R3</title>
<path fill="none" stroke="black" d="M200,-72.81C200,-64.35 200,-54.95 200,-46.4"/>
<polygon fill="black" stroke="black" points="203.5,-46.17 200,-36.17 196.5,-46.17 203.5,-46.17"/>
</g>
<!-- 7R0 -->
<g id="node13" class="node">
<title>7R0</title>
<polygon fill="#a6cee3" stroke="black" points="556,-118 518.13,-100 556,-82 593.87,-100 556,-118"/>
<text text-anchor="middle" x="556" y="-96.3" font-family="Courier,monospace" font-size="14.00">Acc</text>
</g>
<!-- 7&#45;&gt;7R0 -->
<g id="edge16" class="edge">
<title>7&#45;&gt;7R0</title>
<path fill="none" stroke="black" d="M556,-192.81C556,-173.56 556,-147.48 556,-128.04"/>
<polygon fill="black" stroke="black" points="559.5,-128 556,-118 552.5,-128 559.5,-128"/>
</g>
<!-- 8R2 -->
<g id="node14" class="node">
<title>8R2</title>
<polygon fill="#b2df8a" stroke="black" points="368,-118 337.83,-100 368,-82 398.17,-100 368,-118"/>
<text text-anchor="middle" x="368" y="-96.3" font-family="Courier,monospace" font-size="14.00">R2</text>
</g>
<!-- 8&#45;&gt;8R2 -->
<g id="edge17" class="edge">
<title>8&#45;&gt;8R2</title>
<path fill="none" stroke="black" d="M368,-192.81C368,-173.56 368,-147.48 368,-128.04"/>
<polygon fill="black" stroke="black" points="371.5,-128 368,-118 364.5,-128 371.5,-128"/>
</g>
</g>
</svg>
