<?xml version="1.0" encoding="UTF-8" standalone="no"?>
<!DOCTYPE svg PUBLIC "-//W3C//DTD SVG 1.1//EN"
 "http://www.w3.org/Graphics/SVG/1.1/DTD/svg11.dtd">
<!-- Generated by graphviz version 2.43.0 (0)
 -->
<!-- Title: lec13ex2.y Pages: 1 -->
<svg width="786pt" height="750pt"
 viewBox="0.00 0.00 786.00 750.00" xmlns="http://www.w3.org/2000/svg" xmlns:xlink="http://www.w3.org/1999/xlink">
<g id="graph0" class="graph" transform="scale(1 1) rotate(0) translate(4 746)">
<title>lec13ex2.y</title>
<polygon fill="white" stroke="transparent" points="-4,4 -4,-746 782,-746 782,4 -4,4"/>
<!-- 0 -->
<g id="node1" class="node">
<title>0</title>
<polygon fill="none" stroke="black" points="365,-742 142,-742 142,-598 365,-598 365,-742"/>
<text text-anchor="middle" x="253.5" y="-726.8" font-family="Courier,monospace" font-size="14.00">State 0</text>
<text text-anchor="start" x="150" y="-695.8" font-family="Courier,monospace" font-size="14.00"> &#160;0 $accept: • Start $end</text>
<text text-anchor="start" x="150" y="-680.8" font-family="Courier,monospace" font-size="14.00"> &#160;1 Start: • S</text>
<text text-anchor="start" x="150" y="-665.8" font-family="Courier,monospace" font-size="14.00"> &#160;2 S: • L &#39;=&#39; R</text>
<text text-anchor="start" x="150" y="-650.8" font-family="Courier,monospace" font-size="14.00"> &#160;3 &#160;| • R</text>
<text text-anchor="start" x="150" y="-635.8" font-family="Courier,monospace" font-size="14.00"> &#160;4 L: • &#39;*&#39; R</text>
<text text-anchor="start" x="150" y="-620.8" font-family="Courier,monospace" font-size="14.00"> &#160;5 &#160;| • ID</text>
<text text-anchor="start" x="150" y="-605.8" font-family="Courier,monospace" font-size="14.00"> &#160;6 R: • L</text>
</g>
<!-- 1 -->
<g id="node2" class="node">
<title>1</title>
<polygon fill="none" stroke="black" points="107,-127 0,-127 0,-73 107,-73 107,-127"/>
<text text-anchor="middle" x="53.5" y="-111.8" font-family="Courier,monospace" font-size="14.00">State 1</text>
<text text-anchor="start" x="8" y="-80.8" font-family="Courier,monospace" font-size="14.00"> &#160;5 L: ID •</text>
</g>
<!-- 0&#45;&gt;1 -->
<g id="edge1" class="edge">
<title>0&#45;&gt;1</title>
<path fill="none" stroke="black" d="M142,-637.93C84.59,-614.43 26.5,-575.36 26.5,-513.5 26.5,-513.5 26.5,-513.5 26.5,-226.5 26.5,-195.75 34.34,-161.68 41.58,-136.81"/>
<polygon fill="black" stroke="black" points="44.97,-137.68 44.51,-127.09 38.27,-135.65 44.97,-137.68"/>
<text text-anchor="middle" x="35" y="-373.8" font-family="Courier,monospace" font-size="14.00">ID</text>
</g>
<!-- 2 -->
<g id="node3" class="node">
<title>2</title>
<polygon fill="none" stroke="black" points="251.5,-277 119.5,-277 119.5,-178 251.5,-178 251.5,-277"/>
<text text-anchor="middle" x="185.5" y="-261.8" font-family="Courier,monospace" font-size="14.00">State 2</text>
<text text-anchor="start" x="127.5" y="-230.8" font-family="Courier,monospace" font-size="14.00"> &#160;4 L: • &#39;*&#39; R</text>
<text text-anchor="start" x="127.5" y="-215.8" font-family="Courier,monospace" font-size="14.00"> &#160;4 &#160;| &#39;*&#39; • R</text>
<text text-anchor="start" x="127.5" y="-200.8" font-family="Courier,monospace" font-size="14.00"> &#160;5 &#160;| • ID</text>
<text text-anchor="start" x="127.5" y="-185.8" font-family="Courier,monospace" font-size="14.00"> &#160;6 R: • L</text>
</g>
<!-- 0&#45;&gt;2 -->
<g id="edge2" class="edge">
<title>0&#45;&gt;2</title>
<path fill="none" stroke="black" d="M151.28,-597.78C135.52,-582.68 121.02,-565.6 110.5,-547 62.38,-461.93 54.14,-418.73 90.5,-328 96.81,-312.25 106.94,-297.57 118.28,-284.59"/>
<polygon fill="black" stroke="black" points="120.91,-286.9 125.07,-277.15 115.75,-282.18 120.91,-286.9"/>
<text text-anchor="middle" x="85" y="-448.8" font-family="Courier,monospace" font-size="14.00">&#39;*&#39;</text>
</g>
<!-- 3 -->
<g id="node4" class="node">
<title>3</title>
<polygon fill="none" stroke="black" points="510,-539.5 287,-539.5 287,-485.5 510,-485.5 510,-539.5"/>
<text text-anchor="middle" x="398.5" y="-524.3" font-family="Courier,monospace" font-size="14.00">State 3</text>
<text text-anchor="start" x="295" y="-493.3" font-family="Courier,monospace" font-size="14.00"> &#160;0 $accept: Start • $end</text>
</g>
<!-- 0&#45;&gt;3 -->
<g id="edge3" class="edge">
<title>0&#45;&gt;3</title>
<path fill="none" stroke="black" stroke-dasharray="5,2" d="M320.06,-597.62C336.42,-580.08 353.18,-562.1 366.99,-547.3"/>
<polygon fill="black" stroke="black" points="369.66,-549.56 373.92,-539.86 364.54,-544.79 369.66,-549.56"/>
<text text-anchor="middle" x="368.5" y="-568.8" font-family="Courier,monospace" font-size="14.00">Start</text>
</g>
<!-- 4 -->
<g id="node5" class="node">
<title>4</title>
<polygon fill="none" stroke="black" points="660.5,-539.5 528.5,-539.5 528.5,-485.5 660.5,-485.5 660.5,-539.5"/>
<text text-anchor="middle" x="594.5" y="-524.3" font-family="Courier,monospace" font-size="14.00">State 4</text>
<text text-anchor="start" x="536.5" y="-493.3" font-family="Courier,monospace" font-size="14.00"> &#160;1 Start: S •</text>
</g>
<!-- 0&#45;&gt;4 -->
<g id="edge4" class="edge">
<title>0&#45;&gt;4</title>
<path fill="none" stroke="black" stroke-dasharray="5,2" d="M365.16,-618.08C418.94,-593.56 481.64,-564.97 527.87,-543.88"/>
<polygon fill="black" stroke="black" points="529.54,-546.97 537.18,-539.64 526.63,-540.6 529.54,-546.97"/>
<text text-anchor="middle" x="479" y="-568.8" font-family="Courier,monospace" font-size="14.00">S</text>
</g>
<!-- 5 -->
<g id="node6" class="node">
<title>5</title>
<polygon fill="none" stroke="black" points="269,-547 120,-547 120,-478 269,-478 269,-547"/>
<text text-anchor="middle" x="194.5" y="-531.8" font-family="Courier,monospace" font-size="14.00">State 5</text>
<text text-anchor="start" x="128" y="-500.8" font-family="Courier,monospace" font-size="14.00"> &#160;2 S: L • &#39;=&#39; R</text>
<text text-anchor="start" x="128" y="-485.8" font-family="Courier,monospace" font-size="14.00"> &#160;6 R: L •</text>
</g>
<!-- 0&#45;&gt;5 -->
<g id="edge5" class="edge">
<title>0&#45;&gt;5</title>
<path fill="none" stroke="black" stroke-dasharray="5,2" d="M226.42,-597.62C221.11,-583.62 215.69,-569.35 210.86,-556.63"/>
<polygon fill="black" stroke="black" points="214.12,-555.34 207.3,-547.24 207.57,-557.83 214.12,-555.34"/>
<text text-anchor="middle" x="224" y="-568.8" font-family="Courier,monospace" font-size="14.00">L</text>
</g>
<!-- 6 -->
<g id="node7" class="node">
<title>6</title>
<polygon fill="none" stroke="black" points="778,-539.5 679,-539.5 679,-485.5 778,-485.5 778,-539.5"/>
<text text-anchor="middle" x="728.5" y="-524.3" font-family="Courier,monospace" font-size="14.00">State 6</text>
<text text-anchor="start" x="687" y="-493.3" font-family="Courier,monospace" font-size="14.00"> &#160;3 S: R •</text>
</g>
<!-- 0&#45;&gt;6 -->
<g id="edge6" class="edge">
<title>0&#45;&gt;6</title>
<path fill="none" stroke="black" stroke-dasharray="5,2" d="M365.4,-643.66C450.56,-622.6 569.71,-589.29 669.5,-547 671.61,-546.1 673.75,-545.15 675.89,-544.15"/>
<polygon fill="black" stroke="black" points="677.83,-547.1 685.25,-539.54 674.74,-540.82 677.83,-547.1"/>
<text text-anchor="middle" x="620" y="-568.8" font-family="Courier,monospace" font-size="14.00">R</text>
</g>
<!-- 1R5 -->
<g id="node8" class="node">
<title>1R5</title>
<polygon fill="#b2df8a" stroke="black" points="53.5,-36 23.33,-18 53.5,0 83.67,-18 53.5,-36"/>
<text text-anchor="middle" x="53.5" y="-14.3" font-family="Courier,monospace" font-size="14.00">R5</text>
</g>
<!-- 1&#45;&gt;1R5 -->
<g id="edge7" class="edge">
<title>1&#45;&gt;1R5</title>
<path fill="none" stroke="black" d="M53.5,-72.81C53.5,-64.35 53.5,-54.95 53.5,-46.4"/>
<polygon fill="black" stroke="black" points="57,-46.17 53.5,-36.17 50,-46.17 57,-46.17"/>
</g>
<!-- 2&#45;&gt;1 -->
<g id="edge8" class="edge">
<title>2&#45;&gt;1</title>
<path fill="none" stroke="black" d="M134.47,-177.98C119.16,-163.43 102.73,-147.8 88.69,-134.45"/>
<polygon fill="black" stroke="black" points="90.82,-131.65 81.16,-127.3 85.99,-136.72 90.82,-131.65"/>
<text text-anchor="middle" x="125" y="-148.8" font-family="Courier,monospace" font-size="14.00">ID</text>
</g>
<!-- 2&#45;&gt;2 -->
<g id="edge9" class="edge">
<title>2&#45;&gt;2</title>
<path fill="none" stroke="black" d="M251.7,-240.28C262.27,-238.41 269.5,-234.15 269.5,-227.5 269.5,-223.24 266.53,-219.96 261.62,-217.66"/>
<polygon fill="black" stroke="black" points="262.28,-214.21 251.7,-214.72 260.29,-220.92 262.28,-214.21"/>
<text text-anchor="middle" x="282" y="-223.8" font-family="Courier,monospace" font-size="14.00">&#39;*&#39;</text>
</g>
<!-- 7 -->
<g id="node9" class="node">
<title>7</title>
<polygon fill="none" stroke="black" points="377,-127 278,-127 278,-73 377,-73 377,-127"/>
<text text-anchor="middle" x="327.5" y="-111.8" font-family="Courier,monospace" font-size="14.00">State 7</text>
<text text-anchor="start" x="286" y="-80.8" font-family="Courier,monospace" font-size="14.00"> &#160;6 R: L •</text>
</g>
<!-- 2&#45;&gt;7 -->
<g id="edge10" class="edge">
<title>2&#45;&gt;7</title>
<path fill="none" stroke="black" stroke-dasharray="5,2" d="M240.4,-177.98C257.02,-163.29 274.87,-147.51 290.07,-134.08"/>
<polygon fill="black" stroke="black" points="292.57,-136.54 297.75,-127.3 287.94,-131.3 292.57,-136.54"/>
<text text-anchor="middle" x="283" y="-148.8" font-family="Courier,monospace" font-size="14.00">L</text>
</g>
<!-- 8 -->
<g id="node10" class="node">
<title>8</title>
<polygon fill="none" stroke="black" points="257.5,-127 125.5,-127 125.5,-73 257.5,-73 257.5,-127"/>
<text text-anchor="middle" x="191.5" y="-111.8" font-family="Courier,monospace" font-size="14.00">State 8</text>
<text text-anchor="start" x="133.5" y="-80.8" font-family="Courier,monospace" font-size="14.00"> &#160;4 L: &#39;*&#39; R •</text>
</g>
<!-- 2&#45;&gt;8 -->
<g id="edge11" class="edge">
<title>2&#45;&gt;8</title>
<path fill="none" stroke="black" stroke-dasharray="5,2" d="M187.82,-177.98C188.46,-164.51 189.15,-150.11 189.76,-137.46"/>
<polygon fill="black" stroke="black" points="193.26,-137.45 190.24,-127.3 186.27,-137.12 193.26,-137.45"/>
<text text-anchor="middle" x="194" y="-148.8" font-family="Courier,monospace" font-size="14.00">R</text>
</g>
<!-- 9 -->
<g id="node11" class="node">
<title>9</title>
<polygon fill="none" stroke="black" points="568,-404.5 345,-404.5 345,-350.5 568,-350.5 568,-404.5"/>
<text text-anchor="middle" x="456.5" y="-389.3" font-family="Courier,monospace" font-size="14.00">State 9</text>
<text text-anchor="start" x="353" y="-358.3" font-family="Courier,monospace" font-size="14.00"> &#160;0 $accept: Start $end •</text>
</g>
<!-- 3&#45;&gt;9 -->
<g id="edge12" class="edge">
<title>3&#45;&gt;9</title>
<path fill="none" stroke="black" d="M409.96,-485.22C418.86,-464.82 431.28,-436.33 441.06,-413.91"/>
<polygon fill="black" stroke="black" points="444.28,-415.29 445.06,-404.72 437.86,-412.49 444.28,-415.29"/>
<text text-anchor="middle" x="444.5" y="-448.8" font-family="Courier,monospace" font-size="14.00">$end</text>
</g>
<!-- 4R1 -->
<g id="node12" class="node">
<title>4R1</title>
<polygon fill="#b2df8a" stroke="black" points="616.5,-395.5 586.33,-377.5 616.5,-359.5 646.67,-377.5 616.5,-395.5"/>
<text text-anchor="middle" x="616.5" y="-373.8" font-family="Courier,monospace" font-size="14.00">R1</text>
</g>
<!-- 4&#45;&gt;4R1 -->
<g id="edge13" class="edge">
<title>4&#45;&gt;4R1</title>
<path fill="none" stroke="black" d="M598.85,-485.22C602.72,-461.83 608.35,-427.79 612.2,-404.48"/>
<polygon fill="black" stroke="black" points="615.71,-404.74 613.89,-394.3 608.8,-403.6 615.71,-404.74"/>
</g>
<!-- 10 -->
<g id="node13" class="node">
<title>10</title>
<polygon fill="none" stroke="black" points="327,-427 178,-427 178,-328 327,-328 327,-427"/>
<text text-anchor="middle" x="252.5" y="-411.8" font-family="Courier,monospace" font-size="14.00">State 10</text>
<text text-anchor="start" x="186" y="-380.8" font-family="Courier,monospace" font-size="14.00"> &#160;2 S: L &#39;=&#39; • R</text>
<text text-anchor="start" x="186" y="-365.8" font-family="Courier,monospace" font-size="14.00"> &#160;4 L: • &#39;*&#39; R</text>
<text text-anchor="start" x="186" y="-350.8" font-family="Courier,monospace" font-size="14.00"> &#160;5 &#160;| • ID</text>
<text text-anchor="start" x="186" y="-335.8" font-family="Courier,monospace" font-size="14.00"> &#160;6 R: • L</text>
</g>
<!-- 5&#45;&gt;10 -->
<g id="edge14" class="edge">
<title>5&#45;&gt;10</title>
<path fill="none" stroke="black" d="M209.14,-477.94C214.64,-465.31 221.07,-450.57 227.27,-436.36"/>
<polygon fill="black" stroke="black" points="230.5,-437.69 231.29,-427.13 224.09,-434.89 230.5,-437.69"/>
<text text-anchor="middle" x="236" y="-448.8" font-family="Courier,monospace" font-size="14.00">&#39;=&#39;</text>
</g>
<!-- 5R6 -->
<g id="node14" class="node">
<title>5R6</title>
<polygon fill="#b2df8a" stroke="black" points="129.5,-395.5 99.33,-377.5 129.5,-359.5 159.67,-377.5 129.5,-395.5"/>
<text text-anchor="middle" x="129.5" y="-373.8" font-family="Courier,monospace" font-size="14.00">R6</text>
</g>
<!-- 5&#45;&gt;5R6 -->
<g id="edge15" class="edge">
<title>5&#45;&gt;5R6</title>
<path fill="none" stroke="black" d="M178.1,-477.94C166.34,-453.89 150.83,-422.15 140.53,-401.07"/>
<polygon fill="black" stroke="black" points="143.6,-399.38 136.06,-391.93 137.31,-402.45 143.6,-399.38"/>
</g>
<!-- 6R3 -->
<g id="node15" class="node">
<title>6R3</title>
<polygon fill="#b2df8a" stroke="black" points="728.5,-395.5 698.33,-377.5 728.5,-359.5 758.67,-377.5 728.5,-395.5"/>
<text text-anchor="middle" x="728.5" y="-373.8" font-family="Courier,monospace" font-size="14.00">R3</text>
</g>
<!-- 6&#45;&gt;6R3 -->
<g id="edge16" class="edge">
<title>6&#45;&gt;6R3</title>
<path fill="none" stroke="black" d="M728.5,-485.22C728.5,-462.35 728.5,-429.31 728.5,-406.06"/>
<polygon fill="black" stroke="black" points="732,-405.83 728.5,-395.83 725,-405.83 732,-405.83"/>
</g>
<!-- 7R6 -->
<g id="node16" class="node">
<title>7R6</title>
<polygon fill="#b2df8a" stroke="black" points="327.5,-36 297.33,-18 327.5,0 357.67,-18 327.5,-36"/>
<text text-anchor="middle" x="327.5" y="-14.3" font-family="Courier,monospace" font-size="14.00">R6</text>
</g>
<!-- 7&#45;&gt;7R6 -->
<g id="edge17" class="edge">
<title>7&#45;&gt;7R6</title>
<path fill="none" stroke="black" d="M327.5,-72.81C327.5,-64.35 327.5,-54.95 327.5,-46.4"/>
<polygon fill="black" stroke="black" points="331,-46.17 327.5,-36.17 324,-46.17 331,-46.17"/>
</g>
<!-- 8R4 -->
<g id="node17" class="node">
<title>8R4</title>
<polygon fill="#b2df8a" stroke="black" points="191.5,-36 161.33,-18 191.5,0 221.67,-18 191.5,-36"/>
<text text-anchor="middle" x="191.5" y="-14.3" font-family="Courier,monospace" font-size="14.00">R4</text>
</g>
<!-- 8&#45;&gt;8R4 -->
<g id="edge18" class="edge">
<title>8&#45;&gt;8R4</title>
<path fill="none" stroke="black" d="M191.5,-72.81C191.5,-64.35 191.5,-54.95 191.5,-46.4"/>
<polygon fill="black" stroke="black" points="195,-46.17 191.5,-36.17 188,-46.17 195,-46.17"/>
</g>
<!-- 9R0 -->
<g id="node18" class="node">
<title>9R0</title>
<polygon fill="#a6cee3" stroke="black" points="561.5,-245.5 523.63,-227.5 561.5,-209.5 599.37,-227.5 561.5,-245.5"/>
<text text-anchor="middle" x="561.5" y="-223.8" font-family="Courier,monospace" font-size="14.00">Acc</text>
</g>
<!-- 9&#45;&gt;9R0 -->
<g id="edge19" class="edge">
<title>9&#45;&gt;9R0</title>
<path fill="none" stroke="black" d="M475.03,-350.38C495.34,-321.75 527.54,-276.37 546.39,-249.8"/>
<polygon fill="black" stroke="black" points="549.3,-251.75 552.23,-241.57 543.59,-247.7 549.3,-251.75"/>
</g>
<!-- 10&#45;&gt;1 -->
<g id="edge20" class="edge">
<title>10&#45;&gt;1</title>
<path fill="none" stroke="black" d="M177.97,-333.39C139.59,-310.57 99.56,-285.53 93.5,-277 63.9,-235.32 55.78,-175.27 53.79,-137.21"/>
<polygon fill="black" stroke="black" points="57.28,-136.94 53.37,-127.09 50.28,-137.22 57.28,-136.94"/>
<text text-anchor="middle" x="102" y="-223.8" font-family="Courier,monospace" font-size="14.00">ID</text>
</g>
<!-- 10&#45;&gt;2 -->
<g id="edge21" class="edge">
<title>10&#45;&gt;2</title>
<path fill="none" stroke="black" d="M230.38,-327.63C224.4,-314.43 217.87,-300.01 211.7,-286.37"/>
<polygon fill="black" stroke="black" points="214.8,-284.73 207.49,-277.07 208.42,-287.62 214.8,-284.73"/>
<text text-anchor="middle" x="234" y="-298.8" font-family="Courier,monospace" font-size="14.00">&#39;*&#39;</text>
</g>
<!-- 10&#45;&gt;7 -->
<g id="edge22" class="edge">
<title>10&#45;&gt;7</title>
<path fill="none" stroke="black" stroke-dasharray="5,2" d="M281.61,-327.8C289.88,-312.06 298.09,-294.22 303.5,-277 318.23,-230.14 323.92,-173.46 326.12,-137.32"/>
<polygon fill="black" stroke="black" points="329.62,-137.42 326.67,-127.25 322.63,-137.04 329.62,-137.42"/>
<text text-anchor="middle" x="327" y="-223.8" font-family="Courier,monospace" font-size="14.00">L</text>
</g>
<!-- 11 -->
<g id="node19" class="node">
<title>11</title>
<polygon fill="none" stroke="black" points="506,-254.5 357,-254.5 357,-200.5 506,-200.5 506,-254.5"/>
<text text-anchor="middle" x="431.5" y="-239.3" font-family="Courier,monospace" font-size="14.00">State 11</text>
<text text-anchor="start" x="365" y="-208.3" font-family="Courier,monospace" font-size="14.00"> &#160;2 S: L &#39;=&#39; R •</text>
</g>
<!-- 10&#45;&gt;11 -->
<g id="edge23" class="edge">
<title>10&#45;&gt;11</title>
<path fill="none" stroke="black" stroke-dasharray="5,2" d="M322.04,-327.68C329.73,-321.86 337.35,-315.89 344.5,-310 362.75,-294.95 382.05,-277.1 397.82,-261.94"/>
<polygon fill="black" stroke="black" points="400.51,-264.21 405.26,-254.74 395.64,-259.18 400.51,-264.21"/>
<text text-anchor="middle" x="367" y="-298.8" font-family="Courier,monospace" font-size="14.00">R</text>
</g>
<!-- 11R2 -->
<g id="node20" class="node">
<title>11R2</title>
<polygon fill="#b2df8a" stroke="black" points="431.5,-118 401.33,-100 431.5,-82 461.67,-100 431.5,-118"/>
<text text-anchor="middle" x="431.5" y="-96.3" font-family="Courier,monospace" font-size="14.00">R2</text>
</g>
<!-- 11&#45;&gt;11R2 -->
<g id="edge24" class="edge">
<title>11&#45;&gt;11R2</title>
<path fill="none" stroke="black" d="M431.5,-200.5C431.5,-179.37 431.5,-149.66 431.5,-128.21"/>
<polygon fill="black" stroke="black" points="435,-128.13 431.5,-118.13 428,-128.13 435,-128.13"/>
</g>
</g>
</svg>
