<?xml version="1.0" encoding="UTF-8" standalone="no"?>
<!DOCTYPE svg PUBLIC "-//W3C//DTD SVG 1.1//EN"
 "http://www.w3.org/Graphics/SVG/1.1/DTD/svg11.dtd">
<!-- Generated by graphviz version 2.43.0 (0)
 -->
<!-- Title: lec13ex4.y Pages: 1 -->
<svg width="1275pt" height="585pt"
 viewBox="0.00 0.00 1274.83 585.00" xmlns="http://www.w3.org/2000/svg" xmlns:xlink="http://www.w3.org/1999/xlink">
<g id="graph0" class="graph" transform="scale(1 1) rotate(0) translate(4 581)">
<title>lec13ex4.y</title>
<polygon fill="white" stroke="transparent" points="-4,4 -4,-581 1270.83,-581 1270.83,4 -4,4"/>
<!-- 0 -->
<g id="node1" class="node">
<title>0</title>
<polygon fill="none" stroke="black" points="913,-577 690,-577 690,-448 913,-448 913,-577"/>
<text text-anchor="middle" x="801.5" y="-561.8" font-family="Courier,monospace" font-size="14.00">State 0</text>
<text text-anchor="start" x="698" y="-530.8" font-family="Courier,monospace" font-size="14.00"> &#160;0 $accept: • Start $end</text>
<text text-anchor="start" x="698" y="-515.8" font-family="Courier,monospace" font-size="14.00"> &#160;1 Start: • S</text>
<text text-anchor="start" x="698" y="-500.8" font-family="Courier,monospace" font-size="14.00"> &#160;2 S: • &#39;a&#39; A &#39;d&#39;</text>
<text text-anchor="start" x="698" y="-485.8" font-family="Courier,monospace" font-size="14.00"> &#160;3 &#160;| • &#39;b&#39; B &#39;d&#39;</text>
<text text-anchor="start" x="698" y="-470.8" font-family="Courier,monospace" font-size="14.00"> &#160;4 &#160;| • &#39;a&#39; B &#39;e&#39;</text>
<text text-anchor="start" x="698" y="-455.8" font-family="Courier,monospace" font-size="14.00"> &#160;5 &#160;| • &#39;b&#39; A &#39;e&#39;</text>
</g>
<!-- 1 -->
<g id="node2" class="node">
<title>1</title>
<polygon fill="none" stroke="black" points="408,-397 243,-397 243,-298 408,-298 408,-397"/>
<text text-anchor="middle" x="325.5" y="-381.8" font-family="Courier,monospace" font-size="14.00">State 1</text>
<text text-anchor="start" x="251" y="-350.8" font-family="Courier,monospace" font-size="14.00"> &#160;2 S: &#39;a&#39; • A &#39;d&#39;</text>
<text text-anchor="start" x="251" y="-335.8" font-family="Courier,monospace" font-size="14.00"> &#160;4 &#160;| &#39;a&#39; • B &#39;e&#39;</text>
<text text-anchor="start" x="251" y="-320.8" font-family="Courier,monospace" font-size="14.00"> &#160;6 A: • &#39;c&#39;</text>
<text text-anchor="start" x="251" y="-305.8" font-family="Courier,monospace" font-size="14.00"> &#160;7 B: • &#39;c&#39;</text>
</g>
<!-- 0&#45;&gt;1 -->
<g id="edge1" class="edge">
<title>0&#45;&gt;1</title>
<path fill="none" stroke="black" d="M689.9,-473.28C607.15,-444.95 495.7,-406.78 417.92,-380.15"/>
<polygon fill="black" stroke="black" points="418.72,-376.72 408.13,-376.79 416.46,-383.35 418.72,-376.72"/>
<text text-anchor="middle" x="576" y="-418.8" font-family="Courier,monospace" font-size="14.00">&#39;a&#39;</text>
</g>
<!-- 2 -->
<g id="node3" class="node">
<title>2</title>
<polygon fill="none" stroke="black" points="801,-397 636,-397 636,-298 801,-298 801,-397"/>
<text text-anchor="middle" x="718.5" y="-381.8" font-family="Courier,monospace" font-size="14.00">State 2</text>
<text text-anchor="start" x="644" y="-350.8" font-family="Courier,monospace" font-size="14.00"> &#160;3 S: &#39;b&#39; • B &#39;d&#39;</text>
<text text-anchor="start" x="644" y="-335.8" font-family="Courier,monospace" font-size="14.00"> &#160;5 &#160;| &#39;b&#39; • A &#39;e&#39;</text>
<text text-anchor="start" x="644" y="-320.8" font-family="Courier,monospace" font-size="14.00"> &#160;6 A: • &#39;c&#39;</text>
<text text-anchor="start" x="644" y="-305.8" font-family="Courier,monospace" font-size="14.00"> &#160;7 B: • &#39;c&#39;</text>
</g>
<!-- 0&#45;&gt;2 -->
<g id="edge2" class="edge">
<title>0&#45;&gt;2</title>
<path fill="none" stroke="black" d="M768.93,-447.55C762,-433.92 754.71,-419.61 747.9,-406.24"/>
<polygon fill="black" stroke="black" points="750.93,-404.47 743.27,-397.15 744.69,-407.65 750.93,-404.47"/>
<text text-anchor="middle" x="773" y="-418.8" font-family="Courier,monospace" font-size="14.00">&#39;b&#39;</text>
</g>
<!-- 3 -->
<g id="node4" class="node">
<title>3</title>
<polygon fill="none" stroke="black" points="1061,-374.5 838,-374.5 838,-320.5 1061,-320.5 1061,-374.5"/>
<text text-anchor="middle" x="949.5" y="-359.3" font-family="Courier,monospace" font-size="14.00">State 3</text>
<text text-anchor="start" x="846" y="-328.3" font-family="Courier,monospace" font-size="14.00"> &#160;0 $accept: Start • $end</text>
</g>
<!-- 0&#45;&gt;3 -->
<g id="edge3" class="edge">
<title>0&#45;&gt;3</title>
<path fill="none" stroke="black" stroke-dasharray="5,2" d="M859.57,-447.55C879.78,-425.28 901.66,-401.19 918.78,-382.34"/>
<polygon fill="black" stroke="black" points="921.43,-384.62 925.56,-374.86 916.25,-379.91 921.43,-384.62"/>
<text text-anchor="middle" x="910.5" y="-418.8" font-family="Courier,monospace" font-size="14.00">Start</text>
</g>
<!-- 4 -->
<g id="node5" class="node">
<title>4</title>
<polygon fill="none" stroke="black" points="1260.5,-374.5 1128.5,-374.5 1128.5,-320.5 1260.5,-320.5 1260.5,-374.5"/>
<text text-anchor="middle" x="1194.5" y="-359.3" font-family="Courier,monospace" font-size="14.00">State 4</text>
<text text-anchor="start" x="1136.5" y="-328.3" font-family="Courier,monospace" font-size="14.00"> &#160;1 Start: S •</text>
</g>
<!-- 0&#45;&gt;4 -->
<g id="edge4" class="edge">
<title>0&#45;&gt;4</title>
<path fill="none" stroke="black" stroke-dasharray="5,2" d="M913.07,-465.23C980.14,-437.41 1063.55,-402.81 1122.09,-378.53"/>
<polygon fill="black" stroke="black" points="1123.73,-381.64 1131.63,-374.58 1121.05,-375.17 1123.73,-381.64"/>
<text text-anchor="middle" x="1038" y="-418.8" font-family="Courier,monospace" font-size="14.00">S</text>
</g>
<!-- 5 -->
<g id="node6" class="node">
<title>5</title>
<polygon fill="none" stroke="black" points="581,-247 366,-247 366,-178 581,-178 581,-247"/>
<text text-anchor="middle" x="473.5" y="-231.8" font-family="Courier,monospace" font-size="14.00">State 5</text>
<text text-anchor="start" x="374" y="-200.8" font-family="Courier,monospace" font-size="14.00"> &#160;6 A: &#39;c&#39; • &#160;[&#39;d&#39;, &#39;e&#39;]</text>
<text text-anchor="start" x="374" y="-185.8" font-family="Courier,monospace" font-size="14.00"> &#160;7 B: &#39;c&#39; • &#160;[&#39;d&#39;, &#39;e&#39;]</text>
</g>
<!-- 1&#45;&gt;5 -->
<g id="edge5" class="edge">
<title>1&#45;&gt;5</title>
<path fill="none" stroke="black" d="M379.77,-297.73C395.65,-283.46 412.83,-268.02 428.1,-254.3"/>
<polygon fill="black" stroke="black" points="430.79,-256.59 435.89,-247.3 426.11,-251.38 430.79,-256.59"/>
<text text-anchor="middle" x="426" y="-268.8" font-family="Courier,monospace" font-size="14.00">&#39;c&#39;</text>
</g>
<!-- 6 -->
<g id="node7" class="node">
<title>6</title>
<polygon fill="none" stroke="black" points="348,-239.5 183,-239.5 183,-185.5 348,-185.5 348,-239.5"/>
<text text-anchor="middle" x="265.5" y="-224.3" font-family="Courier,monospace" font-size="14.00">State 6</text>
<text text-anchor="start" x="191" y="-193.3" font-family="Courier,monospace" font-size="14.00"> &#160;2 S: &#39;a&#39; A • &#39;d&#39;</text>
</g>
<!-- 1&#45;&gt;6 -->
<g id="edge6" class="edge">
<title>1&#45;&gt;6</title>
<path fill="none" stroke="black" stroke-dasharray="5,2" d="M303.5,-297.73C296.26,-281.68 288.34,-264.13 281.62,-249.23"/>
<polygon fill="black" stroke="black" points="284.7,-247.54 277.39,-239.87 278.32,-250.42 284.7,-247.54"/>
<text text-anchor="middle" x="300" y="-268.8" font-family="Courier,monospace" font-size="14.00">A</text>
</g>
<!-- 7 -->
<g id="node8" class="node">
<title>7</title>
<polygon fill="none" stroke="black" points="165,-239.5 0,-239.5 0,-185.5 165,-185.5 165,-239.5"/>
<text text-anchor="middle" x="82.5" y="-224.3" font-family="Courier,monospace" font-size="14.00">State 7</text>
<text text-anchor="start" x="8" y="-193.3" font-family="Courier,monospace" font-size="14.00"> &#160;4 S: &#39;a&#39; B • &#39;e&#39;</text>
</g>
<!-- 1&#45;&gt;7 -->
<g id="edge7" class="edge">
<title>1&#45;&gt;7</title>
<path fill="none" stroke="black" stroke-dasharray="5,2" d="M242.89,-301.29C208.7,-282.58 169.92,-261.35 139.06,-244.46"/>
<polygon fill="black" stroke="black" points="140.62,-241.32 130.17,-239.59 137.26,-247.46 140.62,-241.32"/>
<text text-anchor="middle" x="209" y="-268.8" font-family="Courier,monospace" font-size="14.00">B</text>
</g>
<!-- 2&#45;&gt;5 -->
<g id="edge8" class="edge">
<title>2&#45;&gt;5</title>
<path fill="none" stroke="black" d="M635.9,-301.66C606.19,-285.53 572.96,-267.5 544.35,-251.96"/>
<polygon fill="black" stroke="black" points="545.69,-248.7 535.23,-247.01 542.35,-254.86 545.69,-248.7"/>
<text text-anchor="middle" x="609" y="-268.8" font-family="Courier,monospace" font-size="14.00">&#39;c&#39;</text>
</g>
<!-- 8 -->
<g id="node9" class="node">
<title>8</title>
<polygon fill="none" stroke="black" points="947,-239.5 782,-239.5 782,-185.5 947,-185.5 947,-239.5"/>
<text text-anchor="middle" x="864.5" y="-224.3" font-family="Courier,monospace" font-size="14.00">State 8</text>
<text text-anchor="start" x="790" y="-193.3" font-family="Courier,monospace" font-size="14.00"> &#160;5 S: &#39;b&#39; A • &#39;e&#39;</text>
</g>
<!-- 2&#45;&gt;8 -->
<g id="edge9" class="edge">
<title>2&#45;&gt;8</title>
<path fill="none" stroke="black" stroke-dasharray="5,2" d="M772.04,-297.73C790.67,-280.76 811.12,-262.12 828.05,-246.71"/>
<polygon fill="black" stroke="black" points="830.52,-249.19 835.56,-239.87 825.81,-244.01 830.52,-249.19"/>
<text text-anchor="middle" x="810" y="-268.8" font-family="Courier,monospace" font-size="14.00">A</text>
</g>
<!-- 9 -->
<g id="node10" class="node">
<title>9</title>
<polygon fill="none" stroke="black" points="764,-239.5 599,-239.5 599,-185.5 764,-185.5 764,-239.5"/>
<text text-anchor="middle" x="681.5" y="-224.3" font-family="Courier,monospace" font-size="14.00">State 9</text>
<text text-anchor="start" x="607" y="-193.3" font-family="Courier,monospace" font-size="14.00"> &#160;3 S: &#39;b&#39; B • &#39;d&#39;</text>
</g>
<!-- 2&#45;&gt;9 -->
<g id="edge10" class="edge">
<title>2&#45;&gt;9</title>
<path fill="none" stroke="black" stroke-dasharray="5,2" d="M704.93,-297.73C700.51,-281.83 695.68,-264.47 691.56,-249.66"/>
<polygon fill="black" stroke="black" points="694.89,-248.56 688.83,-239.87 688.14,-250.44 694.89,-248.56"/>
<text text-anchor="middle" x="705" y="-268.8" font-family="Courier,monospace" font-size="14.00">B</text>
</g>
<!-- 10 -->
<g id="node11" class="node">
<title>10</title>
<polygon fill="none" stroke="black" points="1188,-239.5 965,-239.5 965,-185.5 1188,-185.5 1188,-239.5"/>
<text text-anchor="middle" x="1076.5" y="-224.3" font-family="Courier,monospace" font-size="14.00">State 10</text>
<text text-anchor="start" x="973" y="-193.3" font-family="Courier,monospace" font-size="14.00"> &#160;0 $accept: Start $end •</text>
</g>
<!-- 3&#45;&gt;10 -->
<g id="edge11" class="edge">
<title>3&#45;&gt;10</title>
<path fill="none" stroke="black" d="M974.59,-320.22C994.59,-299.27 1022.74,-269.8 1044.39,-247.13"/>
<polygon fill="black" stroke="black" points="1047.09,-249.37 1051.46,-239.72 1042.02,-244.54 1047.09,-249.37"/>
<text text-anchor="middle" x="1041.5" y="-268.8" font-family="Courier,monospace" font-size="14.00">$end</text>
</g>
<!-- 4R1 -->
<g id="node12" class="node">
<title>4R1</title>
<polygon fill="#b2df8a" stroke="black" points="1236.5,-230.5 1206.33,-212.5 1236.5,-194.5 1266.67,-212.5 1236.5,-230.5"/>
<text text-anchor="middle" x="1236.5" y="-208.8" font-family="Courier,monospace" font-size="14.00">R1</text>
</g>
<!-- 4&#45;&gt;4R1 -->
<g id="edge12" class="edge">
<title>4&#45;&gt;4R1</title>
<path fill="none" stroke="black" d="M1202.8,-320.22C1210.39,-296.2 1221.52,-260.95 1228.88,-237.62"/>
<polygon fill="black" stroke="black" points="1232.3,-238.42 1231.98,-227.83 1225.63,-236.31 1232.3,-238.42"/>
</g>
<!-- 5R6 -->
<g id="node13" class="node">
<title>5R6</title>
<polygon fill="#b2df8a" stroke="black" points="522.5,-118 492.33,-100 522.5,-82 552.67,-100 522.5,-118"/>
<text text-anchor="middle" x="522.5" y="-96.3" font-family="Courier,monospace" font-size="14.00">R6</text>
</g>
<!-- 5&#45;&gt;5R6 -->
<g id="edge13" class="edge">
<title>5&#45;&gt;5R6</title>
<path fill="none" stroke="black" d="M498.86,-177.88C502.46,-172.12 505.84,-166.03 508.5,-160 513.08,-149.6 516.29,-137.47 518.47,-126.93"/>
<polygon fill="black" stroke="black" points="521.92,-127.5 520.31,-117.03 515.04,-126.22 521.92,-127.5"/>
</g>
<!-- 5R7d -->
<g id="node14" class="node">
<title>5R7d</title>
<polygon fill="#fb9a99" stroke="black" points="424.5,-118 394.33,-100 424.5,-82 454.67,-100 424.5,-118"/>
<text text-anchor="middle" x="424.5" y="-96.3" font-family="Courier,monospace" font-size="14.00">R7</text>
</g>
<!-- 5&#45;&gt;5R7d -->
<g id="edge14" class="edge">
<title>5&#45;&gt;5R7d</title>
<path fill="none" stroke="black" d="M432.4,-177.74C427.98,-172.29 424.14,-166.33 421.5,-160 417.06,-149.35 417.1,-136.67 418.54,-125.79"/>
<polygon fill="black" stroke="black" points="422.04,-126.12 420.34,-115.67 415.15,-124.9 422.04,-126.12"/>
<text text-anchor="middle" x="463" y="-148.8" font-family="Courier,monospace" font-size="14.00">[&#39;d&#39;, &#39;e&#39;]</text>
</g>
<!-- 11 -->
<g id="node15" class="node">
<title>11</title>
<polygon fill="none" stroke="black" points="348,-127 183,-127 183,-73 348,-73 348,-127"/>
<text text-anchor="middle" x="265.5" y="-111.8" font-family="Courier,monospace" font-size="14.00">State 11</text>
<text text-anchor="start" x="191" y="-80.8" font-family="Courier,monospace" font-size="14.00"> &#160;2 S: &#39;a&#39; A &#39;d&#39; •</text>
</g>
<!-- 6&#45;&gt;11 -->
<g id="edge15" class="edge">
<title>6&#45;&gt;11</title>
<path fill="none" stroke="black" d="M265.5,-185.31C265.5,-171.1 265.5,-153.31 265.5,-137.74"/>
<polygon fill="black" stroke="black" points="269,-137.38 265.5,-127.38 262,-137.38 269,-137.38"/>
<text text-anchor="middle" x="278" y="-148.8" font-family="Courier,monospace" font-size="14.00">&#39;d&#39;</text>
</g>
<!-- 12 -->
<g id="node16" class="node">
<title>12</title>
<polygon fill="none" stroke="black" points="165,-127 0,-127 0,-73 165,-73 165,-127"/>
<text text-anchor="middle" x="82.5" y="-111.8" font-family="Courier,monospace" font-size="14.00">State 12</text>
<text text-anchor="start" x="8" y="-80.8" font-family="Courier,monospace" font-size="14.00"> &#160;4 S: &#39;a&#39; B &#39;e&#39; •</text>
</g>
<!-- 7&#45;&gt;12 -->
<g id="edge16" class="edge">
<title>7&#45;&gt;12</title>
<path fill="none" stroke="black" d="M82.5,-185.31C82.5,-171.1 82.5,-153.31 82.5,-137.74"/>
<polygon fill="black" stroke="black" points="86,-137.38 82.5,-127.38 79,-137.38 86,-137.38"/>
<text text-anchor="middle" x="95" y="-148.8" font-family="Courier,monospace" font-size="14.00">&#39;e&#39;</text>
</g>
<!-- 13 -->
<g id="node17" class="node">
<title>13</title>
<polygon fill="none" stroke="black" points="947,-127 782,-127 782,-73 947,-73 947,-127"/>
<text text-anchor="middle" x="864.5" y="-111.8" font-family="Courier,monospace" font-size="14.00">State 13</text>
<text text-anchor="start" x="790" y="-80.8" font-family="Courier,monospace" font-size="14.00"> &#160;5 S: &#39;b&#39; A &#39;e&#39; •</text>
</g>
<!-- 8&#45;&gt;13 -->
<g id="edge17" class="edge">
<title>8&#45;&gt;13</title>
<path fill="none" stroke="black" d="M864.5,-185.31C864.5,-171.1 864.5,-153.31 864.5,-137.74"/>
<polygon fill="black" stroke="black" points="868,-137.38 864.5,-127.38 861,-137.38 868,-137.38"/>
<text text-anchor="middle" x="877" y="-148.8" font-family="Courier,monospace" font-size="14.00">&#39;e&#39;</text>
</g>
<!-- 14 -->
<g id="node18" class="node">
<title>14</title>
<polygon fill="none" stroke="black" points="764,-127 599,-127 599,-73 764,-73 764,-127"/>
<text text-anchor="middle" x="681.5" y="-111.8" font-family="Courier,monospace" font-size="14.00">State 14</text>
<text text-anchor="start" x="607" y="-80.8" font-family="Courier,monospace" font-size="14.00"> &#160;3 S: &#39;b&#39; B &#39;d&#39; •</text>
</g>
<!-- 9&#45;&gt;14 -->
<g id="edge18" class="edge">
<title>9&#45;&gt;14</title>
<path fill="none" stroke="black" d="M681.5,-185.31C681.5,-171.1 681.5,-153.31 681.5,-137.74"/>
<polygon fill="black" stroke="black" points="685,-137.38 681.5,-127.38 678,-137.38 685,-137.38"/>
<text text-anchor="middle" x="694" y="-148.8" font-family="Courier,monospace" font-size="14.00">&#39;d&#39;</text>
</g>
<!-- 10R0 -->
<g id="node19" class="node">
<title>10R0</title>
<polygon fill="#a6cee3" stroke="black" points="1076.5,-118 1038.63,-100 1076.5,-82 1114.37,-100 1076.5,-118"/>
<text text-anchor="middle" x="1076.5" y="-96.3" font-family="Courier,monospace" font-size="14.00">Acc</text>
</g>
<!-- 10&#45;&gt;10R0 -->
<g id="edge19" class="edge">
<title>10&#45;&gt;10R0</title>
<path fill="none" stroke="black" d="M1076.5,-185.31C1076.5,-168.08 1076.5,-145.58 1076.5,-128.16"/>
<polygon fill="black" stroke="black" points="1080,-128.06 1076.5,-118.06 1073,-128.06 1080,-128.06"/>
</g>
<!-- 11R2 -->
<g id="node20" class="node">
<title>11R2</title>
<polygon fill="#b2df8a" stroke="black" points="265.5,-36 235.33,-18 265.5,0 295.67,-18 265.5,-36"/>
<text text-anchor="middle" x="265.5" y="-14.3" font-family="Courier,monospace" font-size="14.00">R2</text>
</g>
<!-- 11&#45;&gt;11R2 -->
<g id="edge20" class="edge">
<title>11&#45;&gt;11R2</title>
<path fill="none" stroke="black" d="M265.5,-72.81C265.5,-64.35 265.5,-54.95 265.5,-46.4"/>
<polygon fill="black" stroke="black" points="269,-46.17 265.5,-36.17 262,-46.17 269,-46.17"/>
</g>
<!-- 12R4 -->
<g id="node21" class="node">
<title>12R4</title>
<polygon fill="#b2df8a" stroke="black" points="82.5,-36 52.33,-18 82.5,0 112.67,-18 82.5,-36"/>
<text text-anchor="middle" x="82.5" y="-14.3" font-family="Courier,monospace" font-size="14.00">R4</text>
</g>
<!-- 12&#45;&gt;12R4 -->
<g id="edge21" class="edge">
<title>12&#45;&gt;12R4</title>
<path fill="none" stroke="black" d="M82.5,-72.81C82.5,-64.35 82.5,-54.95 82.5,-46.4"/>
<polygon fill="black" stroke="black" points="86,-46.17 82.5,-36.17 79,-46.17 86,-46.17"/>
</g>
<!-- 13R5 -->
<g id="node22" class="node">
<title>13R5</title>
<polygon fill="#b2df8a" stroke="black" points="864.5,-36 834.33,-18 864.5,0 894.67,-18 864.5,-36"/>
<text text-anchor="middle" x="864.5" y="-14.3" font-family="Courier,monospace" font-size="14.00">R5</text>
</g>
<!-- 13&#45;&gt;13R5 -->
<g id="edge22" class="edge">
<title>13&#45;&gt;13R5</title>
<path fill="none" stroke="black" d="M864.5,-72.81C864.5,-64.35 864.5,-54.95 864.5,-46.4"/>
<polygon fill="black" stroke="black" points="868,-46.17 864.5,-36.17 861,-46.17 868,-46.17"/>
</g>
<!-- 14R3 -->
<g id="node23" class="node">
<title>14R3</title>
<polygon fill="#b2df8a" stroke="black" points="681.5,-36 651.33,-18 681.5,0 711.67,-18 681.5,-36"/>
<text text-anchor="middle" x="681.5" y="-14.3" font-family="Courier,monospace" font-size="14.00">R3</text>
</g>
<!-- 14&#45;&gt;14R3 -->
<g id="edge23" class="edge">
<title>14&#45;&gt;14R3</title>
<path fill="none" stroke="black" d="M681.5,-72.81C681.5,-64.35 681.5,-54.95 681.5,-46.4"/>
<polygon fill="black" stroke="black" points="685,-46.17 681.5,-36.17 678,-46.17 685,-46.17"/>
</g>
</g>
</svg>
